STARTFONT 2.3
FONT -FontForge-Pacifico-Book-R-Normal--32-320-72-72-P-188-ISO10646-1
SIZE 32 72 72  4
FONTBOUNDINGBOX 73 62 -19 -15
COMMENT "Generated by fontforge, http://fontforge.sourceforge.net"
COMMENT "Copyright 2018 The Pacifico Project Authors (https://github.com/googlefonts/Pacifico)"
STARTPROPERTIES 41
FOUNDRY "FontForge"
FAMILY_NAME "Pacifico"
WEIGHT_NAME "Book"
SLANT "R"
SETWIDTH_NAME "Normal"
ADD_STYLE_NAME ""
PIXEL_SIZE 32
POINT_SIZE 320
RESOLUTION_X 72
RESOLUTION_Y 72
SPACING "P"
AVERAGE_WIDTH 188
CHARSET_REGISTRY "ISO10646"
CHARSET_ENCODING "1"
FONTNAME_REGISTRY ""
CHARSET_COLLECTIONS "ISO8859-2 ISO8859-5 ISO8859-9 ISO8859-4 ISO10646-1"
BITS_PER_PIXEL 4
FONT_NAME "Pacifico-Regular"
FACE_NAME "Pacifico Regular"
COPYRIGHT "Copyright 2018 The Pacifico Project Authors (https://github.com/googlefonts/Pacifico)"
FONT_VERSION "3.001"
FONT_ASCENT 26
FONT_DESCENT 6
UNDERLINE_POSITION -3
UNDERLINE_THICKNESS 2
X_HEIGHT 14
CAP_HEIGHT 26
DEFAULT_CHAR 1
RAW_ASCENT 800
RAW_DESCENT 200
NORM_SPACE 8
RELATIVE_WEIGHT 40
RELATIVE_SETWIDTH 50
SUPERSCRIPT_X 0
SUPERSCRIPT_Y 11
SUPERSCRIPT_SIZE 19
SUBSCRIPT_X 0
SUBSCRIPT_Y 2
SUBSCRIPT_SIZE 19
AVG_LOWERCASE_WIDTH 151
AVG_UPPERCASE_WIDTH 260
ENDPROPERTIES
CHARS 1514
STARTCHAR NULL.dup1
ENCODING 0
SWIDTH 0 0
DWIDTH 0 0
BBX 1 1 0 0
BITMAP
00
ENDCHAR
STARTCHAR nonmarkingreturn
ENCODING 13
SWIDTH 265 0
DWIDTH 8 0
BBX 1 1 0 0
BITMAP
00
ENDCHAR
STARTCHAR space
ENCODING 32
SWIDTH 265 0
DWIDTH 8 0
BBX 1 1 0 0
BITMAP
00
ENDCHAR
STARTCHAR exclam
ENCODING 33
SWIDTH 340 0
DWIDTH 11 0
BBX 11 27 1 0
BITMAP
0000003CFD50
000000DFFFA0
000004FFFF70
000007FFFF30
00000BFFFE00
00000EFFFA00
00002FFFF600
00006FFFF200
00009FFFD000
0000CFFF8000
0000FFFF4000
0003FFFE0000
0006FFFA0000
0009FFF50000
000BFFF10000
000EFFB00000
001FFF600000
004FFF100000
004FFA000000
000340000000
000000000000
08DEB2000000
8FFFFB000000
DFFFFF000000
DFFFFD000000
AFFFF8000000
1AEE80000000
ENDCHAR
STARTCHAR quotedbl
ENCODING 34
SWIDTH 510 0
DWIDTH 16 0
BBX 14 11 3 16
BITMAP
007EE80007DE90
04FFFF204FFFF2
09FFFF209FFFF3
0CFFFE00BFFFF0
0DFFFB00DFFFC0
0FFFF800EFFF90
1FFFF501FFFF50
3FFFF102FFFF20
4FFFD004FFFE00
5FFF9004FFFA00
1CEB1001BEB200
ENDCHAR
STARTCHAR numbersign
ENCODING 35
SWIDTH 700 0
DWIDTH 22 0
BBX 21 19 1 0
BITMAP
00000008ED20001AEB1000
0000005FFF80009FFF4000
000000AFFF5000EFFF1000
000000EFFF1003FFFC0000
03DFFFFFFFFFFFFFFFFE50
09FFFFFFFFFFFFFFFFFFB0
06FFFFFFFFFFFFFFFFFF90
00579FFFD777BFFFB77610
00006FFF8000AFFF400000
0000AFFF4000EFFF100000
0000EFFF1003FFFC000000
1678FFFE777AFFFC775000
BFFFFFFFFFFFFFFFFFF500
DFFFFFFFFFFFFFFFFFF700
6EFFFFFFFFFFFFFFFFD200
006FFF9000AFFF50000000
00BFFF4000EFFF10000000
00CFFD0001FFFA00000000
006EC300009EB100000000
ENDCHAR
STARTCHAR dollar
ENCODING 36
SWIDTH 524 0
DWIDTH 17 0
BBX 15 27 1 -4
BITMAP
000000008E500000
00000000EF600000
00000001FF400000
00000003FF200000
00004ADFFFD92000
001AFFFFFFFFE500
00AFFFFFFFFFFF20
03FFFD3AFA9FFF60
07FFF40CF71FFF60
08FFF30EF50CFE20
06FFFA1FF3015200
02FFFFEFF1000000
007FFFFFF8200000
0007FFFFFFF91000
000028EFFFFFC100
000000BFEFFFF900
2CE500DF76FFFE00
9FFC00FF50BFFF10
BFFF22FF30CFFE00
8FFFC7FF4AFFF900
2EFFFFFFFFFFD100
02CFFFFFFFFB1000
00049EFEB8300000
00000CF900000000
00000EF700000000
00001FF500000000
00001DD100000000
ENDCHAR
STARTCHAR percent
ENCODING 37
SWIDTH 896 0
DWIDTH 29 0
BBX 28 24 1 0
BITMAP
00029DFD81000000005EB1000000
003EFFFFFD10000004FFF6000000
02EFFFEFFF9000003EFFF5000000
0AFFE28FFFE10028FFFFD0000000
1EFF707FFFF99BFFFFFF50000000
4FFF303FFFFFFFFFFFFB00000000
6FFF200AFFFFFFFFFFF200000000
6FFF2003FFFEC9EFFF8000000000
4FFF5007FFA007FFFE1000000000
1EFFC23EFF301EFFF50000000000
08FFFFFFFA009FFFC00000000000
00BFFFFFB103FFFF30029CCA4000
0005BCB6000BFFF9007FFFFFF800
00000000005FFFE106FFFFFFFF50
0000000001DFFF601EFFB13EFFC0
0000000008FFFC005FFF2008FFF1
000000002FFFF4009FFD0005FFF3
00000000AFFFA000BFFB0005FFF2
00000004FFFE2000CFFB0006FFF1
0000000CFFF70000AFFD000AFFC0
0000006FFFD000006FFF604FFF60
000000CFFF4000001EFFFEFFFC00
000000DFFA00000004FFFFFFD200
0000005EC2000000003AEEC71000
ENDCHAR
STARTCHAR ampersand
ENCODING 38
SWIDTH 851 0
DWIDTH 27 0
BBX 26 31 1 -2
BITMAP
00000000003565200000000000
000000007DFFFFFB1000000000
0000001BFFFFFFFFD100000000
000000AFFFFFFFFFF900000000
000005FFFF7116FFFE00000000
00000BFFF90000AFFF30000000
00000FFFF200008FFF40000000
00002FFFE000009FFF30000000
00003FFFE00000DFFF10000000
00002FFFF10006FFFB00000000
00000EFFF5003EFFF400000000
00000AFFFB06EFFF9000000000
000004FFFFCFFFFB0000000000
000000CFFFFFFFA00000000000
0000009FFFFFE6000000000000
00002CFFFFFF50000000000000
0004EFFFFFFFD1000000007BA2
004FFFFFBFFFFA00000008FFF7
02EFFFE40BFFFF8000005FFFF3
0BFFFE3002EFFFF50002EFFF90
2FFFF700004FFFFF302DFFFC00
6FFFF1000007FFFFE4DFFFE200
8FFFE0000000AFFFFFFFFE3000
8FFFF20000001DFFFFFFE30000
4FFFFB10000018FFFFFF300000
0CFFFFFA878BFFFFFFFFA00000
02DFFFFFFFFFFFFFFFFFF90000
002AFFFFFFFFFFD78FFFFF8000
000038CDFFDB830009FFFFF300
000000000000000000BFFFF500
00000000000000000019DE9000
ENDCHAR
STARTCHAR quotesingle
ENCODING 39
SWIDTH 290 0
DWIDTH 9 0
BBX 7 11 3 16
BITMAP
007EE800
04FFFF20
09FFFF20
0CFFFE00
0DFFFB00
0FFFF800
1FFFF500
3FFFF100
4FFFD000
5FFF9000
1CEB1000
ENDCHAR
STARTCHAR parenleft
ENCODING 40
SWIDTH 613 0
DWIDTH 20 0
BBX 22 35 2 -5
BITMAP
0000000000027BEFEC8300
00000000019FFFFFFFFF91
000000003DFFFFFFFFFFF7
00000003EFFFFD97AEFFF8
0000002EFFFF6000018FD2
000000BFFFF40000000110
000006FFFF600000000000
00001EFFFA000000000000
00007FFFF2000000000000
0000EFFF90000000000000
0005FFFF20000000000000
000BFFFB00000000000000
001FFFF600000000000000
006FFFF100000000000000
00AFFFB000000000000000
00DFFF7000000000000000
02FFFF4000000000000000
05FFFF1000000000000000
08FFFD0000000000000000
0AFFFA0000000000000000
0CFFF80000000000000000
0EFFF60000000000000000
0FFFF50000000000000000
0FFFF40000000000000000
1FFFF40000000000000000
1FFFF40000000000000000
0FFFF40000000000000000
0DFFF60000000010000000
0BFFF900000009FA000000
06FFFE100001BFFF000000
01EFFFB3027EFFFC000000
007FFFFFFFFFFFD2000000
000AFFFFFFFFFB20000000
00006EFFFFFC5000000000
0000003665200000000000
ENDCHAR
STARTCHAR parenright
ENCODING 41
SWIDTH 613 0
DWIDTH 20 0
BBX 22 35 -3 -5
BITMAP
00000000005ADFEC710000
000000004DFFFFFFFE4000
00000008FFFFFFFFFFE300
0000008FFFFE97AFFFFC00
000000FFFF700004FFFF40
000000EFE4000000BFFF90
00000049200000007FFFC0
00000000000000005FFFF0
00000000000000004FFFF1
00000000000000003FFFF1
00000000000000004FFFF1
00000000000000004FFFF0
00000000000000005FFFE0
00000000000000007FFFD0
00000000000000009FFFB0
0000000000000000BFFF90
0000000000000000EFFF70
0000000000000002FFFF40
0000000000000005FFFF10
0000000000000009FFFC00
000000000000000DFFF800
000000000000003FFFF300
000000000000008FFFD000
00000000000000EFFF8000
00000000000005FFFF2000
0000000000000CFFFB0000
0000000000006FFFF40000
000000000001EFFFB00000
00000000000BFFFE200000
0682000001BFFFF6000000
5FFE83026DFFFF80000000
9FFFFFFFFFFFF900000000
3EFFFFFFFFFE6000000000
02AFFFFFFE920000000000
0001467630000000000000
ENDCHAR
STARTCHAR asterisk
ENCODING 42
SWIDTH 520 0
DWIDTH 17 0
BBX 14 14 3 16
BITMAP
0000001CE40000
0000007FFB0000
01CE608FF90000
06FFF57FF32BE4
03EFFFAFC6EFFB
002AFFFFEFFFFB
00016EFFFFFFD3
08EFFFFFFC4100
4FFFFFFFFFD500
4FFFC7FECFFF90
0BE80BFE1DFFD0
00002FFF02CE60
00004FFE000000
00000BE7000000
ENDCHAR
STARTCHAR plus
ENCODING 43
SWIDTH 700 0
DWIDTH 22 0
BBX 19 19 2 0
BITMAP
000000000AEA00000000
000000006FFF20000000
000000008FFF10000000
00000000AFFF00000000
00000000CFFD00000000
00000000DFFB00000000
00000000FFFA00000000
00000002FFF800000000
09EFFFFFFFFFFFFFFB00
4FFFFFFFFFFFFFFFFF20
3FFFFFFFFFFFFFFFFD00
0477777CFFF777776100
0000000CFFD000000000
0000000EFFB000000000
0000000FFF9000000000
0000002FFF7000000000
0000004FFF6000000000
0000005FFF3000000000
0000001CE80000000000
ENDCHAR
STARTCHAR comma
ENCODING 44
SWIDTH 257 0
DWIDTH 8 0
BBX 7 11 0 -5
BITMAP
007EE700
04FFFF30
09FFFF50
0AFFFF30
0BFFFE00
0CFFF900
0EFFF300
2FFFC000
5FFF4000
7FFB0000
3DD20000
ENDCHAR
STARTCHAR hyphen
ENCODING 45
SWIDTH 403 0
DWIDTH 13 0
BBX 11 6 1 7
BITMAP
000000001200
0379BCEFFF60
1EFFFFFFFFB0
2FFFFFFFFF80
0CFFEDBA8600
001000000000
ENDCHAR
STARTCHAR period
ENCODING 46
SWIDTH 257 0
DWIDTH 8 0
BBX 7 6 0 0
BITMAP
019EEA10
0AFFFF90
0FFFFFC0
1FFFFFB0
0CFFFF60
02BED700
ENDCHAR
STARTCHAR slash
ENCODING 47
SWIDTH 509 0
DWIDTH 16 0
BBX 18 30 0 0
BITMAP
000000000000003DD3
00000000000000DFFB
00000000000006FFFB
0000000000001EFFF6
0000000000007FFFD0
000000000001EFFF50
000000000008FFFC00
00000000002FFFF400
00000000009FFFB000
0000000003FFFF3000
000000000BFFFA0000
000000004FFFF20000
00000000CFFF900000
00000005FFFE100000
0000000CFFF8000000
0000006FFFE1000000
000000DFFF70000000
000007FFFD00000000
00001EFFF600000000
00008FFFC000000000
0001EFFF5000000000
0009FFFC0000000000
002FFFF40000000000
00AFFFB00000000000
03FFFF300000000000
0BFFFA000000000000
3FFFF2000000000000
9FFF90000000000000
AFFE10000000000000
2DD500000000000000
ENDCHAR
STARTCHAR zero
ENCODING 48
SWIDTH 543 0
DWIDTH 17 0
BBX 16 19 1 0
BITMAP
000004ADFEB60000
00009FFFFFFFC100
000AFFFFFFFFFC00
007FFFFA7BFFFF50
01EFFF4000AFFFB0
06FFF900002FFFE0
0BFFF300000EFFF2
0EFFE000000CFFF3
3FFFC000000CFFF3
4FFFA000000DFFF2
5FFFA000000EFFF1
5FFFA000002FFFD0
4FFFB000006FFF90
2FFFE00000CFFF40
0DFFF70006FFFD00
08FFFFA7AFFFF400
01DFFFFFFFFF8000
003DFFFFFFF70000
00017CEFD9300000
ENDCHAR
STARTCHAR one
ENCODING 49
SWIDTH 376 0
DWIDTH 12 0
BBX 10 19 1 0
BITMAP
000159CED2
02AFFFFFF8
0EFFFFFFF8
2FFFFFFFF5
0BEA7FFFF3
00004FFFF1
00006FFFD0
00008FFFB0
0000AFFF90
0000DFFF70
0000FFFF50
0001FFFF30
0003FFFF20
0005FFFF00
0007FFFD00
0009FFFB00
000AFFF900
000AFFF600
0003CEA000
ENDCHAR
STARTCHAR two
ENCODING 50
SWIDTH 560 0
DWIDTH 18 0
BBX 16 19 1 0
BITMAP
000005ADEFD93000
0003CFFFFFFFF700
002EFFFFFFFFFF50
00BFFFE97AFFFFC0
02FFFE20007FFFF1
04FFF800003FFFF2
05FFF600003FFFF1
01EFE200008FFFC0
0013100001EFFF60
000000000AFFFD00
000000008FFFF300
00000009FFFF5000
000002BFFFF60000
00006EFFFD400000
006DFFFF91000000
1CFFFFFA77777760
6FFFFFFFFFFFFFF7
7FFFFFFFFFFFFFF8
3EFFFFFFFFFFFFB1
ENDCHAR
STARTCHAR three
ENCODING 51
SWIDTH 520 0
DWIDTH 17 0
BBX 16 19 0 0
BITMAP
0000059DEFEC7100
0002CFFFFFFFFE40
002EFFFFFFFFFFE1
00AFFFE978DFFFF6
00EFFE20001EFFF8
00FFF800000EFFF7
007EC200004FFFF2
0000000004EFFF70
00000049DFFFF600
000000FFFFFD2000
000000EFFFFFF700
000000267BFFFF70
03A80000007FFFE0
0DFF6000003FFFF3
1FFFC100008FFFF1
0EFFFD878CFFFFD0
08FFFFFFFFFFFF40
009FFFFFFFFFE400
00039CEFEDA60000
ENDCHAR
STARTCHAR four
ENCODING 52
SWIDTH 577 0
DWIDTH 18 0
BBX 17 19 1 0
BITMAP
000001AEE500000000
00000AFFF800000000
00004FFFF200000000
0000BFFF9000000000
0004FFFF2004DE8000
000BFFF9000EFFD000
003FFFF2004FFFB000
00AFFF90007FFF8000
02FFFF2000BFFF6000
08FFFA0000DFFF3000
0DFFF40001FFFF0000
4FFFF77778FFFE7610
6FFFFFFFFFFFFFFF80
5FFFFFFFFFFFFFFF80
0AFFFFFFFFFFFFEB20
000000000AFFF40000
000000000CFFF30000
000000000CFFF10000
0000000005EE700000
ENDCHAR
STARTCHAR five
ENCODING 53
SWIDTH 518 0
DWIDTH 17 0
BBX 15 19 1 0
BITMAP
006BDEFFFFFFFD80
07FFFFFFFFFFFFF0
09FFFFFFFFFFFFC0
018FFFD777777610
006FFF7000000000
009FFF4000000000
00CFFF1000000000
00FFFE6641000000
03FFFFFFFFB40000
03FFFFFFFFFF9000
00AEFFFFFFFFF700
000001249EFFFE00
0362000003FFFF20
3FFD000000EFFF30
7FFF700005FFFF10
6FFFFC87AFFFFA00
1EFFFFFFFFFFE200
04EFFFFFFFFC3000
0016BDFEDA500000
ENDCHAR
STARTCHAR six
ENCODING 54
SWIDTH 541 0
DWIDTH 17 0
BBX 16 19 1 0
BITMAP
0000017BEFEC7000
00005EFFFFFFFD20
0006FFFFFFFFFFC0
004FFFFD87BFFFF4
00DFFF800009FFF7
05FFFB000001DFE3
0BFFF40000000200
0FFFF17CEEC60000
3FFFDCFFFFFFC100
5FFFFFFFFFFFFA00
6FFFFFC88DFFFF20
6FFFFA0001EFFF60
5FFFF30000AFFF70
3FFFF20000BFFF60
0EFFF80004FFFF20
08FFFFA7AFFFFB00
01DFFFFFFFFFE200
002DFFFFFFFD3000
00017CEFDB610000
ENDCHAR
STARTCHAR seven
ENCODING 55
SWIDTH 497 0
DWIDTH 16 0
BBX 16 19 1 0
BITMAP
08CBA98777778AB2
5FFFFFFFFFFFFFF8
8FFFFFFFFFFFFFF8
3EFFFFFFFFFFFFD2
000000002CFFFB20
00000003DFFF7000
0000002EFFF60000
000001CFFF700000
000008FFFB000000
00003FFFF2000000
0000AFFFA0000000
0002FFFF40000000
0007FFFE00000000
000AFFFB00000000
000EFFF800000000
000FFFF600000000
000FFFF300000000
000DFFE100000000
0004DE5000000000
ENDCHAR
STARTCHAR eight
ENCODING 56
SWIDTH 512 0
DWIDTH 16 0
BBX 15 19 1 0
BITMAP
000038CEFEC82000
0009FFFFFFFFE500
009FFFFFFFFFFE20
02FFFFD879FFFF70
06FFFC00006FFF90
08FFF700004FFF70
06FFFB0001CFFF20
02FFFFA24CFFF700
007FFFFFFFFF7000
0009FFFFFFF80000
007FFFFFFFFFA000
09FFFA25CFFFF900
3FFF900007FFFF10
9FFF300000CFFF30
AFFF600002EFFF10
8FFFFA87AEFFFC00
3FFFFFFFFFFFF400
05EFFFFFFFFD4000
0017BEFEDA600000
ENDCHAR
STARTCHAR nine
ENCODING 57
SWIDTH 541 0
DWIDTH 17 0
BBX 16 19 1 0
BITMAP
000027CEFEB50000
0005EFFFFFFFB100
005FFFFFFFFFFA00
01EFFFE98CFFFF40
06FFFE1000BFFFA0
0AFFF800006FFFE0
0BFFF600007FFFF1
0AFFFB0001DFFFF2
06FFFFC79EFFFFF2
01DFFFFFFFFFFFF1
003EFFFFFFAFFFE0
00018DEEB54FFFB0
01200000008FFF70
5FFA000001EFFF20
AFFF50001BFFF900
8FFFF979EFFFE100
2EFFFFFFFFFE3000
04EFFFFFFFC30000
0028CEFDA5000000
ENDCHAR
STARTCHAR colon
ENCODING 58
SWIDTH 257 0
DWIDTH 8 0
BBX 8 15 0 0
BITMAP
0018DEB2
008FFFFB
00DFFFFE
00EFFFFD
00AFFFF8
002AED80
00000000
00000000
00000000
019EEA10
0AFFFF90
0FFFFFC0
1FFFFFB0
0CFFFF60
02BED700
ENDCHAR
STARTCHAR semicolon
ENCODING 59
SWIDTH 257 0
DWIDTH 8 0
BBX 8 20 0 -5
BITMAP
0018DEB2
008FFFFB
00DFFFFE
00EFFFFD
00AFFFF8
002AED80
00000000
00000000
00000000
007EE700
04FFFF30
09FFFF50
0AFFFF30
0BFFFE00
0CFFF900
0EFFF300
2FFFC000
5FFF4000
7FFB0000
3DD20000
ENDCHAR
STARTCHAR less
ENCODING 60
SWIDTH 700 0
DWIDTH 22 0
BBX 19 15 2 2
BITMAP
00000000000000015710
00000000000005AEFF90
000000000049EFFFFFA0
000000039EFFFFFFFD20
000038DFFFFFFFE94000
017DFFFFFFFEA5000000
0CFFFFFFEA5100000000
4FFFFFB5100000000000
5FFFFFE9400000000000
0AFFFFFFFD8200000000
0028DFFFFFFFC6100000
000004AFFFFFFFFA4000
000000016CFFFFFFF400
000000000039EFFFF500
00000000000005BEA000
ENDCHAR
STARTCHAR equal
ENCODING 61
SWIDTH 700 0
DWIDTH 22 0
BBX 19 11 2 4
BITMAP
04DFFFFFFFFFFFFFFE40
0CFFFFFFFFFFFFFFFF90
0BFFFFFFFFFFFFFFFF50
01677777777777777300
00000000000000000000
00000000000000000000
00000000000000000000
04777777777777776100
7FFFFFFFFFFFFFFFF900
BFFFFFFFFFFFFFFFFA00
6EFFFFFFFFFFFFFFC200
ENDCHAR
STARTCHAR greater
ENCODING 62
SWIDTH 700 0
DWIDTH 22 0
BBX 19 15 2 2
BITMAP
00473000000000000000
04FFFC61000000000000
08FFFFFFA40000000000
02DFFFFFFFD720000000
0005BFFFFFFFFB500000
0000017DFFFFFFFE9200
0000000039EFFFFFFE10
000000000005CFFFFF30
00000000016BFFFFFE10
00000016BFFFFFFFE400
00016BFFFFFFFEA40000
05BFFFFFFFFA51000000
8FFFFFFFB61000000000
CFFFFC71000000000000
7EC72000000000000000
ENDCHAR
STARTCHAR question
ENCODING 63
SWIDTH 476 0
DWIDTH 15 0
BBX 15 27 2 0
BITMAP
00005ADEFDB60000
002CFFFFFFFFD200
01DFFFFFFFFFFD10
08FFFE979EFFFF50
0EFFE20004FFFF90
1FFF900000FFFF90
1FFF900002FFFF80
0AFF600007FFFF40
003300002EFFFC00
00000001CFFFE300
0000001CFFFF5000
000001CFFFF50000
00000BFFFE400000
00008FFFD2000000
0003FFFD20000000
0009FFE200000000
000EFF7000000000
001FFF1000000000
001FF90000000000
0003400000000000
0000000000000000
08DEB20000000000
8FFFFB0000000000
DFFFFE0000000000
EFFFFD0000000000
AFFFF80000000000
1AEE800000000000
ENDCHAR
STARTCHAR at
ENCODING 64
SWIDTH 1015 0
DWIDTH 32 0
BBX 31 33 1 -9
BITMAP
000000000000269CDEFEDA7200000000
00000000006CFFFFFFFFFFFFB3000000
000000004CFFFFFFFFFFFFFFFF700000
00000008FFFFFFDA8778BEFFFFF90000
000000BFFFFE83000000005CFFFF6000
00000BFFFFA20000000000009FFFE100
00009FFFF7000000000000000AFFF800
0005FFFF700000000000000001EFFD00
001DFFF9000000000000000000AFFF20
007FFFD10000005BEF600000006FFF50
00EFFF6000001CFFFFD9A400004FFF60
05FFFD000002DFFFFFFFFA00003FFF70
0AFFF800001DFFFFBAFFF900004FFF60
0EFFF300009FFFE406FFF600005FFF50
4FFFE00002FFFF4009FFF300008FFF30
6FFFB00008FFFA000DFFF10000CFFF10
9FFF90000DFFF4001FFFD00003FFFB00
AFFF70000FFFF0004FFFA00009FFF600
BFFF60001FFFE0009FFF80004FFFE100
BFFF70001FFFF102EFFF8002DFFF7000
AFFF80000EFFFB8DFFFFE88EFFFC0000
9FFF900009FFFFFFFAFFFFFFFFD10000
6FFFD00001DFFFFF90CFFFFFFB100000
2FFFF2000019EFC60018DFEB50000000
0DFFF900000000000000000000000000
06FFFF30000000000000000000000000
00DFFFD1000000000000000003300000
004FFFFD3000000000000005CFF50000
0006FFFFFA300000000038DFFFF80000
00006FFFFFFEA98789CEFFFFFFE20000
000004DFFFFFFFFFFFFFFFFFF9200000
00000006DFFFFFFFFFFFFFC820000000
00000000037ADEFFEDB8620000000000
ENDCHAR
STARTCHAR A
ENCODING 65
SWIDTH 786 0
DWIDTH 25 0
BBX 29 27 1 0
BITMAP
000000000000158BDEFEDCA8400000
00000000004BFFFFFFFFFFFFFA0000
000000003BFFFFFFFFFFFFFFFC0000
00000007FFFFFFEB8778ACFFE40000
0000009FFFFFA40000000003100000
000009FFFFD400000039A700000000
00007FFFFC10000001EFFF50000000
0003FFFFD100000004FFFF50000000
000CFFFF3000000007FFFF20000000
005FFFF8000000000AFFFD00000000
00BFFFE1000000000DFFFA00000000
02FFFF90000000001FFFF600000000
07FFFF40000000005FFFF300000000
0BFFFF00000000009FFFF100000000
0DFFFC0000000000DFFFD000000000
1FFFFA0000000002FFFFA000000000
2FFFF80000000007FFFF8000000000
3FFFF8000000000CFFFF6000000000
3FFFF8000000003FFFFF4000000000
2FFFFA00000000AFFFFF3000000000
0EFFFD00000003FFFFFF3000008E20
0AFFFF4000001DFFFFFF400007FF40
05FFFFD20001CFFCFFFF90007FFF10
00BFFFFE979EFFD2FFFFFA8CFFF600
002DFFFFFFFFFE30AFFFFFFFFF7000
0002CFFFFFFFD3001DFFFFFFE50000
000005BEFEB60000018DFEC8200000
ENDCHAR
STARTCHAR B
ENCODING 66
SWIDTH 827 0
DWIDTH 26 0
BBX 28 29 0 -2
BITMAP
000000001479CDEEFEECA7300000
0000037CFFFFFFFFFFFFFFFC5000
0004BFFFFFFFFFFFFFFFFFFFFA00
03CFFFFFFFFCA98778ADFFFFFF90
2EFFFFFC7300000000003AFFFFF4
5FFFE820000000000000009FFFF9
2ED71001675000000000001FFFFB
0000001EFFF500000000000FFFFB
0000005FFFF400000000003FFFF8
0000009FFFE00000000001CFFFF3
000000DFFFA0000000003CFFFF80
000001FFFF600000137BFFFFFA00
000005FFFF3004EFFFFFFFFE6000
000008FFFE000BFFFFFFFB610000
00000BFFFB000BFFFFFFD6000000
00000EFFF8000378AEFFFFB10000
00002FFFF5000000019FFFFA0000
00005FFFF3000000000CFFFF2000
00007FFFF00000000007FFFF4000
00009FFFD00000000008FFFF3000
0000CFFFB0000000000DFFFF1000
0000EFFF9000000000AFFFFA0000
0001FFFF700000005CFFFFF20000
0002FFFFB87789BEFFFFFF500000
0004FFFFFFFFFFFFFFFFD3000000
0005FFFFFFFFFFFFFFC600000000
0006FFFFEFFFEDC9620000000000
0004FFFE10000000000000000000
0000476100000000000000000000
ENDCHAR
STARTCHAR C
ENCODING 67
SWIDTH 686 0
DWIDTH 22 0
BBX 24 27 2 0
BITMAP
0000000016ADEFEC81000000
00000017EFFFFFFFFE500000
000003DFFFFFFFFFFFF40000
00004EFFFFEA88BFFFFC0000
0003EFFFF8100006FFFF3000
001DFFFF50000000EFFF5000
009FFFF600000000DFFF6000
02FFFFB000000000EFFF5000
09FFFF3000000001FFFF2000
0EFFFB0000000001FFFB0000
4FFFF600000000005A810000
8FFFF2000000000000000000
AFFFE0000000000000000000
CFFFD0000000000000000000
DFFFC0000000000000000000
EFFFB0000000000000000000
EFFFC0000000000000000000
DFFFE0000000000000000000
AFFFF3000000000000000000
6FFFF9000000000000000000
1FFFFF300000000000000000
08FFFFD200000000000016B8
01DFFFFE710000000159EFFE
002EFFFFFFB98789CFFFFFFB
0002CFFFFFFFFFFFFFFFFFC2
000006DFFFFFFFFFFFFFA500
000000048BDEFEECA7410000
ENDCHAR
STARTCHAR D
ENCODING 68
SWIDTH 836 0
DWIDTH 27 0
BBX 26 27 1 0
BITMAP
000000269CDEFEDB8500000000
00027CFFFFFFFFFFFFE8100000
018EFFFFFFFFFFFFFFFFD40000
2DFFFFFFEA9878BEFFFFFF4000
7FFFFD72000000005DFFFFE200
7FFC40000000000001BFFFFB00
1850002673000000001DFFFF30
000003FFFF2000000005FFFF90
000009FFFE0000000000EFFFD0
00000DFFFA0000000000BFFFF0
00001FFFF600000000009FFFF1
00005FFFF200000000009FFFF2
00009FFFE00000000000AFFFF1
0000CFFFA00000000000BFFFF0
0000FFFF700000000000DFFFD0
0003FFFF400000000001FFFFB0
0006FFFF200000000005FFFF70
0009FFFE00000000000BFFFF20
000BFFFC00000000003FFFFB00
000EFFF90000000000CFFFF400
001FFFF70000000009FFFFA000
003FFFF500000001AFFFFD1000
005FFFF40000017EFFFFE20000
007FFFF97789CFFFFFFC200000
007FFFFFFFFFFFFFFF80000000
005FFFFFFFFFFFFE8200000000
0005ACDEFFEDA8400000000000
ENDCHAR
STARTCHAR E
ENCODING 69
SWIDTH 686 0
DWIDTH 22 0
BBX 25 27 1 0
BITMAP
00000000159CDFEEB820000000
00000018FFFFFFFFFFF8000000
000004EFFFFFFFFFFFFF900000
00005FFFFFFB877AEFFFF40000
0002EFFFF91000002EFFF90000
0008FFFF8000000008FFFB0000
000CFFFF1000000007FFFB0000
000DFFFD0000000009FFF90000
000BFFFE000000000BFFF40000
0007FFFF8000000005EF900000
0001DFFFFB5200000000000000
00001BFFFFFFFE200000000000
0000029FFFFFFF500000000000
0002AFFFFFFFFF200000000000
006FFFFFFC9873000000000000
06FFFFE7100000000000000000
2FFFFD20000000000000000000
9FFFF400000000000000000000
DFFFD000000000000000000000
FFFFC000000000000000000000
FFFFE000000000000000000000
CFFFF700000000000000017C90
6FFFFF92000000000037BFFFE0
0BFFFFFFDA87789ADFFFFFFFB0
01AFFFFFFFFFFFFFFFFFFFFC20
0004BFFFFFFFFFFFFFFFEA5000
00000269CDEFFEECA963000000
ENDCHAR
STARTCHAR F
ENCODING 70
SWIDTH 712 0
DWIDTH 23 0
BBX 30 27 0 0
BITMAP
0000000001479BCEEEFFFEEDDCA972
00000027CFFFFFFFFFFFFFFFFFFFFD
000008FFFFFFFFFFFFFFFFFFFFFFFD
0000BFFFFFDBAFFFF977777789BDB4
0008FFFE72003FFFF4000000000000
000EFFE200005FFFF2000000000000
002FFFA000006FFFF1000000000000
003FFFA000008FFFF0000000000000
001FFFE000009FFFD0000000000000
000CFFF50000BFFFC0000000000000
0004EFD20000CFFFA0000000000000
000012000000EFFF90000000000000
000000003DFFFFFFFFFFFFE9000000
00000000AFFFFFFFFFFFFFFF000000
000000009FFFFFFFFFFFFFFA000000
00000000057BFFFF77777750000000
000000000008FFFE00000000000000
00000000000AFFFC00000000000000
00000000000CFFF900000000000000
00000000001FFFF700000000000000
5A200000005FFFF200000000000000
EFD1000000CFFFD000000000000000
FFFC20000AFFFF6000000000000000
AFFFFA78DFFFFD1000000000000000
1DFFFFFFFFFFE30000000000000000
01AFFFFFFFFD300000000000000000
00039CEEDA50000000000000000000
ENDCHAR
STARTCHAR G
ENCODING 71
SWIDTH 811 0
DWIDTH 26 0
BBX 28 42 2 -15
BITMAP
00000000049CEFEDA61000000000
00000006DFFFFFFFFFD300000000
000002CFFFFFFFFFFFFE20000000
00003EFFFFFB878CFFFFA0000000
0003EFFFFA2000009FFFF1000000
001DFFFF600000001FFFF4000000
009FFFF6000000000EFFF5000000
02FFFFB0000000001FFFF3000000
09FFFF30000000003FFFE1000000
0EFFFB00000000002FFF80000000
4FFFF60000000000048600000000
8FFFF20000000000000000000000
AFFFE00000000000000000000000
CFFFD00000000000000000000000
DFFFC00000000000000000000000
EFFFB000000009FFFFFFFA000000
EFFFC00000002FFFFFFFFF200000
DFFFE00000001EFFFFFFFF100000
AFFFF3000000026777FFFE000000
6FFFF9000000000002FFFB000000
1FFFFE200000000004FFF90007E2
08FFFFD20000000006FFF702BFF6
01DFFFFE600000002AFFF54EFFF3
002EFFFFFEB8779CFFFFFAFFFE50
0002CFFFFFFFFFFFFFFFFFFFB200
000007EFFFFFFFFFFFFFFFF70000
000000059CEFEDB85FFFFC200000
0000000000000003DFFFA0000000
000000000000004EFFFF40000000
00000000000005FFFFFF10000000
0000000000006FFEEFFD00000000
000000000005FFE3EFF900000000
00000000003EFE33FFF500000000
0000000000CFF507FFF100000000
0000000007FFA00BFFB000000000
000000000DFF202FFF6000000000
000000003FFC008FFE1000000000
000000005FFB02FFF80000000000
000000006FFF8DFFE10000000000
000000004FFFFFFF600000000000
000000000BFFFFF8000000000000
00000000019EEC50000000000000
ENDCHAR
STARTCHAR H
ENCODING 72
SWIDTH 873 0
DWIDTH 28 0
BBX 33 28 -1 0
BITMAP
00000000000000000000000004BEE91000
0000028CEFC60000000000007FFFFF9000
00008FFFFFFF700000000006FFFEFFF200
002CFFFFFFFFE1000000003FFFC17FF500
02DFFFA8CFFFF500000000BFFF204FF700
0CFFD3001FFFF700000004FFFA005FF600
5FFD20000DFFF80000000BFFF4007FF500
7FE200000CFFF80000001FFFD000BFF200
2A3000000DFFF70000006FFF9002FFD000
000000000FFFF6000000BFFF500AFF7000
000000001FFFF4000000FFFF109FFE1000
000000003FFFF2000003FFFD3CFFF50000
000000006FFFE0000007FFFFFFFF700000
000000008FFFD666668CFFFFFFE5000000
00005DFFFFFFFFFFFFFFFFFFFA20000000
0000DFFFFFFFFFFFFFFFFFFB3000000000
0000CFFFFFFFFFECB97FFFF50000000000
0000267BFFFF1000001FFFF40000000000
0000000AFFFC0000001FFFF40000000000
0000000DFFF90000001FFFF50000000000
0000001FFFF60000000FFFF60000000120
0000005FFFF20000000DFFF80000001DE0
0000008FFFE00000000AFFFC000000BFF0
000000CFFFB000000005FFFF60001BFFC0
000001FFFF7000000000DFFFFA79EFFE30
000003FFFF30000000004FFFFFFFFFE300
000004FFFC000000000006FFFFFFFC2000
000000AEC200000000000029DFDB500000
ENDCHAR
STARTCHAR I
ENCODING 73
SWIDTH 495 0
DWIDTH 16 0
BBX 19 27 -1 0
BITMAP
00001AEFFFFFFFFFFD50
00009FFFFFFFFFFFFFB0
0000AFFFFFFFFFFFFF60
000016778FFFFB776300
000000003FFFF5000000
000000006FFFF3000000
000000008FFFF0000000
00000000AFFFD0000000
00000000CFFFA0000000
00000000EFFF80000000
00000002FFFF50000000
00000004FFFF30000000
00000006FFFF10000000
00000009FFFD00000000
0000000BFFFB00000000
0000000EFFF800000000
0000001FFFF600000000
0000004FFFF400000000
0000006FFFF200000000
0000008FFFF000000000
000000AFFFD000000000
000000DFFFB000000000
000000FFFF9000000000
003678FFFFB775100000
2DFFFFFFFFFFFFE10000
7FFFFFFFFFFFFFF10000
3DFFFFFFFFFFFD600000
ENDCHAR
STARTCHAR J
ENCODING 74
SWIDTH 743 0
DWIDTH 24 0
BBX 23 31 2 -4
BITMAP
000000379BDEEFEEDCA75100
00017EFFFFFFFFFFFFFFFE30
005EFFFFFFFFFFFFFFFFFF70
05FFFFFEB9877789DFFFFE30
1EFFFB3000000000BFFFC100
6FFFA00000000000DFFFA000
9FFF300000000000FFFF8000
BFFF200000000002FFFF6000
9FFF600000000003FFFF4000
6FFFC00000000005FFFF1000
1EFFB00000000007FFFE0000
03A8100000000009FFFC0000
000000000000001CFFF90000
0000000000003AFFFFF70000
00000000003BFFFFFFF40000
0000000019FFFFFFFFF10000
00000004EFFFFDBFFFD00000
0000006FFFFE50AFFF900000
000007FFFFA100DFFF500000
00005FFFF70002FFFF100000
0001EFFF700006FFFB000000
0008FFFB00000BFFF6000000
000DFFF400002FFFE1000000
002FFFE000008FFF80000000
004FFFC00002FFFF20000000
004FFFE0001CFFF800000000
002FFFF813CFFFD100000000
000CFFFFFFFFFE3000000000
0003FFFFFFFFE30000000000
00004DFFFFFA200000000000
000000366510000000000000
ENDCHAR
STARTCHAR K
ENCODING 75
SWIDTH 937 0
DWIDTH 30 0
BBX 35 27 0 0
BITMAP
000000159CEFFEDB73000000001AEE500000
000007EFFFFFFFFFFF80000000AFFFB00000
0001CFFFFFFFFFFFFFE0000001FFFFA00000
000BFFFFD9778FFFFFA0000006FFFF400000
005FFFE400002FFFF70000000CFFFE000000
00AFFF4000004FFFF40000004FFFF7000000
00DFFF0000006FFFF1000000CFFFE1000000
00DFFE0000008FFFE0000006FFFF60000000
00BFFF300000AFFFC000002EFFFC00000000
006FFF900000DFFFA00001CFFFD200000000
001DFF600000FFFF70002CFFFE3000000000
000264000002FFFF5017EFFFD20000000000
000000000169FFFFABFFFFFA100000000000
0000000009FFFFFFFFFFFC50000000000000
000000000CFFFFFFFFFE6000000000000000
0000000006EFFFFFFFFFF900000000000000
00000000000DFFF93CFFFF90000000000000
00000000000FFFF601DFFFF3000000000000
00000000002FFFF4005FFFFB000000000000
00200000005FFFF1000CFFFF300000000100
0AF90000009FFFD00005FFFFA0000000CE00
1FFF400001EFFF800000DFFFF400000AFF10
1FFFE20009FFFF3000006FFFFD20009FFD00
0CFFFE97CFFFFB0000000CFFFFE98DFFE300
04FFFFFFFFFFE200000003EFFFFFFFFF4000
004EFFFFFFFD30000000004EFFFFFFD30000
00017CEFEB600000000000029DFEB6100000
ENDCHAR
STARTCHAR L
ENCODING 76
SWIDTH 673 0
DWIDTH 22 0
BBX 28 27 -2 0
BITMAP
000000000000016ADEFEC8200000
0000000000008EFFFFFFFFE50000
00000000002CFFFFFFFFFFFF5000
0000000002DFFFFEA88BFFFFD000
000000000CFFFF9100005FFFF400
000000006FFFF90000000DFFF700
00000000DFFFE10000000CFFF700
00000004FFFF800000000DFFF600
00000007FFFF300000000FFFF200
0000000AFFFF000000000DFF9000
0000000CFFFD0000000001640000
0000000DFFFB0000000000000000
0000000EFFF90000000000000000
0000000FFFF80000000000000000
0000001FFFF60000000000000000
0000002FFFF50000000000000000
0000003FFFF30000000000000000
0000003FFFF20000000000000000
0000004FFFF00000000000000000
0000005FFFD00000000000000094
0028CEFFFFC41000000000000AF9
04EFFFFFFFFFFB72000000009FF9
1EFFFFFFFFFFFFFFC841126DFFF4
4FFFFFFFFFFFFFFFFFFFFFFFFF80
3FFFFFFFF78DFFFFFFFFFFFFF900
0CFFFFFF700049EFFFFFFFFF7000
018DFEA4000000159CEFEC720000
ENDCHAR
STARTCHAR M
ENCODING 77
SWIDTH 1232 0
DWIDTH 39 0
BBX 44 27 0 0
BITMAP
000017CEEB30000017CEFC500000028CEEC500000000
0005EFFFFFE10004DFFFFFF700007FFFFFFF70000000
008FFFFFFFF7005FFFFFFFFF1008FFFFFFFFF2000000
07FFFC8CFFFA03FFFC89FFFF605FFFA8DFFFF6000000
4FFF7005FFFB0CFF70008FFF91EFE3003FFFF9000000
CFF60005FFFA5FF700005FFF98FF30000FFFFA000000
FF800005FFF8DFB000004FFFAEF700000FFFF9000000
68000007FFFAFF2000006FFFDFD000002FFFF7000000
00000008FFFDFA0000007FFFFF6000005FFFF5000000
0000000AFFFFF30000009FFFFE1000008FFFF2000000
0000000CFFFFC0000000CFFFF9000000BFFFE0000000
0000000EFFFF70000000EFFFF4000000EFFFB0000000
0000002FFFFF20000002FFFFE0000003FFFF70000000
0000004FFFFC00000004FFFFA0000006FFFF40000000
0000006FFFF800000007FFFF50000009FFFF10000000
0000008FFFF50000000AFFFF2000000CFFFD00000000
000000BFFFF10000000DFFFD0000000FFFFA00000000
000000DFFFD00000000FFFFA0000003FFFF600000000
000001FFFFA00000003FFFF80000005FFFF300000000
000003FFFF700000006FFFF50000007FFFF100000000
000006FFFF400000008FFFF20000008FFFF0000004E5
000008FFFF20000000BFFFF00000008FFFF100003EF8
00000AFFFF00000000DFFFD00000006FFFF60004EFF5
00000BFFFD00000000EFFFB00000002FFFFF97BFFFB0
00000BFFFA00000000FFFF800000000AFFFFFFFFFB10
00000AFFF700000000DFFF5000000001CFFFFFFF8000
000003DEB1000000005EE9000000000006CEED920000
ENDCHAR
STARTCHAR N
ENCODING 78
SWIDTH 884 0
DWIDTH 28 0
BBX 33 27 0 0
BITMAP
000016BEFD600000018CEFD92000000000
0004EFFFFFF400007EFFFFFFE300000000
007FFFFFFFFA0009FFFFFFFFFD00000000
07FFFC8CFFFC008FFFA79FFFFF40000000
4FFF7005FFFD04FFD30006FFFF70000000
DFF60005FFFD0DFD100002FFFF80000000
FF800006FFFB6FE2000002FFFF70000000
68000007FFFADF70000004FFFF50000000
00000009FFFCFD00000007FFFF30000000
0000000BFFFFF60000000AFFFF00000000
0000000CFFFFE10000000DFFFC00000000
0000000EFFFF900000001FFFF800000000
0000001FFFFF300000005FFFF500000000
0000004FFFFE000000008FFFF200000000
0000006FFFF900000000BFFFE000000000
0000008FFFF500000000EFFFB000000000
000000BFFFF200000002FFFF7000000000
000000DFFFD000000005FFFF4000000000
000001FFFFA000000008FFFF1000000000
000003FFFF7000000009FFFE0000000000
000006FFFF400000000AFFFD0000006F30
000008FFFF200000000AFFFE000005FF60
00000AFFFF0000000008FFFF40006FFF30
00000BFFFD0000000004FFFFE98CFFF900
00000BFFFA0000000000CFFFFFFFFF9000
00000AFFF700000000002DFFFFFFF70000
000003DEB10000000000017CEEC8200000
ENDCHAR
STARTCHAR O
ENCODING 79
SWIDTH 816 0
DWIDTH 26 0
BBX 24 27 2 0
BITMAP
0000000015ADEFEC83000000
00000007EFFFFFFFFFB20000
000003DFFFFFFFFFFFFE4000
00004EFFFFEA87AEFFFFE300
0003EFFFF7100001BFFFFD00
001DFFFE400000000BFFFF60
008FFFF50000000002FFFFD0
02FFFFA00000000000BFFFF2
08FFFF3000000000007FFFF5
0EFFFB0000000000004FFFF7
3FFFF60000000000003FFFF8
7FFFF30000000000003FFFF7
AFFFF00000000000003FFFF7
CFFFD00000000000004FFFF6
DFFFC00000000000006FFFF3
EFFFB00000000000009FFFF1
EFFFC0000000000000DFFFC0
DFFFD0000000000002FFFF70
BFFFF1000000000009FFFF20
8FFFF500000000002EFFFA00
4FFFFB0000000000BFFFF200
0DFFFF5000000009FFFF7000
05FFFFF6000002BFFFFB0000
009FFFFFD878BFFFFFB10000
000AFFFFFFFFFFFFF9000000
00006EFFFFFFFFFC40000000
0000016ADFFEC83000000000
ENDCHAR
STARTCHAR P
ENCODING 80
SWIDTH 805 0
DWIDTH 26 0
BBX 26 31 1 -4
BITMAP
0000000000048CDFFEC8300000
0000000007EFFFFFFFFFFB2000
00000004DFFFFFFFFFFFFFE300
0000007FFFFFC9779DFFFFFE10
000007FFFF920000005EFFFF90
00004FFFE50000000004FFFFE0
0001EFFF4006EE900000BFFFF3
0009FFF6003FFFF100007FFFF5
003FFFB0007FFFF100007FFFF5
009FFF30009FFFE000008FFFF3
01EFFB0000CFFFB00000CFFFE0
06FFF50000EFFF900003FFFF90
0AFFF10002FFFF60001DFFFF20
0DFFC00005FFFF3004DFFFF700
1FFF800559FFFF57CFFFFF9000
3FFF608FFFFFFFFFFFFFF70000
5FFF40AFFFFFFFFFFFFB300000
6FFF203CFFFFFFEDB720000000
7FFF10002FFFF5000000000000
8FFF10005FFFF3000000000000
8FFF10007FFFF0000000000000
7FFF1000AFFFC0000000000000
6FFF3000CFFFA0000000000000
3FFF6000EFFF70000000000000
0EFFA002FFFF50000000000000
0AFFF205FFFF20000000000000
03FFFB2BFFFE00000000000000
009FFFFFFFF900000000000000
001CFFFFFFF200000000000000
00008FFFFE5000000000000000
00000156610000000000000000
ENDCHAR
STARTCHAR Q
ENCODING 81
SWIDTH 816 0
DWIDTH 26 0
BBX 27 37 2 -10
BITMAP
0000000015ADEFEC830000000000
00000017EFFFFFFFFFB200000000
000003DFFFFFFFFFFFFE40000000
00004EFFFFEA87AEFFFFE3000000
0003EFFFF8100001BFFFFD000000
001DFFFF400000000BFFFF600000
008FFFF50000000002FFFFC00000
02FFFFA00000000000BFFFF20000
08FFFF2000000000007FFFF50000
0EFFFB0000000000004FFFF70000
3FFFF60000000000003FFFF80000
7FFFF20000000000003FFFF80000
AFFFF00000000000003FFFF70000
CFFFD00000000000005FFFF60000
DFFFC00000000000007FFFF40000
EFFFB0000000000000AFFFF10000
EFFFC0000000000000DFFFC00000
DFFFD0000000000004FFFF700000
BFFFF100000000000AFFFF200000
8FFFF600000000003FFFFA000000
4FFFFC0000000001DFFFF2000000
0CFFFF800000001CFFFF80000000
04FFFFFA200016EFFFFB00000000
008FFFFFFCBCFFFFFFB100000000
0008FFFFFFFFFFFFF90000000000
00005DFFFFFFFFFC400000000000
00000049DFFFFF70000000000000
0000000006FFFFF4000000000000
00000000008FFFFD000000000000
00000000001EFFFF500000000000
000000000007FFFFC00000005E10
000000000001EFFFF5000004FF20
0000000000007FFFFD20004EFD00
0000000000001EFFFFE97BFFF500
00000000000005FFFFFFFFFF8000
000000000000006FFFFFFFF60000
00000000000000029DEFD9200000
ENDCHAR
STARTCHAR R
ENCODING 82
SWIDTH 880 0
DWIDTH 28 0
BBX 32 27 1 0
BITMAP
000000000027ADEFEDB7300000000000
000000004CFFFFFFFFFFFB2000000000
0000001AFFFFFFFFFFFFFFE300000000
000002DFFFFEA878AEFFFFFD00000000
00002EFFFD500000007FFFFF60000000
0001CFFF900000000008FFFFB0000000
0008FFF80008CC500001FFFFD0000000
002FFFB0006FFFC00000EFFFD0000000
009FFF2000BFFFB00000FFFFB0000000
01EFFA0000EFFF900003FFFF70000000
05FFF40002FFFF600009FFFF20000000
09FFE00004FFFF30005FFFF700000000
0CFFA00007FFFF1018FFFFB000000000
0EFF80016CFFFE8AEFFFF90000000000
1FFF600DFFFFFFFFFFFC400000000000
2FFF500FFFFFFFFFFD40000000000000
3FFF4008EFFFFFFFFFE4000000000000
3FFF40004FFFF47FFFFF300000000000
2FFF50007FFFE007FFFFC00000000000
1FFF70009FFFC000CFFFF50000000000
0DFFA000CFFF90004FFFFC00000007E2
08FFE100FFFF70000CFFFF5000006FF4
03FFF803FFFF400004FFFFE30007FFF1
00AFFF9CFFFF100000AFFFFF98CFFF70
002DFFFFFFFB0000002EFFFFFFFFF700
0002DFFFFFF300000003EFFFFFFE5000
000017CFEC400000000018DFEC710000
ENDCHAR
STARTCHAR S
ENCODING 83
SWIDTH 693 0
DWIDTH 22 0
BBX 22 27 1 0
BITMAP
000000026ACEFEDA610000
000002BFFFFFFFFFFE8000
00005EFFFFFFFFFFFFFA00
0004FFFFFD9878BFFFFF70
000DFFFE50000002BFFFE0
004FFFF4000000002FFFF2
008FFFD0000000000FFFF2
009FFFD0000000001FFFF1
009FFFF2000000002FFFC0
006FFFFB100000000AFE40
001EFFFFD4000000001000
0006FFFFFFC60000000000
00007FFFFFFFE820000000
000004DFFFFFFFFA200000
00000006CFFFFFFFF70000
0000000003AFFFFFFF8000
0000000000017EFFFFF400
1BFC1000000001BFFFFB00
8FFF60000000000CFFFE00
CFFF500000000007FFFE00
DFFF400000000008FFFD00
CFFF60000000001DFFFA00
9FFFE400000002BFFFF400
3FFFFFD98779CFFFFFA000
06FFFFFFFFFFFFFFFA0000
004DFFFFFFFFFFFD500000
000048BDEFEDB840000000
ENDCHAR
STARTCHAR T
ENCODING 84
SWIDTH 697 0
DWIDTH 22 0
BBX 28 27 1 0
BITMAP
0000001479BCDEEFFFFFFFFEDC81
00016CFFFFFFFFFFFFFFFFFFFFFB
006EFFFFFFFFFFFFFFFFFFFFFFFB
07FFFFFCA877EFFFC77777789A92
3FFFF7100001FFFF800000000000
9FFF60000004FFFF500000000000
CFFF00000007FFFF200000000000
DFFF0000000AFFFE000000000000
BFFF4000000DFFFC000000000000
7FFF9000001FFFF9000000000000
1CFE4000004FFFF6000000000000
01410000006FFFF3000000000000
00000000009FFFF1000000000000
0000000000BFFFD0000000000000
0000000000EFFFA0000000000000
0000000001FFFF70000000000000
0000000003FFFF50000000000000
0000000006FFFF30000000000000
0000000008FFFF10000000000000
000000000BFFFE00000000000000
000000000DFFFC00000000000000
000000000FFFFA00000000000000
000000002FFFF800000000000000
000000004FFFF600000000000000
000000006FFFF500000000000000
000000005FFFF200000000000000
000000000AED7000000000000000
ENDCHAR
STARTCHAR U
ENCODING 85
SWIDTH 890 0
DWIDTH 28 0
BBX 33 27 0 0
BITMAP
000016BEFD8100000000002CEB10000000
0005EFFFFFFB00000000008FFF70000000
007FFFFFFFFF5000000000CFFFA0000000
06FFFE9AFFFF8000000000EFFFA0000000
3FFF9100EFFFA000000001FFFF80000000
BFF80000EFFFA000000004FFFF60000000
FFA00000FFFF9000000006FFFF40000000
9B100002FFFF7000000009FFFF20000000
00000005FFFF500000000CFFFE00000000
00000008FFFF200000000EFFFC00000000
0000000CFFFE000000003FFFF900000000
0000000EFFFB000000007FFFF700000000
0000003FFFF700000000BFFFF400000000
0000006FFFF400000001FFFFF200000000
000000AFFFF100000006FFFFF000000000
000000DFFFC00000000BFFFFD000000000
000001FFFF900000002FFFFFB000000000
000004FFFF600000009FFFFF8000000000
000007FFFF20000002FFDFFF7000000000
00000AFFFE0000000AFAEFFF5000000000
00000BFFFD0000005FF3FFFF4000002A40
00000CFFFD000003EFA2FFFF400002DF90
00000BFFFF20005EFE12FFFF90003DFF70
000008FFFFE88CFFF501FFFFFA7AFFFD10
000002FFFFFFFFFF6000AFFFFFFFFFC100
0000006FFFFFFFE400001DFFFFFFFA1000
00000004AEFEB7100000017CEFD9300000
ENDCHAR
STARTCHAR V
ENCODING 86
SWIDTH 763 0
DWIDTH 24 0
BBX 26 28 3 0
BITMAP
0000000000000006CEEA300000
005DFC20000001BFFFFFE30000
00EFFF70000009FFFFFFFB0000
03FFFF5000003FFFA9FFFF2000
06FFFF3000008FFC00CFFF4000
08FFFF100000CFF6009FFF5000
0AFFFE000000EFF4008FFF5000
0BFFFC000000FFF3009FFF4000
0DFFFB000000FFF400CFFF2000
0EFFFA000000DFF700FFFE0000
0FFFF9000000BFFC04FFFB0000
0FFFF80000005FFF78FFF70000
1FFFF70000001EFFFEFFF20000
1FFFF700000004FFFFFFE31100
1FFFF7000000007FFFFFFFFFFB
0FFFF70000000005FFFFFFFFFF
0FFFF80000000008FFFFFFFFFA
0EFFF9000000001EFFF4356650
0CFFFA000000009FFFA0000000
0AFFFD00000003FFFF20000000
07FFFF1000000CFFF700000000
04FFFF5000009FFFC000000000
01EFFFB00008FFFE2000000000
00AFFFF812AFFFF40000000000
004FFFFFFFFFFF500000000000
000BFFFFFFFFE4000000000000
0001CFFFFFFB20000000000000
000018DFDA5000000000000000
ENDCHAR
STARTCHAR W
ENCODING 87
SWIDTH 1217 0
DWIDTH 39 0
BBX 41 28 3 0
BITMAP
0000000000000000000000000000029DFD70000000
004DFC200000000005DFB10000004EFFFFFA000000
00EFFF60000000001EFFF5000002EFFFFFFF400000
03FFFF50000000005FFFF400000AFFE8DFFFA00000
06FFFF30000000008FFFF200001EFF504FFFC00000
07FFFF1000000000BFFFF000004FFE001FFFD00000
09FFFE0000000000EFFFE000006FFC000FFFD00000
0BFFFD0000000002FFFFC000007FFB001FFFC00000
0DFFFB0000000005FFFFA000007FFC004FFFA00000
0EFFFA0000000009FFFF9000005FFF107FFF700000
0FFFF9000000000DFFFF8000003FFF50BFFF400000
0FFFF8000000001FFFFF7000000DFFD2FFFF100000
1FFFF7000000006FFFFF70000006FFFEFFFB000000
2FFFF600000000AFFFFF60000000BFFFFFF9210000
2FFFF600000001EFFFFF600000002CFFFFFFFFFE40
1FFFF600000005FFFFFF6000000001CFFFFFFFFF80
1FFFF60000000BFFFFFF6000000001EFFFFFFFFF30
0FFFF70000002FFFCFFF7000000007FFFB24666300
0DFFF80000008FFE6FFF800000001EFFF300000000
0BFFFA000001EFF94FFF900000009FFFA000000000
09FFFD000008FFF32FFFC0000003FFFE2000000000
06FFFF20002FFFA00EFFE100001DFFF60000000000
02FFFF7001CFFF300BFFF60001CFFFA00000000000
00CFFFE32BFFF80007FFFE404CFFFC100000000000
006FFFFFFFFFC00001FFFFFFFFFFD1000000000000
000DFFFFFFFD2000009FFFFFFFFC10000000000000
0003EFFFFFC20000001CFFFFFF9100000000000000
00002AEEC600000000018DFD930000000000000000
ENDCHAR
STARTCHAR X
ENCODING 88
SWIDTH 712 0
DWIDTH 23 0
BBX 28 27 -1 0
BITMAP
000005BDFEA30000000004CFE500
0003CFFFFFFF600000004FFFF900
004EFFFFFFFFF3000002EFFFE200
03EFFE98DFFFFB00001DFFFF5000
0AFFA1001DFFFF3000BFFFF70000
0CF9000004FFFF8009FFFF800000
0250000000CFFFC07FFFFA000000
00000000007FFFF7FFFFC1000000
00000000002FFFFFFFFD10000000
00000000000EFFFFFFE200000000
00000000000AFFFFFE3000000000
000000000006FFFFF50000000000
000000000007FFFF900000000000
00000000005FFFFFC00000000000
0000000004FFFFFFF10000000000
000000002EFFFFFFF50000000000
00000002DFFFEEFFF90000000000
0000001CFFFF4BFFFD0000000000
000000BFFFF706FFFF2000000000
00000AFFFF9002FFFF6000000000
00008FFFFC0000DFFFB0000001CA
0006FFFFD100008FFFF100001CFD
005FFFFE3000003FFFF90002CFFA
03EFFFF50000000BFFFFB7AFFFE2
1DFFFF8000000003FFFFFFFFFE30
6FFFFA00000000005FFFFFFFC200
2CFD90000000000003ADFEB50000
ENDCHAR
STARTCHAR Y
ENCODING 89
SWIDTH 851 0
DWIDTH 27 0
BBX 31 38 0 -11
BITMAP
000016BEFD8100000000001BEC300000
0005EFFFFFFB00000000008FFFA00000
007FFFFFFFFF5000000000CFFFC00000
07FFFD8AFFFF8000000000EFFFA00000
3FFF9100EFFFA000000001FFFF800000
BFF80000EFFFA000000003FFFF600000
FFA00000FFFF9000000006FFFF400000
9B100002FFFF7000000009FFFF200000
00000005FFFF400000000DFFFE000000
00000008FFFF200000001FFFFC000000
0000000BFFFE000000005FFFFA000000
0000000EFFFB00000000AFFFF8000000
0000003FFFF700000001FFFFF6000000
0000006FFFF400000007FFFFF3000000
0000009FFFF10000000DFFFFF1000000
000000BFFFD00000006FFFFFE0000000
000000CFFFB0000001EFCFFFC0000000
000000DFFFB000000BFE8FFFA0000000
000000CFFFE000009FF79FFF80000000
0000009FFFF9214CFFC0BFFF50000000
0000004FFFFFFFFFFD20DFFF3369CE70
00000009FFFFFFFFD201FFFFFFFFFFA0
000000008FFFFFE81039FFFFFFFFFF60
00000000015664016CFFFFFFFFEB7400
000000000000017EFFFFFFFC52000000
0000000000005EFFFFBDFFF700000000
00000000001AFFFE920CFFF400000000
0000000001CFFFA2000FFFF100000000
000000000BFFF700004FFFD000000000
000000006FFF7000008FFF8000000000
00000000CFFE000000DFFF3000000000
00000002FFFA000006FFFC0000000000
00000004FFFB00003EFFF50000000000
00000003FFFF6116EFFFA00000000000
00000000EFFFFFFFFFFC100000000000
000000006FFFFFFFFFB1000000000000
0000000006EFFFFFD600000000000000
00000000000466520000000000000000
ENDCHAR
STARTCHAR Z
ENCODING 90
SWIDTH 721 0
DWIDTH 23 0
BBX 28 27 0 0
BITMAP
000000048BDEFFEEDCB974100000
000018EFFFFFFFFFFFFFFFFC4000
0003DFFFFFFFFFFFFFFFFFFFC000
002EFFFFEA977789ACEFFFFFC000
009FFFD40000000001DFFFE92000
00EFFF200000000009FFFF600000
01FFFB00000000003FFFFC000000
01FFFC0000000000CFFFF3000000
00EFFF2000000007FFFF80000000
008FFF700000003FFFFD00000000
0009EB10000000CFFFF400000000
00000000000007FFFF8000000000
0000000000003FFFFD1000000000
000000000001DFFFF30000000000
00000000000AFFFF800000000000
00000000006FFFFD100000000000
0000000003EFFFF3000000000000
000000001DFFFF70000000000000
00000000BFFFFB00000000000000
00000008FFFFE200000000000490
003ADFFFFFFF5000000000003EF2
07FFFFFFFFFFE95100000003DFF2
3FFFFFFFFFFFFFFEA620139FFFC0
7FFFFFFFFFFFFFFFFFFFFFFFFE20
6FFFFFFFF8AFFFFFFFFFFFFFE300
1EFFFFFE40016CFFFFFFFFFC2000
02ADFD8100000027BDFEDA500000
ENDCHAR
STARTCHAR bracketleft
ENCODING 91
SWIDTH 405 0
DWIDTH 13 0
BBX 14 33 2 -3
BITMAP
00002BEFFFFFE6
0000CFFFFFFFFD
0001FFFFFFFFFB
0004FFFF777761
0006FFFD000000
0008FFFB000000
000BFFF9000000
000DFFF7000000
000FFFF5000000
002FFFF3000000
004FFFF1000000
006FFFE0000000
008FFFC0000000
00AFFFA0000000
00CFFF80000000
00EFFF60000000
01FFFF40000000
03FFFF20000000
06FFFF00000000
08FFFD00000000
0AFFFB00000000
0CFFF900000000
0EFFF700000000
0FFFF500000000
2FFFF300000000
4FFFF100000000
6FFFE000000000
8FFFD000000000
AFFFB000000000
CFFFFFFFEB1000
CFFFFFFFFF5000
7FFFFFFFFE2000
03677777620000
ENDCHAR
STARTCHAR backslash
ENCODING 92
SWIDTH 509 0
DWIDTH 16 0
BBX 12 30 3 0
BITMAP
09EA00000000
5FFF40000000
8FFF90000000
6FFFD0000000
2FFFF2000000
0CFFF7000000
08FFFB000000
04FFFF100000
00EFFF500000
00AFFF900000
006FFFD00000
002FFFF30000
000CFFF70000
0008FFFB0000
0004FFFF1000
0000EFFF5000
0000AFFF9000
00006FFFD000
00002FFFF300
00000CFFF700
000008FFFB00
000004FFFF10
000000EFFF50
000000AFFF90
0000006FFFD0
0000002FFFF3
0000000CFFF7
00000008FFFA
00000003FFF7
000000008EA1
ENDCHAR
STARTCHAR bracketright
ENCODING 93
SWIDTH 405 0
DWIDTH 13 0
BBX 15 33 -2 -3
BITMAP
00005DFFFFFFD600
0000EFFFFFFFFF20
0000CFFFFFFFFF30
0000167779FFFF20
0000000006FFFF00
0000000008FFFD00
0000000009FFFB00
000000000BFFF900
000000000DFFF700
000000000FFFF500
000000002FFFF300
000000004FFFF100
000000006FFFE000
000000008FFFC000
00000000AFFFA000
00000000CFFF8000
00000000EFFF6000
00000001FFFF4000
00000003FFFF2000
00000005FFFF0000
00000007FFFD0000
00000009FFFB0000
0000000BFFF90000
0000000DFFF70000
0000000FFFF50000
0000002FFFF20000
0000004FFFF00000
0000006FFFD00000
0000008FFFB00000
2CFFFFFFFF900000
7FFFFFFFFF500000
5FFFFFFFFC000000
0477777640000000
ENDCHAR
STARTCHAR asciicircum
ENCODING 94
SWIDTH 700 0
DWIDTH 22 0
BBX 17 17 2 2
BITMAP
000000001AEA000000
000000009FFF400000
00000003FFFF900000
0000000BFFFFE00000
0000004FFFFFF30000
000000CFFDDFF80000
000006FFF58FFD0000
00001EFFC04FFF2000
00008FFF400EFF7000
0001EFFB000AFFC000
0009FFF30005FFF100
003FFF900001FFF600
00BFFF200000BFFB00
04FFF80000007FFF10
0CFFE10000002FFF50
2FFF700000000DFF60
0AEA0000000005EC10
ENDCHAR
STARTCHAR underscore
ENCODING 95
SWIDTH 354 0
DWIDTH 11 0
BBX 12 4 -1 -4
BITMAP
167777777750
9FFFFFFFFFF5
BFFFFFFFFFF7
4EFFFFFFFFD2
ENDCHAR
STARTCHAR grave
ENCODING 96
SWIDTH 600 0
DWIDTH 19 0
BBX 8 10 3 17
BITMAP
01650000
0CFF8000
1FFFF100
0DFFF800
04FFFE10
007FFF60
000AFFD0
0001CFF5
00002EFB
000004E8
ENDCHAR
STARTCHAR a
ENCODING 97
SWIDTH 470 0
DWIDTH 15 0
BBX 19 15 1 0
BITMAP
000003ADF90000000000
00009FFFFE9A60000000
001BFFFFFFFFE0000000
00AFFFFD8FFFC0000000
05FFFF702FFFA0000000
0DFFF8006FFF70000000
5FFFD1009FFF40000000
9FFF8000CFFF10000000
CFFF4001FFFE00009D10
DFFF2005FFFC0009FF20
DFFF400CFFFC009FFE00
AFFFD8CFFFFF8CFFF500
5FFFFFFF9FFFFFFF6000
0BFFFFF909FFFFE50000
018DFD60008EEA200000
ENDCHAR
STARTCHAR b
ENCODING 98
SWIDTH 473 0
DWIDTH 15 0
BBX 19 30 1 0
BITMAP
00000007DFC300000000
000001BFFFFD00000000
000009FFFFFF60000000
00004FFF9DFF90000000
0000CFFB07FFB0000000
0004FFF406FFA0000000
000AFFD007FF80000000
001FFF9009FF50000000
006FFF500DFF10000000
00BFFF203FFC00000000
00EFFE009FF500000000
03FFFB02FFD000000000
06FFF809FF4000000000
09FFF61EF90000000000
0BFFF49FC10000000000
0DFFF5FFEB5000000000
0FFFFBFFFFF900000000
1FFFFFFFFFFF70000000
3FFFFF73FFFFE1000000
3FFFF903FFFFF5000100
3FFFF201FFFFFB8ADF30
3FFFE000AFFFFFFFFF60
2FFFC0002EFFFFFFFF30
0FFFD00004FFFFEC9400
0DFFE10007FFF2000000
09FFF7002EFFB0000000
04FFFF98EFFF40000000
00BFFFFFFFF900000000
002DFFFFFF9000000000
00018CEEB50000000000
ENDCHAR
STARTCHAR c
ENCODING 99
SWIDTH 368 0
DWIDTH 12 0
BBX 15 15 1 0
BITMAP
00005BEFC4000000
001BFFFFFF200000
01CFFFFFFF900000
09FFFE8CFFC00000
2FFFF306FFB00000
8FFF9008FF700000
CFFF4006EA100000
EFFF200000000110
EFFF200000003EB0
DFFF50000004EFD0
BFFFC100018FFFA0
6FFFFD97AEFFFD20
0CFFFFFFFFFFD200
01CFFFFFFFF80000
0006BEFDB7100000
ENDCHAR
STARTCHAR d
ENCODING 100
SWIDTH 515 0
DWIDTH 16 0
BBX 20 30 1 0
BITMAP
00000000000007DEA100
0000000000009FFFFA00
000000000004FFFFFF20
00000000000CFFBDFF60
00000000004FFF27FF70
00000000009FFB06FF70
0000000000EFF706FF60
0000000003FFF408FF40
0000000007FFF109FF20
000000000BFFE00CFD00
000000000DFFB01FF900
000000001FFF905FF500
000000004FFF80AFE100
000000005FFF61EFA000
000000008FFF55FF4000
000004AEFFFF4BFD0000
0001AFFFFFFF5FF70000
001CFFFFFFFFBFE10000
00BFFFF9DFFFFF800000
06FFFE40CFFFFE100000
1EFFF500DFFFF8000000
5FFFB000CFFFE1000000
9FFF6000CFFF60000010
CFFF3000AFFF100005F7
DFFF2000AFFF30004FF9
CFFF5006FFFF7004EFF5
AFFFE8AFFFFFF8AFFFA0
4FFFFFFFD7FFFFFFFB00
0AFFFFFD20CFFFFF9000
007DFD910019EEB40000
ENDCHAR
STARTCHAR e
ENCODING 101
SWIDTH 393 0
DWIDTH 13 0
BBX 16 15 1 0
BITMAP
00006BEFD7000000
001CFFFFFF900000
01DFFFFFFFF20000
09FFFD8BFFF50000
2FFFD101FFF50000
8FFF6003FFF20000
BFFF103DFFB00000
DFFF5AFFFD100021
EFFFFFFFA10006F9
DFFFFD8200008FFA
9FFFB000004DFFF6
4FFFFD879DFFFFB0
0AFFFFFFFFFFF900
01AFFFFFFFFD4000
0004ADEFDA500000
ENDCHAR
STARTCHAR f
ENCODING 102
SWIDTH 371 0
DWIDTH 12 0
BBX 15 41 1 -11
BITMAP
000000004BFD5000
00000006FFFFF200
0000004FFFFFF800
000001DFFCBFFC00
000008FFF23FFD00
00001EFF902FFE00
00007FFF403FFC00
0000DFFD005FFA00
0004FFF9008FF700
0009FFF400CFF300
000DFFF102FFC000
003FFFC008FF6000
007FFF801EFD0000
00AFFF508FF60000
00EFFF22FFB00000
02FFFE0CFE200000
05FFFB8FF6000000
07FFFDFFA0000000
0AFFFFFC00000000
0CFFFFD100000000
0EFFFD2000000000
0FFFF20000000000
2FFFD09FFFFFFE10
3FFFC5FFFFFFFF20
4FFFBAFFFFFFF900
4FFFA8FF56652000
5FFFA5FF40000000
5FFFA3FF60000000
5FFFA0FF80000000
5FFFA0CFA0000000
4FFFB0AFC0000000
4FFFB09FD0000000
3FFFC08FE0000000
1FFFC07FF0000000
0FFFD07FE0000000
0DFFF08FD0000000
0AFFF2AFB0000000
06FFFAFF80000000
01FFFFFF30000000
008FFFF900000000
0008EE8000000000
ENDCHAR
STARTCHAR g
ENCODING 103
SWIDTH 479 0
DWIDTH 15 0
BBX 20 30 -1 -15
BITMAP
00000003ADF900000000
0000009FFFFE9A600000
00001BFFFFFFFFD00000
0000AFFFFC9FFFB00000
0005FFFF703FFF900000
000DFFF8006FFF600000
005FFFD0009FFF400000
009FFF8000CFFF100000
00CFFF4001FFFE0006E9
00DFFF2005FFFB03CFFC
00DFFF400CFFF97FFFF8
00AFFFD8CFFFFEFFFF80
005FFFFFFFFFFFFFD400
000BFFFFFBFFFFF91000
00018DFC5BFFFE500000
00000001BFFFD1000000
0000002DFFFF90000000
000003EFFFFF60000000
00003EFFCFFF30000000
0002DFF78FFE00000000
000CFF80CFFA00000000
008FFA01FFF600000000
02FFE106FFF100000000
08FF800BFFB000000000
0CFF303FFF5000000000
0FFF20CFFD0000000000
1FFFABFFF60000000000
0DFFFFFFB00000000000
06FFFFFC100000000000
006DFD81000000000000
ENDCHAR
STARTCHAR h
ENCODING 104
SWIDTH 502 0
DWIDTH 16 0
BBX 20 30 1 0
BITMAP
00000006CEC300000000
000000AFFFFE10000000
000008FFFFFF60000000
00003FFFADFFA0000000
0000AFFC07FFB0000000
0002FFF505FFA0000000
0008FFE006FF80000000
000EFFA009FF50000000
004FFF600DFF10000000
008FFF204FFA00000000
00CFFE00BFF300000000
00FFFB05FFA000000000
03FFF80DFE2000000000
06FFF59FF60000000000
08FFF8FFA00000000000
0AFFFFFD13AED5000000
0CFFFFE27FFFFD000000
0EFFFF46FFFFFE000000
0FFFF54FFFFFFC000000
1FFFB0DFFEFFFA000000
2FFFA7FF67FFF7000000
3FFFADFB08FFF4000000
3FFFEFF20BFFF1000120
4FFFFFA00DFFD0001CF1
4FFFFF301FFFA000AFF2
4FFFFD003FFFA00AFFD0
4FFFF8004FFFE8CFFF40
4FFFF4002FFFFFFFF400
3FFFC0000BFFFFFD3000
0BEB200001AEFC710000
ENDCHAR
STARTCHAR i
ENCODING 105
SWIDTH 246 0
DWIDTH 8 0
BBX 11 22 1 0
BITMAP
0019EEA10000
009FFFF90000
00EFFFFB0000
00CFFFF60000
003CED800000
000000000000
000000000000
007EE7000000
01FFFB000000
06FFF9000000
0AFFF6000000
0DFFF3000000
1FFFF0000000
3FFFC0000000
5FFF90000120
7FFF70002DD0
7FFF6001CFE0
6FFF701CFFB0
4FFFE8DFFE20
1EFFFFFFE300
08FFFFFD2000
008DFC710000
ENDCHAR
STARTCHAR j
ENCODING 106
SWIDTH 254 0
DWIDTH 8 0
BBX 20 37 -8 -15
BITMAP
000000000007DEC30000
00000000006FFFFD0000
0000000000AFFFFE0000
00000000008FFFFA0000
00000000001AEE910000
00000000000000000000
00000000000000000000
000000000009EE600000
00000000004FFFA00000
00000000006FFF900000
00000000008FFF700000
0000000000AFFF500000
0000000000CFFF300000
0000000000DFFF100000
0000000000FFFE000010
0000000002FFFB0007F6
0000000003FFF902CFF9
0000000005FFF75EFFF5
0000000007FFFCFFFE60
0000000009FFFFFFB200
000000000AFFFFF70000
000000000CFFFC300000
000000009FFFB0000000
0000001BFFFF70000000
000002DFFFFF40000000
00002DFFEFFF10000000
0002DFF6CFFC00000000
001CFF60FFF800000000
009FF804FFF400000000
03FFC009FFE000000000
0AFF500EFF9000000000
0EFF005FFF3000000000
3FFE01DFFB0000000000
3FFF9CFFF30000000000
1FFFFFFF900000000000
09FFFFFB000000000000
008DFC60000000000000
ENDCHAR
STARTCHAR k
ENCODING 107
SWIDTH 525 0
DWIDTH 17 0
BBX 20 30 1 0
BITMAP
00000006CEC300000000
000000AFFFFE10000000
000008FFFFFF70000000
00003FFFADFFA0000000
0000AFFC07FFB0000000
0002FFF505FFA0000000
0008FFE006FF80000000
000EFFA009FF40000000
004FFF500EFE00000000
008FFF205FF800000000
00CFFE00CFE100000000
00FFFA05FF7000000000
03FFF71DFC0000000000
06FFF5AFE20000000000
08FFF9FF600000000000
0AFFFFF803BEE9100000
0CFFFFB08FFFFFA00000
0EFFFC18FFFFFFF30000
0FFFD15FFD8EFFF60000
1FFFB1EFC10AFFF50000
2FFFA8FE200CFFF20000
3FFFBEF7006FFFA00000
3FFFFFE12AFFFE200044
3FFFFF83EFFFC20004FD
3FFFFF28FFFA00002EFD
3FFFFC07FFFD1002DFF9
2FFFF704FFFFD89FFFC1
0FFFF300CFFFFFFFFD20
0CFFE0002DFFFFFFC100
04DE5000018DFEC70000
ENDCHAR
STARTCHAR l
ENCODING 108
SWIDTH 326 0
DWIDTH 10 0
BBX 14 30 1 0
BITMAP
00000007DEB200
000000AFFFFD00
000008FFFFFF50
00003FFF9EFF80
0000BFFB08FFA0
0003FFF406FFB0
0009FFE006FFA0
000EFF9007FF90
005FFF5009FF60
009FFF100CFF30
00DFFD001FFE00
02FFFA006FFA00
05FFF700BFF400
07FFF402FFD000
0AFFF208FF7000
0CFFF01EFE1000
0EFFD07FF90000
1FFFC1EFE20000
2FFFB8FF800000
3FFFCFFE100000
3FFFFFF5000000
3FFFFFB0000000
2FFFFE20000010
1FFFF5000006F6
0DFFF000005FF8
0AFFF50006FFF5
04FFFE88CFFFA0
00CFFFFFFFFA00
003EFFFFFF8000
0002AEFD930000
ENDCHAR
STARTCHAR m
ENCODING 109
SWIDTH 744 0
DWIDTH 24 0
BBX 27 15 1 0
BITMAP
005DF90007DEB00005CEC2000000
02FFF901BFFFF400AFFFF9000000
06FFF60BFFFFF50AFFFFFA000000
0AFFF28FFFFFF37FFFFFF8000000
0DFFD3FFEFFFF3FFFFFFF6000000
1FFFABFE2DFFCAFE3AFFF3000000
3FFFAFF50EFFBFF70CFFF0000000
5FFFEFC00FFFFFD00EFFC0000110
5FFFFF602FFFFF602FFF90002EC0
6FFFFE104FFFFE105FFF7001DFD0
6FFFFA005FFFF9007FFF601DFFA0
5FFFF5006FFFF4008FFFD8EFFD20
3FFFF1005FFFF1006FFFFFFFE200
0EFFB0001FFFB0001EFFFFFC2000
06ED300006ED300003BEEB600000
ENDCHAR
STARTCHAR n
ENCODING 110
SWIDTH 496 0
DWIDTH 16 0
BBX 19 15 1 0
BITMAP
005DF90005BED3000000
02FFF9009FFFFA000000
06FFF609FFFFFB000000
0AFFF26FFFFFF9000000
0DFFD2EFFFFFF7000000
1FFFA9FF49FFF4000000
3FFFAFF80BFFF1000000
5FFFEFE10DFFD0000120
5FFFFF701FFFA0002DD0
6FFFFF104FFF8001CFE0
6FFFFA006FFF701CFFB0
5FFFF5007FFFD8DFFE20
3FFFF1005FFFFFFFE300
0EFFB0001EFFFFFC2000
06ED300003BEEC600000
ENDCHAR
STARTCHAR o
ENCODING 111
SWIDTH 451 0
DWIDTH 14 0
BBX 18 15 1 0
BITMAP
00007CEFD810000000
002DFFFFFFC1000000
01EFFFFFFFFB000000
0AFFFE8EFFFF400000
3FFFE20DFFFF900000
8FFF800BFFFFD89CF7
BFFF3006FFFFFFFFFA
DFFF2000BFFFFFFFF8
EFFF20000EFFFEDA60
CFFF40003FFF600000
9FFFB000BFFF200000
4FFFFB8CFFF9000000
0AFFFFFFFFD1000000
01BFFFFFFC20000000
0006CEEC7100000000
ENDCHAR
STARTCHAR p
ENCODING 112
SWIDTH 481 0
DWIDTH 15 0
BBX 24 30 -4 -15
BITMAP
0000003CEA019EEB30000000
000000DFFF2DFFFFE2000000
000000FFFFDFFFFFFA000000
000000EFFFFE8BFFFF000000
000000EFFFE200EFFF200000
000000EFFF4000CFFF300000
000000EFFF0000EFFF100000
000000EFFF0002FFFE000010
000001EFFF0007FFF90006F5
000008FFFF001EFFF3005FF7
00002EFFFF00AFFFA006FFF4
00009FFFFF3BFFFFA8BFFFA0
0002FFFFFFFFFFFFFFFFFA00
0009FEFFFFFFFEFFFFFF8000
001FF9FFFFEB618DFDA30000
007FF3FFFB00000000000000
00DFC2FFFA00000000000000
04FF73FFF900000000000000
09FF24FFF700000000000000
0DFD05FFF500000000000000
2FF907FFF200000000000000
6FF608FFE000000000000000
8FF30AFFC000000000000000
BFF20DFF8000000000000000
CFF11FFF4000000000000000
CFF25FFE0000000000000000
AFFBDFF90000000000000000
7FFFFFF20000000000000000
1FFFFF700000000000000000
04CFD6000000000000000000
ENDCHAR
STARTCHAR q
ENCODING 113
SWIDTH 500 0
DWIDTH 16 0
BBX 20 30 1 -13
BITMAP
00000000000575000000
00000000009FFF300000
0000039DFBEFFF200000
00008FFFFFFFFD000000
001AFFFFFFFFF9000000
00AFFFFD9EFFF4000000
05FFFF801FFFF1000000
0DFFF8005FFFB0000000
5FFFD1008FFF70000000
9FFF8000CFFF30000000
CFFF4001FFFE00000000
DFFF2006FFFB1BFFFFE2
CFFF401DFFF77FFFFFF2
AFFFD8DFFFF49FFFFFC0
5FFFFFFFFFF18FF77610
0BFFFFEFFFE06FF10000
018EEB4FFFB06FF10000
0000004FFF905FF20000
0000007FFF805FF20000
0000009FFF606FF20000
000000AFFF507FF10000
000000AFFF408FE00000
000000BFFF409FD00000
000000BFFF40CFA00000
0000009FFF50EF700000
0000008FFF74FF300000
0000004FFFDCFD000000
0000000EFFFFF6000000
00000007FFFFB0000000
000000008EE910000000
ENDCHAR
STARTCHAR r
ENCODING 114
SWIDTH 455 0
DWIDTH 15 0
BBX 18 15 1 0
BITMAP
005DF90004BED30000
02FFF9009FFFFA0000
06FFF609FFFFFB0000
0AFFF25FFFFFF90000
0DFFE1EFFFFFF60000
1FFFB8FF69FFF4008A
3FFF9EF909FFF62BFF
5FFFDFE109FFFFFFFD
5FFFFF8006FFFFFFE3
6FFFFF1000BFFFFA20
6FFFFA000004662000
5FFFF6000000000000
3FFFF1000000000000
0EFFB0000000000000
06ED30000000000000
ENDCHAR
STARTCHAR s
ENCODING 115
SWIDTH 427 0
DWIDTH 14 0
BBX 19 16 -1 -1
BITMAP
00000006DFC000000000
0000002FFFC000000000
0000009FFF5000000000
000001FFFF1000000000
000008FFFF2000000000
00001EFFFFA000000000
00008FFFFFF700000000
0003FFDAFFFF40000210
001DFF60DFFFD0004FA0
00AFFB004FFFF404EFB0
07FFE2000DFFF66FFF90
3FFE33CFDEFFFEFFFE20
4FF50CFFFFFFFFFFF400
05300DFFFFFFFFFE4000
000008FFFFFFEC710000
0000007DED8100000000
ENDCHAR
STARTCHAR t
ENCODING 116
SWIDTH 393 0
DWIDTH 13 0
BBX 17 29 0 0
BITMAP
000000000166100000
000000006FFFD10000
00000007FFFFF70000
0000003FFFFFFC0000
000000CFF95FFE0000
000005FFF12FFE0000
00000BFFA02FFD0000
00002FFF505FFA0000
00006FFF109FF60000
0000BFFD00EFE10000
0001FFF907FF800000
0003FFF72EFD100000
0006FFF6DFF3000000
0009FFFDFF50000000
8FFFFFFFFFFFFF3000
EFFFFFFFFFFFFF4000
DFFFFFFFFFFFFB0000
268FFFD77776300000
002FFFC00000000000
002FFFB00000000000
003FFFC00000000000
002FFFC00000000000
001FFFE00000003E70
000DFFF3000003EFA0
0009FFFB00005EFF70
0004FFFFC88BFFFC10
0000BFFFFFFFFFC100
00001CFFFFFFF91000
0000006BEFEA400000
ENDCHAR
STARTCHAR u
ENCODING 117
SWIDTH 462 0
DWIDTH 15 0
BBX 18 15 1 0
BITMAP
004DFA0001BFD00000
01EFFC0008FFF00000
05FFF8000DFFC00000
09FFF4003FFF900000
0DFFF1008FFF600000
1FFFD000DFFF300000
3FFFA005FFFE000000
5FFF800CFFFC000055
6FFF606FFFF90005FD
7FFF84EFFFF7003EFC
7FFFFFFDFFF602DFF8
5FFFFFF8FFFD8EFFC1
2FFFFFD1EFFFFFFD10
09FFFF509FFFFFB100
01AED5001AFEB50000
ENDCHAR
STARTCHAR v
ENCODING 118
SWIDTH 449 0
DWIDTH 14 0
BBX 18 15 1 0
BITMAP
1BED200019ED400000
5FFF6000BFFFD00000
6FFF7005FFFFF00000
6FFF7009FFFFE00000
6FFF800AFFFFA00010
5FFF8008FFFFA8ADF8
5FFF9006FFFFFFFFFA
4FFFA00DFFFFFFFFF5
3FFFB07FFFBDFFDA50
2FFFC2FFFC00000000
1FFFDCFFF200000000
0EFFFFFF7000000000
0BFFFFFC0000000000
05FFFFD10000000000
008EE9100000000000
ENDCHAR
STARTCHAR w
ENCODING 119
SWIDTH 700 0
DWIDTH 22 0
BBX 26 15 1 0
BITMAP
1BED200006EE300019EE500000
5FFF60001FFF7000BFFFE00000
6FFF70007FFF7004FFFFF10000
6FFF7000DFFF7009FFFFE00000
6FFF8004FFFF800AFFFFA00010
5FFF800AFFFF9008FFFFA8ADF8
5FFF901FFFFF9005FFFFFFFFFA
4FFFA08FFFFFA00CFFFFFFFFF6
3FFFB1EFFEFFB07FFFCDFFDA50
2FFFC6FFBBFFC2EFFC00000000
1FFFDDFF5AFFDBFFF300000000
0EFFFFFD09FFFFFF8000000000
0BFFFFF506FFFFFC0000000000
05FFFFB002FFFFD20000000000
008EE910005DEA200000000000
ENDCHAR
STARTCHAR x
ENCODING 120
SWIDTH 529 0
DWIDTH 17 0
BBX 21 15 0 0
BITMAP
00019EEC60005CEE700000
000AFFFFF91BFFFFF30000
002FFFFFFFDFFFFFF50000
004FFF9EFFFFF9FFF40000
004FFC09FFFF80CFF10000
000BE506FFFF207E700000
00000006FFFD0000000000
00000007FFFB0000000000
03BE500AFFFB0000000AB0
1EFF700EFFFD000000BFF0
5FFF607FFFFF40002CFFD0
6FFFC9FFFFFFF97AFFFF40
5FFFFFFFEFFFFFFFFFE400
0CFFFFFC19FFFFFFFC2000
019DFD70004AEFEB600000
ENDCHAR
STARTCHAR y
ENCODING 121
SWIDTH 479 0
DWIDTH 15 0
BBX 20 30 -1 -15
BITMAP
00004DFA0001BFD00000
0001EFFC0008FFF00000
0005FFF8000DFFD00000
0009FFF4003FFFA00000
000DFFF1008FFF800000
001FFFD000DFFF500000
003FFFA005FFFF200000
005FFF700CFFFF000053
006FFF606FFFFC002CFB
007FFF84EFFFFA06EFFB
007FFFFFFEFFF8AFFFF5
005FFFFFFAFFFFFFFD30
002FFFFFE6FFFFFF9100
0009FFFF67FFFFE40000
0001AED51CFFFA100000
00000003DFFFB0000000
0000004EFFFF70000000
000005FFFFFF40000000
00004FFFCFFF10000000
0003EFF79FFC00000000
001DFF70DFF900000000
00AFFA02FFF400000000
03FFE107FFE000000000
09FF700CFFA000000000
0EFF204FFF4000000000
1FFF10CFFC0000000000
1FFFABFFF40000000000
0EFFFFFFA00000000000
06FFFFFC100000000000
006DFD70000000000000
ENDCHAR
STARTCHAR z
ENCODING 122
SWIDTH 445 0
DWIDTH 14 0
BBX 18 15 1 0
BITMAP
0AFFFFFFFFFFFB0000
1FFFFFFFFFFFFF2000
1EFFFFFFFFFFFF1000
0377778EFFFFF60000
000007EFFFF9200000
0003DFFFF810000000
005FFFFB2000000000
03FFFF800000000160
0AFFFB000000001CF5
0EFFF700000002CFF5
0EFFFB0000017EFFE1
0BFFFFD978BFFFFE40
03FFFFFFFFFFFFE400
004EFFFFFFFFF91000
00016ADEFEB8200000
ENDCHAR
STARTCHAR braceleft
ENCODING 123
SWIDTH 490 0
DWIDTH 16 0
BBX 18 33 1 -3
BITMAP
000000000049DEFEA1
000000001AFFFFFFF7
00000000AFFFFFFFF5
00000004FFFFEA8740
0000000AFFFD200000
0000000DFFF7000000
0000000FFFF4000000
0000002FFFF3000000
0000004FFFF1000000
0000005FFFE0000000
0000007FFFC0000000
000000AFFFA0000000
000001EFFF70000000
00014CFFFE20000000
0AFFFFFFF500000000
4FFFFFFD3000000000
2FFFFFFF6000000000
0379EFFFF200000000
00002FFFF600000000
00000DFFF800000000
00000DFFF700000000
00000FFFF500000000
00002FFFF300000000
00004FFFF100000000
00006FFFE000000000
00007FFFC000000000
00008FFFB000000000
00008FFFD000000000
00005FFFF920000000
00001EFFFFFFE90000
000006FFFFFFFF2000
0000006DFFFFFC0000
000000003676400000
ENDCHAR
STARTCHAR bar
ENCODING 124
SWIDTH 326 0
DWIDTH 10 0
BBX 10 40 1 -10
BITMAP
000004DEA0
00000CFFF1
00000FFFF0
00002FFFD0
00003FFFB0
00005FFF90
00007FFF80
00009FFF60
0000BFFF40
0000DFFF20
0000FFFE00
0003FFFC00
0005FFFA00
0007FFF800
0009FFF600
000CFFF300
000EFFF100
001FFFE000
003FFFC000
006FFF9000
008FFF7000
00AFFF5000
00DFFF2000
00FFFF0000
02FFFD0000
04FFFB0000
06FFF90000
09FFF60000
0BFFF40000
0DFFF20000
0FFFF00000
2FFFD00000
4FFFB00000
6FFF900000
8FFF700000
AFFF500000
CFFF300000
EFFF100000
FFFE000000
8ED5000000
ENDCHAR
STARTCHAR braceright
ENCODING 125
SWIDTH 490 0
DWIDTH 16 0
BBX 18 33 -2 -3
BITMAP
00004CEFEC81000000
0000EFFFFFFE300000
0000DFFFFFFFD00000
00001679DFFFF60000
000000001DFFF90000
0000000009FFFA0000
0000000009FFFA0000
000000000AFFF90000
000000000CFFF70000
000000000EFFF50000
000000002FFFF30000
000000003FFFF20000
000000003FFFF30000
000000001FFFFC3100
0000000009FFFFFFD3
0000000000AFFFFFF8
0000000008FFFFFFF5
000000007FFFFD9740
00000001EFFF900000
00000005FFFF100000
00000007FFFD000000
00000009FFFA000000
0000000BFFF9000000
0000000DFFF7000000
0000000FFFF5000000
0000001FFFF3000000
0000003FFFF1000000
0000008FFFE0000000
000138FFFF90000000
1BFFFFFFFF20000000
5FFFFFFFF600000000
2EFFFFFC3000000000
025765200000000000
ENDCHAR
STARTCHAR asciitilde
ENCODING 126
SWIDTH 700 0
DWIDTH 22 0
BBX 19 8 2 5
BITMAP
00005740000000000000
001CFFFC40000006ED20
00CFFFFFFA20005FFF50
07FFFFFFFFE712EFFF20
1EFFF58FFFFFDCFFF900
7FFF8002BFFFFFFFE100
7FFB000004DFFFFE3000
166000000007DEB30000
ENDCHAR
STARTCHAR uni00A0
ENCODING 160
SWIDTH 265 0
DWIDTH 8 0
BBX 1 1 0 0
BITMAP
00
ENDCHAR
STARTCHAR exclamdown
ENCODING 161
SWIDTH 340 0
DWIDTH 11 0
BBX 11 28 -1 -13
BITMAP
0000019EE910
00000AFFFF80
00000FFFFFC0
00001FFFFFB0
00000DFFFF60
000003CED700
000000000000
000000420000
00000BFF2000
00002FFF3000
00007FFF0000
0000CFFD0000
0002FFFA0000
0007FFF70000
000BFFF40000
001FFFF20000
005FFFE00000
009FFFB00000
00DFFF800000
03FFFF500000
07FFFF100000
0BFFFD000000
0EFFFA000000
4FFFF7000000
7FFFF3000000
BFFFE0000000
BFFF70000000
267400000000
ENDCHAR
STARTCHAR cent
ENCODING 162
SWIDTH 466 0
DWIDTH 15 0
BBX 13 23 1 -4
BITMAP
00000009E30000
0000000EF50000
0000001FF30000
0000002FF10000
000005AFF72000
0005DFFFFFF800
006FFFFFFFFF40
03FFFFEFBDFF90
0BFFF4BF68FFA0
2FFF90DF4AFF80
6FFF50EF2BFE20
8FFF31FE027200
9FFF23FD000440
7FFF45FB004FC0
4FFFA7F903EFD0
0DFFFEFA8EFF80
04FFFFFFFFFC10
005FFFFFFFB100
00028FFB830000
00002FF1000000
00004FE0000000
00006FC0000000
00005E70000000
ENDCHAR
STARTCHAR sterling
ENCODING 163
SWIDTH 525 0
DWIDTH 17 0
BBX 17 19 0 0
BITMAP
000000039DEED82000
0000009FFFFFFFE500
00000AFFFFFFFFFF20
00006FFFFC89EFFF90
0000DFFF90005FFFB0
0004FFFD00000DFF90
0008FFF7000002A910
000AFFF40000000000
000CFFF20000000000
0BFFFFFFFFFF800000
1FFFFFFFFFFFB00000
0ADFFFFDDDDC400000
002FFFC00000000000
003FFFB00000000000
004FFFA00000000000
07EFFFC77777777400
3FFFFFFFFFFFFFFF20
4FFFFFFFFFFFFFFF20
1DECAABCEFFFFFE700
ENDCHAR
STARTCHAR currency
ENCODING 164
SWIDTH 700 0
DWIDTH 22 0
BBX 16 15 3 2
BITMAP
09E40000000006E7
1FFE34AEFDA35FFD
09FFFFFFFFFFFFF7
00AFFFFEDFFFFF80
005FFE50007FFF30
00CFF6000008FFA0
01FFE0000001FFE0
02FFC0000000EFF0
01FFE0000001FFE0
00CFF5000008FFA0
006FFE50006FFF30
008FFFFEDEFFFF60
08FFFFFFFFFFFFF5
1FFF54BEFEA37FFD
09E50000000007E7
ENDCHAR
STARTCHAR yen
ENCODING 165
SWIDTH 497 0
DWIDTH 16 0
BBX 17 19 1 0
BITMAP
6EE7000000004DFC10
CFFF40000002EFFF10
AFFFC000000CFFF800
3FFFF400007FFFC000
09FFFC0003FFFE2000
02EFFF400CFFF50000
008FFFC08FFF900000
001DFFF8FFFC100000
0006FFFFFFE2000000
0000CFFFFF60000000
3EFFFFFFFFFFF70000
5FFFFFFFFFFFF70000
01224FFFF222200000
02225FFFE222100000
8FFFFFFFFFFFF40000
8FFFFFFFFFFFE20000
0000AFFF9000000000
0000BFFF7000000000
00006EFB1000000000
ENDCHAR
STARTCHAR brokenbar
ENCODING 166
SWIDTH 326 0
DWIDTH 10 0
BBX 10 40 1 -10
BITMAP
000004DFA0
00000CFFF2
00000FFFF0
00002FFFD0
00004FFFB0
00006FFF90
00008FFF70
0000BFFF50
0000DFFF20
0000FFFF00
0002FFFD00
0004FFFB00
0006FFF900
0008FFF700
000AFFF500
000CFFF300
000BFFC000
0001661000
0000000000
0000000000
0000000000
0000000000
0005510000
00BFFC0000
01FFFE0000
04FFFC0000
06FFFA0000
08FFF70000
0AFFF50000
0CFFF30000
0EFFF10000
1FFFE00000
3FFFC00000
5FFFA00000
7FFF800000
AFFF500000
CFFF300000
EFFF100000
FFFD000000
9ED5000000
ENDCHAR
STARTCHAR section
ENCODING 167
SWIDTH 607 0
DWIDTH 19 0
BBX 16 27 2 0
BITMAP
0000005ADEFDA400
00002BFFFFFFFF90
0001CFFFFFFFFFF6
0007FFFFA78CFFFB
000DFFF40000DFFD
000FFFC00000BFFD
001FFFC00000CFFA
000DFFF700006DB2
0008FFFFC4000000
0005FFFFFFD61000
004FFFFFFFFFD400
00DFF93AFFFFFF40
03FFF40029FFFFD0
05FFF600003EFFF1
04FFFE400008FFF2
00EFFFFA3009FFE0
005FFFFFFC9FFF70
0003CFFFFFFFF900
000004BFFFFFF300
19C700027EFFFA00
7FFE000003FFFD00
BFFE000000DFFE00
BFFF200003FFFD00
8FFFEA77AEFFF800
2FFFFFFFFFFFE100
05EFFFFFFFFC2000
0017BEFEDA500000
ENDCHAR
STARTCHAR dieresis
ENCODING 168
SWIDTH 600 0
DWIDTH 19 0
BBX 12 5 4 17
BITMAP
09ED5002CEC2
6FFFE00BFFF8
9FFFF00FFFFA
8FFFC00DFFF6
2CEC2005DE90
ENDCHAR
STARTCHAR copyright
ENCODING 169
SWIDTH 647 0
DWIDTH 21 0
BBX 20 19 2 11
BITMAP
0000005ADFFDA5000000
00003DFFFFFFFFD30000
0006FFE943359FFE5000
004FFB10000002CFF300
01DFB0017CED801CFD10
08FE201CFFDFF703FF70
0DFA00BFC205FB00BFC0
2FF504FF2006F9006FF1
4FF309FA000151004FF3
5FF10BF7000000002FF4
4FF30CF7000000004FF3
2FF50AFB000003006FF1
0DFA05FF7003BC00BFC0
08FE20AFFFEFF503FF70
01EFB007DFEA301CFD10
004FFB10000002CFF300
0006FFE943359FFE5000
00003DFFFFFFFFD30000
0000005ADFFDA5000000
ENDCHAR
STARTCHAR ordfeminine
ENCODING 170
SWIDTH 393 0
DWIDTH 13 0
BBX 12 13 2 14
BITMAP
000018CFA000
0003EFFFFDC4
003EFFFEFFF9
01DFFF60FFF8
08FFF603FFF5
0EFFC006FFF3
4FFF6009FFF1
6FFF300DFFE0
7FFF203FFFC0
6FFF40BFFFC0
2FFFFEEFFFB0
0AFFFF8FFFA0
019EE907ED40
ENDCHAR
STARTCHAR guillemotleft
ENCODING 171
SWIDTH 615 0
DWIDTH 20 0
BBX 19 12 0 1
BITMAP
0000006DD300002AEA00
00002BFFFB0006EFFF30
0006EFFFF702BFFFFD10
01BFFFFE606EFFFFB100
0CFFFFB205FFFFE60000
1FFFF70009FFFC200000
1EFFFA1008FFFE400000
06FFFFC201CFFFF60000
005EFFFE301BFFFF9000
0003DFFFF4008FFFFB00
00001CFFF70006FFFE00
0000009EA100004DD400
ENDCHAR
STARTCHAR logicalnot
ENCODING 172
SWIDTH 700 0
DWIDTH 22 0
BBX 19 11 2 0
BITMAP
02677777777777776100
1EFFFFFFFFFFFFFFFC00
4FFFFFFFFFFFFFFFFF10
1CFFFFFFFFFFFFFFFF00
00000000000000FFFD00
00000000000002FFFB00
00000000000004FFF900
00000000000006FFF700
00000000000008FFF500
00000000000006FFE200
00000000000000472000
ENDCHAR
STARTCHAR uni00AD
ENCODING 173
SWIDTH 403 0
DWIDTH 13 0
BBX 11 6 1 7
BITMAP
000000001200
0379BCEFFF60
1EFFFFFFFFB0
2FFFFFFFFF80
0CFFEDBA8600
001000000000
ENDCHAR
STARTCHAR registered
ENCODING 174
SWIDTH 647 0
DWIDTH 21 0
BBX 20 19 2 11
BITMAP
0000005ADFFDA5000000
00003DFFFFFFFFD30000
0006FFE943359FFE5000
004FFB10000002CFF300
01DFB02ADFDB401CFD10
08FE20AFFEEFF503FF70
0DFA002BF509FC00BFC0
2FF5000DF206FC006FF1
4FF3001FE03DF6004FF3
5FF1003FFEFF80002FF4
4FF3006FFFD300004FF3
2FF5008F89FD00006FF1
0DFA00BF51EF7000BFC0
08FE20DF307FE203FF70
01EFB0BE100BE41CFD10
004FFB10000002CFF300
0006FFE943359FFE5000
00003DFFFFFFFFD30000
0000005ADFFDA5000000
ENDCHAR
STARTCHAR macron
ENCODING 175
SWIDTH 600 0
DWIDTH 19 0
BBX 11 4 4 17
BITMAP
037777777620
3FFFFFFFFFC0
5FFFFFFFFFC0
2DFFFFFFFE50
ENDCHAR
STARTCHAR degree
ENCODING 176
SWIDTH 385 0
DWIDTH 12 0
BBX 10 10 3 17
BITMAP
003AEEC600
06FFFFFF90
2FFFEEFFF4
9FFA009FFA
CFF1002FFC
DFF1003FFB
BFF801BFF8
6FFFEEFFE2
0AFFFFFF50
006CEEA300
ENDCHAR
STARTCHAR plusminus
ENCODING 177
SWIDTH 700 0
DWIDTH 22 0
BBX 17 19 3 0
BITMAP
000000003730000000
00000003FFF1000000
00000008FFF2000000
0000000AFFF0000000
0000000BFFD0000000
0047777EFFD7777300
06FFFFFFFFFFFFFF20
0BFFFFFFFFFFFFFF20
05EFFFFFFFFFFFE800
0000005FFF40000000
0000007FFF20000000
0000009FFF10000000
000000AFFD00000000
0000007FF600000000
000000021000000000
057777777777762000
AFFFFFFFFFFFFFD000
EFFFFFFFFFFFFFD000
8FFFFFFFFFFFFE4000
ENDCHAR
STARTCHAR uni00B2
ENCODING 178
SWIDTH 450 0
DWIDTH 14 0
BBX 14 16 1 11
BITMAP
000039DEEC8100
0008FFFFFFFD10
006FFFFDFFFF90
00DFFB102FFFE0
02FFF2000CFFF1
02FFE0000DFFF0
009C60003FFFC0
00000000BFFF50
00000007FFFB00
0000006FFFE200
000008FFFE3000
0004CFFFC20000
02BFFFE7000000
0EFFFFFFFFFFE3
2FFFFFFFFFFFF7
0CFFFFFFFFFFC1
ENDCHAR
STARTCHAR uni00B3
ENCODING 179
SWIDTH 450 0
DWIDTH 14 0
BBX 13 16 2 11
BITMAP
00028CEFEB5000
007FFFFFFFF900
05FFFFDEFFFF30
0BFFB100AFFF60
0DFF20007FFF60
05C70000CFFE20
0000003BFFF600
00004EFFFD4000
00007FFFFB4000
000029CFFFF500
17400003EFFE00
9FF20000BFFF20
BFFB1004EFFF10
8FFFFDEFFFFA00
1CFFFFFFFFC100
006BEFFDA50000
ENDCHAR
STARTCHAR acute
ENCODING 180
SWIDTH 600 0
DWIDTH 19 0
BBX 8 10 8 17
BITMAP
00003730
0002FFF4
0009FFF8
002FFFF4
008FFFA0
01EFFC10
07FFE200
0DFF4000
5FF70000
3E900000
ENDCHAR
STARTCHAR uni00B5
ENCODING 181
SWIDTH 462 0
DWIDTH 15 0
BBX 19 24 0 -9
BITMAP
0004DFA0001BFD000000
000EFFC0008FFF000000
004FFF8000DFFC000000
009FFF4003FFF9000000
00CFFF1008FFF6000000
00FFFD000DFFF3000000
02FFFA005FFFE0000000
05FFF800CFFFC0000550
06FFF606FFFF90005FD0
08FFF84EFFFF7003EFC0
0AFFFFFFDFFF602DFF80
0BFFFFFF8FFFD8EFFC10
0CFFFFFE1EFFFFFFD100
0DFFFFF509FFFFFB1000
0EFFFD6001AFEB500000
0FFFC000000000000000
0FFFC000000000000000
1FFFC000000000000000
1FFFC000000000000000
1FFFC000000000000000
1FFFC000000000000000
2FFFC000000000000000
0EFF8000000000000000
03750000000000000000
ENDCHAR
STARTCHAR paragraph
ENCODING 182
SWIDTH 739 0
DWIDTH 24 0
BBX 20 27 3 0
BITMAP
0000049BDEFFFEDB7200
0007EFFFFFFFFFFFFF70
01CFFFFFFFFFFFFFFFF3
0CFFFFFFFFFFFFFFFFF6
5FFFFFFFFFFF307FFFF5
AFFFFFFFFFFF004FFFF3
BFFFFFFFFFFC006FFFF1
BFFFFFFFFFF9008FFFD0
8FFFFFFFFFF700AFFFB0
2EFFFFFFFFF400CFFF80
04EFFFFFFFF200EFFF60
003CFFFFFFE002FFFF30
000037CFFFC005FFFF10
000000BFFF9007FFFD00
000000EFFF700AFFFA00
000001FFFF400DFFF800
000003FFFF200FFFF500
000006FFFE002FFFF300
000009FFFC005FFFF100
00000BFFFA007FFFE000
00000DFFF800AFFFC000
00001FFFF600CFFFA000
00003FFFF400EFFF8000
00005FFFF301FFFF6000
00006FFFF102FFFF5000
00005FFFD002FFFF2000
00001BED50008EE70000
ENDCHAR
STARTCHAR periodcentered
ENCODING 183
SWIDTH 257 0
DWIDTH 8 0
BBX 7 6 1 5
BITMAP
04CED600
2EFFFF30
6FFFFF60
7FFFFF50
3FFFFE10
06DEC300
ENDCHAR
STARTCHAR cedilla
ENCODING 184
SWIDTH 600 0
DWIDTH 19 0
BBX 11 9 1 -8
BITMAP
000BFFD92000
004FFFFFE400
001BDEFFFC00
0000006FFF10
0000003FFF00
047779EFFC00
1FFFFFFFF500
1FFFFFFF7000
08DFED930000
ENDCHAR
STARTCHAR uni00B9
ENCODING 185
SWIDTH 450 0
DWIDTH 14 0
BBX 10 16 3 11
BITMAP
000159DEB0
04BFFFFFF2
6FFFFFFFF1
9FFFBFFFD0
29511FFFB0
00003FFF90
00006FFF70
00008FFF50
0000AFFF30
0000CFFF10
0000DFFE00
0000FFFC00
0002FFFA00
0004FFF900
0004FFF600
0001BEB100
ENDCHAR
STARTCHAR ordmasculine
ENCODING 186
SWIDTH 408 0
DWIDTH 13 0
BBX 12 13 2 14
BITMAP
00018DED9200
003EFFFFFE30
01EFFFEFFFD0
09FFE308FFF5
0EFF9001FFF9
3FFF4000DFFA
4FFF3000DFF9
5FFF3000FFF8
3FFF6004FFF3
0EFFD22CFFC0
07FFFFFFFF30
00AFFFFFF500
0005BDC92000
ENDCHAR
STARTCHAR guillemotright
ENCODING 187
SWIDTH 615 0
DWIDTH 20 0
BBX 18 12 1 1
BITMAP
08EB100003CE600000
4FFFD3000BFFF80000
2EFFFE5008FFFFB100
02DFFFF7008FFFFD20
001BFFFF9006FFFFE2
0000AFFFF3004EFFFB
00003EFFF50009FFFC
0007FFFFE103CFFFF8
03CFFFFD307FFFFF80
4FFFFF800BFFFFC300
8FFFD3000FFFF80000
2CE8000007EC300000
ENDCHAR
STARTCHAR onequarter
ENCODING 188
SWIDTH 955 0
DWIDTH 31 0
BBX 27 28 3 -1
BITMAP
000159DEB0000000000000000000
04BFFFFFF2000000000000000000
6FFFFFFFF1000000000000000000
9FFFBFFFD0000000000000000000
29511FFFB00000006EB100000000
00003FFF90000003FFF600000000
00006FFF7000000BFFF400000000
00008FFF5000006FFFB000000000
0000AFFF300001EFFF3000000000
0000CFFF100009FFF80000000000
0000DFFE00003FFFD10000000000
0000FFFC0000CFFF500000000000
0002FFFA0006FFFB002BED000000
0004FFF9001EFFF200BFFE000000
0004FFF600AFFF7005FFF6000000
0001BEB104FFFD000CFFD07EE300
000000000DFFF4005FFF51FFF500
000000007FFFA000CFFC05FFF300
00000002EFFE2004FFF509FFF000
0000000AFFF7000BFFD00BFFC000
0000004FFFC0002FFF600EFF9000
000000CFFF30007FFFFFFFFFFF70
000000EFF900007FFFFFFFFFFFA0
0000006EB100001CFFFFFFFFFD40
000000000000000000006FFF1000
000000000000000000007FFF0000
000000000000000000007FFD0000
000000000000000000002DE50000
ENDCHAR
STARTCHAR onehalf
ENCODING 189
SWIDTH 1024 0
DWIDTH 33 0
BBX 29 28 3 -1
BITMAP
000159DEB000000000000000000000
04BFFFFFF200000000000000000000
6FFFFFFFF100000000000000000000
9FFFBFFFD000000000000000000000
29511FFFB00000006EB10000000000
00003FFF90000003FFF60000000000
00006FFF7000000BFFF40000000000
00008FFF5000006FFFB00000000000
0000AFFF300001EFFF300000000000
0000CFFF100009FFF8000000000000
0000DFFE00003FFFD1000000000000
0000FFFC0000CFFF50000000000000
0002FFFA0006FFFB00039DEEC71000
0004FFF9001EFFF2008FFFFFFFC100
0004FFF600AFFF7006FFFFDFFFF900
0001BEB104FFFD000EFFA103FFFE00
000000000DFFF4002FFF1000CFFF10
000000007FFFA0003FFE0000EFFF00
00000002EFFE200009C60003FFFB00
0000000AFFF700000000000BFFF500
0000004FFFC000000000007FFFB000
000000CFFF300000000006FFFD1000
000000EFF900000000009FFFD20000
0000006EB1000000004CFFFB100000
00000000000000003BFFFE60000000
0000000000000001EFFFFFFFFFFE30
0000000000000002FFFFFFFFFFFF60
0000000000000000DFFFFFFFFFFC10
ENDCHAR
STARTCHAR threequarters
ENCODING 190
SWIDTH 1035 0
DWIDTH 33 0
BBX 31 28 2 -1
BITMAP
00028CEFEB5000000000000000000000
007FFFFFFFF900000000000000000000
05FFFFDEFFFF30000000000000000000
0BFFB100AFFF60000000000000000000
0DFF20007FFF60000001BE6000000000
05C70000CFFE20000009FFE000000000
0000003BFFF60000003FFFD000000000
00004EFFFD40000000CFFF5000000000
00007FFFFB40000006FFFB0000000000
000029CFFFF500001EFFF20000000000
17400003EFFE0000AFFF700000000000
9FF20000BFFF2004FFFD000000000000
BFFB1004EFFF100DFFF4006DF7000000
8FFFFDEFFFFA007FFFA003FFF7000000
1CFFFFFFFFC102EFFE200BFFE1000000
006BEFFDA5000AFFF7004FFF61CFA000
0000000000004FFFC000CFFD08FFE000
000000000000DFFF3004FFF60CFFB000
000000000008FFF9000BFFD00FFF8000
00000000002FFFE1003FFF603FFF5000
0000000000BFFF60009FFE105FFF3000
0000000003FFFC0000DFFFFFFFFFFD20
0000000005FFF30000DFFFFFFFFFFF40
0000000001BE6000006EFFFFFFFFEA00
000000000000000000000000DFFA0000
000000000000000000000000EFF80000
000000000000000000000000EFF60000
0000000000000000000000008EC10000
ENDCHAR
STARTCHAR questiondown
ENCODING 191
SWIDTH 476 0
DWIDTH 15 0
BBX 16 28 -2 -13
BITMAP
00000000006DEC30
0000000005FFFFD0
000000000AFFFFF2
000000000BFFFFF1
0000000008FFFFB0
00000000019EEA10
0000000000000000
0000000000230000
0000000005FF4000
000000000CFF5000
000000003FFF2000
00000000BFFD0000
00000009FFF70000
0000009FFFD10000
00001BFFFE300000
0001CFFFF4000000
001CFFFF50000000
00BFFFF600000000
06FFFF8000000000
0DFFFD00001CE800
3FFFF700005FFF30
6FFFF400005FFF50
6FFFF500008FFF30
4FFFFD3027FFFE00
0DFFFFFFFFFFF700
04FFFFFFFFFFA000
003BFFFFFFD60000
0000256653000000
ENDCHAR
STARTCHAR Agrave
ENCODING 192
SWIDTH 786 0
DWIDTH 25 0
BBX 29 37 1 0
BITMAP
000000000037300000000000000000
0000000004FFF70000000000000000
0000000008FFFF9000000000000000
0000000004FFFFFB10000000000000
00000000005EFFFFC2000000000000
0000000000017EFFFE300000000000
000000000000018EFFD00000000000
00000000000000018EA00000000000
000000000000000000000000000000
000000000000000000000000000000
000000000000158BDEFEDCA8400000
00000000004BFFFFFFFFFFFFFA0000
000000003BFFFFFFFFFFFFFFFC0000
00000007FFFFFFEB8778ACFFE40000
0000009FFFFFA40000000003100000
000009FFFFD400000039A700000000
00007FFFFC10000001EFFF50000000
0003FFFFD100000004FFFF50000000
000CFFFF3000000007FFFF20000000
005FFFF8000000000AFFFD00000000
00BFFFE1000000000DFFFA00000000
02FFFF90000000001FFFF600000000
07FFFF40000000005FFFF300000000
0BFFFF00000000009FFFF100000000
0DFFFC0000000000DFFFD000000000
1FFFFA0000000002FFFFA000000000
2FFFF80000000007FFFF8000000000
3FFFF8000000000CFFFF6000000000
3FFFF8000000003FFFFF4000000000
2FFFFA00000000AFFFFF3000000000
0EFFFD00000003FFFFFF3000008E20
0AFFFF4000001DFFFFFF400007FF40
05FFFFD20001CFFCFFFF90007FFF10
00BFFFFE979EFFD2FFFFFA8CFFF600
002DFFFFFFFFFE30AFFFFFFFFF7000
0002CFFFFFFFD3001DFFFFFFE50000
000005BEFEB60000018DFEC8200000
ENDCHAR
STARTCHAR Aacute
ENCODING 193
SWIDTH 786 0
DWIDTH 25 0
BBX 29 37 1 0
BITMAP
000000000000000000000003730000
00000000000000000000007FFF3000
0000000000000000000009FFFF8000
00000000000000000001BFFFFF4000
0000000000000000002DFFFFE50000
000000000000000003EFFFE7100000
00000000000000000EFFE710000000
00000000000000000BE81000000000
000000000000000000000000000000
000000000000000000000000000000
000000000000158BDEFEDCA8400000
00000000004BFFFFFFFFFFFFFA0000
000000003BFFFFFFFFFFFFFFFC0000
00000007FFFFFFEB8778ACFFE40000
0000009FFFFFA40000000003100000
000009FFFFD400000039A700000000
00007FFFFC10000001EFFF50000000
0003FFFFD100000004FFFF50000000
000CFFFF3000000007FFFF20000000
005FFFF8000000000AFFFD00000000
00BFFFE1000000000DFFFA00000000
02FFFF90000000001FFFF600000000
07FFFF40000000005FFFF300000000
0BFFFF00000000009FFFF100000000
0DFFFC0000000000DFFFD000000000
1FFFFA0000000002FFFFA000000000
2FFFF80000000007FFFF8000000000
3FFFF8000000000CFFFF6000000000
3FFFF8000000003FFFFF4000000000
2FFFFA00000000AFFFFF3000000000
0EFFFD00000003FFFFFF3000008E20
0AFFFF4000001DFFFFFF400007FF40
05FFFFD20001CFFCFFFF90007FFF10
00BFFFFE979EFFD2FFFFFA8CFFF600
002DFFFFFFFFFE30AFFFFFFFFF7000
0002CFFFFFFFD3001DFFFFFFE50000
000005BEFEB60000018DFEC8200000
ENDCHAR
STARTCHAR Acircumflex
ENCODING 194
SWIDTH 786 0
DWIDTH 25 0
BBX 29 38 1 0
BITMAP
000000000000000008DEB100000000
0000000000000000AFFFFA00000000
0000000000000006FFFFFF20000000
000000000000002EFFCEFF70000000
00000000000000AFFF4AFFD0000000
00000000000005FFFA06FFF4000000
0000000000001EFFF202FFF9000000
0000000000004FFF8000CFFA000000
0000000000001CEA10005ED3000000
000000000000000000000000000000
000000000000000000000000000000
000000000000158BDEFEDCA8400000
00000000004BFFFFFFFFFFFFFA0000
000000003BFFFFFFFFFFFFFFFC0000
00000007FFFFFFEB8778ACFFE40000
0000009FFFFFA40000000003100000
000009FFFFD400000039A700000000
00007FFFFC10000001EFFF50000000
0003FFFFD100000004FFFF50000000
000CFFFF3000000007FFFF20000000
005FFFF8000000000AFFFD00000000
00BFFFE1000000000DFFFA00000000
02FFFF90000000001FFFF600000000
07FFFF40000000005FFFF300000000
0BFFFF00000000009FFFF100000000
0DFFFC0000000000DFFFD000000000
1FFFFA0000000002FFFFA000000000
2FFFF80000000007FFFF8000000000
3FFFF8000000000CFFFF6000000000
3FFFF8000000003FFFFF4000000000
2FFFFA00000000AFFFFF3000000000
0EFFFD00000003FFFFFF3000008E20
0AFFFF4000001DFFFFFF400007FF40
05FFFFD20001CFFCFFFF90007FFF10
00BFFFFE979EFFD2FFFFFA8CFFF600
002DFFFFFFFFFE30AFFFFFFFFF7000
0002CFFFFFFFD3001DFFFFFFE50000
000005BEFEB60000018DFEC8200000
ENDCHAR
STARTCHAR Atilde
ENCODING 195
SWIDTH 786 0
DWIDTH 25 0
BBX 29 36 1 0
BITMAP
000000000000002761000000000000
00000000000005FFFD40002CE60000
0000000000003FFFFFF800BFFA0000
000000000000CFFEFFFFC8FFF50000
000000000004FFF63DFFFFFFB00000
000000000006FFA0019FFFFE200000
00000000000066000004CEB3000000
000000000000000000000000000000
000000000000000000000000000000
000000000000158BDEFEDCA8400000
00000000004BFFFFFFFFFFFFFA0000
000000003BFFFFFFFFFFFFFFFC0000
00000007FFFFFFEB8778ACFFE40000
0000009FFFFFA40000000003100000
000009FFFFD400000039A700000000
00007FFFFC10000001EFFF50000000
0003FFFFD100000004FFFF50000000
000CFFFF3000000007FFFF20000000
005FFFF8000000000AFFFD00000000
00BFFFE1000000000DFFFA00000000
02FFFF90000000001FFFF600000000
07FFFF40000000005FFFF300000000
0BFFFF00000000009FFFF100000000
0DFFFC0000000000DFFFD000000000
1FFFFA0000000002FFFFA000000000
2FFFF80000000007FFFF8000000000
3FFFF8000000000CFFFF6000000000
3FFFF8000000003FFFFF4000000000
2FFFFA00000000AFFFFF3000000000
0EFFFD00000003FFFFFF3000008E20
0AFFFF4000001DFFFFFF400007FF40
05FFFFD20001CFFCFFFF90007FFF10
00BFFFFE979EFFD2FFFFFA8CFFF600
002DFFFFFFFFFE30AFFFFFFFFF7000
0002CFFFFFFFD3001DFFFFFFE50000
000005BEFEB60000018DFEC8200000
ENDCHAR
STARTCHAR Adieresis
ENCODING 196
SWIDTH 786 0
DWIDTH 25 0
BBX 29 34 1 0
BITMAP
00000000000004CEB1007EE7000000
0000000000000EFFF704FFFF200000
0000000000002FFFF908FFFF400000
0000000000001FFFF506FFFE100000
00000000000006EE8001AED5000000
000000000000000000000000000000
000000000000000000000000000000
000000000000158BDEFEDCA8400000
00000000004BFFFFFFFFFFFFFA0000
000000003BFFFFFFFFFFFFFFFC0000
00000007FFFFFFEB8778ACFFE40000
0000009FFFFFA40000000003100000
000009FFFFD400000039A700000000
00007FFFFC10000001EFFF50000000
0003FFFFD100000004FFFF50000000
000CFFFF3000000007FFFF20000000
005FFFF8000000000AFFFD00000000
00BFFFE1000000000DFFFA00000000
02FFFF90000000001FFFF600000000
07FFFF40000000005FFFF300000000
0BFFFF00000000009FFFF100000000
0DFFFC0000000000DFFFD000000000
1FFFFA0000000002FFFFA000000000
2FFFF80000000007FFFF8000000000
3FFFF8000000000CFFFF6000000000
3FFFF8000000003FFFFF4000000000
2FFFFA00000000AFFFFF3000000000
0EFFFD00000003FFFFFF3000008E20
0AFFFF4000001DFFFFFF400007FF40
05FFFFD20001CFFCFFFF90007FFF10
00BFFFFE979EFFD2FFFFFA8CFFF600
002DFFFFFFFFFE30AFFFFFFFFF7000
0002CFFFFFFFD3001DFFFFFFE50000
000005BEFEB60000018DFEC8200000
ENDCHAR
STARTCHAR Aring
ENCODING 197
SWIDTH 786 0
DWIDTH 25 0
BBX 29 38 1 0
BITMAP
00000000000000004BEEA200000000
0000000000000006FFFFFE30000000
000000000000001FFFEFFFB0000000
000000000000006FFA02EFF0000000
000000000000008FF500CFF0000000
000000000000008FF903FFD0000000
000000000000004FFFEFFF80000000
000000000000000AFFFFFC10000000
00000000000000007DFD8100000000
000000000000000000000000000000
000000000000000000000000000000
000000000000158BDEFEDCA8400000
00000000004BFFFFFFFFFFFFFA0000
000000003BFFFFFFFFFFFFFFFC0000
00000007FFFFFFEB8778ACFFE40000
0000009FFFFFA40000000003100000
000009FFFFD400000039A700000000
00007FFFFC10000001EFFF50000000
0003FFFFD100000004FFFF50000000
000CFFFF3000000007FFFF20000000
005FFFF8000000000AFFFD00000000
00BFFFE1000000000DFFFA00000000
02FFFF90000000001FFFF600000000
07FFFF40000000005FFFF300000000
0BFFFF00000000009FFFF100000000
0DFFFC0000000000DFFFD000000000
1FFFFA0000000002FFFFA000000000
2FFFF80000000007FFFF8000000000
3FFFF8000000000CFFFF6000000000
3FFFF8000000003FFFFF4000000000
2FFFFA00000000AFFFFF3000000000
0EFFFD00000003FFFFFF3000008E20
0AFFFF4000001DFFFFFF400007FF40
05FFFFD20001CFFCFFFF90007FFF10
00BFFFFE979EFFD2FFFFFA8CFFF600
002DFFFFFFFFFE30AFFFFFFFFF7000
0002CFFFFFFFD3001DFFFFFFE50000
000005BEFEB60000018DFEC8200000
ENDCHAR
STARTCHAR AE
ENCODING 198
SWIDTH 1015 0
DWIDTH 32 0
BBX 36 27 1 0
BITMAP
00000000000159CFE70017DFFFFFFFFFD300
00000000018EFFFFFF00BFFFFFFFFFFFF800
000000006EFFFFFFFF16FFFFFFFFFFFFF300
0000001AFFFFFFFDB50BFFFC877777762000
000001CFFFFFD720001FFFF5000000000000
00000BFFFFF70000005FFFF1000000000000
00009FFFFE300000009FFFC0000000000000
0004FFFFE200000000DFFF90000000000000
000DFFFF4000000002FFFF50000000000000
006FFFF90000000006FFFF20000000000000
00CFFFF2000000000AFFFE00000000000000
03FFFFA0000000000EFFFD77777777400000
07FFFF40000000003FFFFFFFFFFFFFF30000
0BFFFF10000000007FFFFFFFFFFFFFF30000
0EFFFC0000000000CFFFFFFFFFFFFE800000
1FFFFA0000000001FFFFD000000000000000
2FFFF80000000006FFFFB000000000000000
3FFFF8000000000CFFFF9000000000000000
3FFFF8000000003FFFFF9000000000000000
2FFFFA00000000AFFFFFB000000000000000
0EFFFD00000003FFFFFFE100000000000000
0AFFFF4000000CFFDFFFF8000000000029E4
04FFFFD20001BFFF3EFFFF810000004AFFF7
00AFFFFE979EFFF707FFFFFEA878AEFFFFF3
001DFFFFFFFFFFA0009FFFFFFFFFFFFFFE60
0001BFFFFFFFF8000006EFFFFFFFFFFE9100
000004ADFFD93000000016ACEFEDB8400000
ENDCHAR
STARTCHAR Ccedilla
ENCODING 199
SWIDTH 686 0
DWIDTH 22 0
BBX 24 35 2 -8
BITMAP
0000000015ADEFEC81000000
00000017EFFFFFFFFE500000
000003DFFFFFFFFFFFF40000
00004EFFFFEA88BFFFFC0000
0003EFFFF8100006FFFF3000
001DFFFF50000000EFFF5000
008FFFF600000000DFFF6000
02FFFFB000000000EFFF5000
08FFFF3000000001FFFF2000
0EFFFB0000000001FFFB0000
4FFFF600000000005A810000
7FFFF2000000000000000000
AFFFE0000000000000000000
CFFFD0000000000000000000
DFFFC0000000000000000000
EFFFB0000000000000000000
EFFFC0000000000000000000
DFFFE0000000000000000000
AFFFF3000000000000000000
7FFFF9000000000000000000
2FFFFF300000000000000000
09FFFFD200000000000016B8
01EFFFFE710000000159EFFE
004EFFFFFFB98789CFFFFFFC
0003DFFFFFFFFFFFFFFFFFD3
000019EFFFFFFFFFFFFFC610
0000007FFFFFFFEDB9510000
0000008FFFFFF30000000000
0000000236EFFA0000000000
00000000007FFD0000000000
00000000009FFC0000000000
000006778BFFF80000000000
00005FFFFFFFE20000000000
00006FFFFFFE400000000000
00001BEFEC81000000000000
ENDCHAR
STARTCHAR Egrave
ENCODING 200
SWIDTH 686 0
DWIDTH 22 0
BBX 25 37 1 0
BITMAP
00000037300000000000000000
000004FFF60000000000000000
000008FFFF8000000000000000
000004FFFFFA10000000000000
0000005EFFFFC2000000000000
000000017EFFFE300000000000
00000000018EFFD00000000000
0000000000018EA00000000000
00000000000000000000000000
00000000000000000000000000
00000000159CDFEEB820000000
00000018FFFFFFFFFFF8000000
000004EFFFFFFFFFFFFF900000
00005FFFFFFB877AEFFFF40000
0002EFFFF91000002EFFF90000
0008FFFF8000000008FFFB0000
000CFFFF1000000007FFFB0000
000DFFFD0000000009FFF90000
000BFFFE000000000BFFF40000
0007FFFF8000000005EF900000
0001DFFFFB5200000000000000
00001BFFFFFFFE200000000000
0000029FFFFFFF500000000000
0002AFFFFFFFFF200000000000
006FFFFFFC9873000000000000
06FFFFE7100000000000000000
2FFFFD20000000000000000000
9FFFF400000000000000000000
DFFFD000000000000000000000
FFFFC000000000000000000000
FFFFE000000000000000000000
CFFFF700000000000000017C90
6FFFFF92000000000037BFFFE0
0BFFFFFFDA87789ADFFFFFFFB0
01AFFFFFFFFFFFFFFFFFFFFC20
0004BFFFFFFFFFFFFFFFEA5000
00000269CDEFFEECA963000000
ENDCHAR
STARTCHAR Eacute
ENCODING 201
SWIDTH 686 0
DWIDTH 22 0
BBX 25 37 1 0
BITMAP
00000000000000000003730000
0000000000000000007FFF3000
000000000000000009FFFF7000
0000000000000001BFFFFF3000
000000000000002DFFFFD50000
00000000000004EFFFE7100000
0000000000000EFFE710000000
0000000000000BE81000000000
00000000000000000000000000
00000000000000000000000000
00000000159CDFEEB820000000
00000018FFFFFFFFFFF8000000
000004EFFFFFFFFFFFFF900000
00005FFFFFFB877AEFFFF40000
0002EFFFF91000002EFFF90000
0008FFFF8000000008FFFB0000
000CFFFF1000000007FFFB0000
000DFFFD0000000009FFF90000
000BFFFE000000000BFFF40000
0007FFFF8000000005EF900000
0001DFFFFB5200000000000000
00001BFFFFFFFE200000000000
0000029FFFFFFF500000000000
0002AFFFFFFFFF200000000000
006FFFFFFC9873000000000000
06FFFFE7100000000000000000
2FFFFD20000000000000000000
9FFFF400000000000000000000
DFFFD000000000000000000000
FFFFC000000000000000000000
FFFFE000000000000000000000
CFFFF700000000000000017C90
6FFFFF92000000000037BFFFE0
0BFFFFFFDA87789ADFFFFFFFB0
01AFFFFFFFFFFFFFFFFFFFFC20
0004BFFFFFFFFFFFFFFFEA5000
00000269CDEFFEECA963000000
ENDCHAR
STARTCHAR Ecircumflex
ENCODING 202
SWIDTH 686 0
DWIDTH 22 0
BBX 25 38 1 0
BITMAP
00000000000008DEB100000000
000000000000BFFFF900000000
000000000007FFFFFF10000000
00000000002EFFCEFF70000000
0000000000BFFF3BFFC0000000
0000000006FFFA06FFF3000000
000000001EFFF202FFF8000000
000000005FFF8000DFFA000000
000000001CE900005ED3000000
00000000000000000000000000
00000000000000000000000000
00000000159CDFEEB820000000
00000018FFFFFFFFFFF8000000
000004EFFFFFFFFFFFFF900000
00005FFFFFFB877AEFFFF40000
0002EFFFF91000002EFFF90000
0008FFFF8000000008FFFB0000
000CFFFF1000000007FFFB0000
000DFFFD0000000009FFF90000
000BFFFE000000000BFFF40000
0007FFFF8000000005EF900000
0001DFFFFB5200000000000000
00001BFFFFFFFE200000000000
0000029FFFFFFF500000000000
0002AFFFFFFFFF200000000000
006FFFFFFC9873000000000000
06FFFFE7100000000000000000
2FFFFD20000000000000000000
9FFFF400000000000000000000
DFFFD000000000000000000000
FFFFC000000000000000000000
FFFFE000000000000000000000
CFFFF700000000000000017C90
6FFFFF92000000000037BFFFE0
0BFFFFFFDA87789ADFFFFFFFB0
01AFFFFFFFFFFFFFFFFFFFFC20
0004BFFFFFFFFFFFFFFFEA5000
00000269CDEFFEECA963000000
ENDCHAR
STARTCHAR Edieresis
ENCODING 203
SWIDTH 686 0
DWIDTH 22 0
BBX 25 34 1 0
BITMAP
0000000004DEA1008EE7000000
000000001EFFF705FFFF200000
000000003FFFF808FFFF300000
000000002FFFF507FFFE100000
0000000007EE8001BED4000000
00000000000000000000000000
00000000000000000000000000
00000000159CDFEEB820000000
00000018FFFFFFFFFFF8000000
000004EFFFFFFFFFFFFF900000
00005FFFFFFB877AEFFFF40000
0002EFFFF91000002EFFF90000
0008FFFF8000000008FFFB0000
000CFFFF1000000007FFFB0000
000DFFFD0000000009FFF90000
000BFFFE000000000BFFF40000
0007FFFF8000000005EF900000
0001DFFFFB5200000000000000
00001BFFFFFFFE200000000000
0000029FFFFFFF500000000000
0002AFFFFFFFFF200000000000
006FFFFFFC9873000000000000
06FFFFE7100000000000000000
2FFFFD20000000000000000000
9FFFF400000000000000000000
DFFFD000000000000000000000
FFFFC000000000000000000000
FFFFE000000000000000000000
CFFFF700000000000000017C90
6FFFFF92000000000037BFFFE0
0BFFFFFFDA87789ADFFFFFFFB0
01AFFFFFFFFFFFFFFFFFFFFC20
0004BFFFFFFFFFFFFFFFEA5000
00000269CDEFFEECA963000000
ENDCHAR
STARTCHAR Igrave
ENCODING 204
SWIDTH 495 0
DWIDTH 16 0
BBX 19 37 -1 0
BITMAP
00004720000000000000
0005FFE5000000000000
000AFFFF700000000000
0006FFFFF90000000000
00006EFFFFB100000000
0000018EFFFD20000000
000000019FFFB0000000
00000000029E90000000
00000000000000000000
00000000000000000000
00001AEFFFFFFFFFFD50
00009FFFFFFFFFFFFFB0
0000AFFFFFFFFFFFFF60
000016778FFFFB776300
000000003FFFF5000000
000000006FFFF3000000
000000008FFFF0000000
00000000AFFFD0000000
00000000CFFFA0000000
00000000EFFF80000000
00000002FFFF50000000
00000004FFFF30000000
00000006FFFF10000000
00000009FFFD00000000
0000000BFFFB00000000
0000000EFFF800000000
0000001FFFF600000000
0000004FFFF400000000
0000006FFFF200000000
0000008FFFF000000000
000000AFFFD000000000
000000DFFFB000000000
000000FFFF9000000000
003678FFFFB775100000
2DFFFFFFFFFFFFE10000
7FFFFFFFFFFFFFF10000
3DFFFFFFFFFFFD600000
ENDCHAR
STARTCHAR Iacute
ENCODING 205
SWIDTH 495 0
DWIDTH 16 0
BBX 21 37 -1 0
BITMAP
0000000000000000047200
00000000000000008FFE20
000000000000001AFFFF60
00000000000002CFFFFF20
0000000000003DFFFFD400
000000000005EFFFD60000
00000000001FFFE6000000
00000000000CD710000000
0000000000000000000000
0000000000000000000000
00001AEFFFFFFFFFFD5000
00009FFFFFFFFFFFFFB000
0000AFFFFFFFFFFFFF6000
000016778FFFFB77630000
000000003FFFF500000000
000000006FFFF300000000
000000008FFFF000000000
00000000AFFFD000000000
00000000CFFFA000000000
00000000EFFF8000000000
00000002FFFF5000000000
00000004FFFF3000000000
00000006FFFF1000000000
00000009FFFD0000000000
0000000BFFFB0000000000
0000000EFFF80000000000
0000001FFFF60000000000
0000004FFFF40000000000
0000006FFFF20000000000
0000008FFFF00000000000
000000AFFFD00000000000
000000DFFFB00000000000
000000FFFF900000000000
003678FFFFB77510000000
2DFFFFFFFFFFFFE1000000
7FFFFFFFFFFFFFF1000000
3DFFFFFFFFFFFD60000000
ENDCHAR
STARTCHAR Icircumflex
ENCODING 206
SWIDTH 495 0
DWIDTH 16 0
BBX 19 38 -1 0
BITMAP
000000000019EEA00000
0000000000CFFFF80000
0000000008FFFFFE1000
000000003FFFBFFF5000
00000000CFFF2CFFB000
00000007FFF808FFF200
0000002FFFE103FFF700
0000006FFF6000EFF800
0000002DE800006EC200
00000000000000000000
00000000000000000000
00001AEFFFFFFFFFFD50
00009FFFFFFFFFFFFFB0
0000AFFFFFFFFFFFFF60
000016778FFFFB776300
000000003FFFF5000000
000000006FFFF3000000
000000008FFFF0000000
00000000AFFFD0000000
00000000CFFFA0000000
00000000EFFF80000000
00000002FFFF50000000
00000004FFFF30000000
00000006FFFF10000000
00000009FFFD00000000
0000000BFFFB00000000
0000000EFFF800000000
0000001FFFF600000000
0000004FFFF400000000
0000006FFFF200000000
0000008FFFF000000000
000000AFFFD000000000
000000DFFFB000000000
000000FFFF9000000000
003678FFFFB775100000
2DFFFFFFFFFFFFE10000
7FFFFFFFFFFFFFF10000
3DFFFFFFFFFFFD600000
ENDCHAR
STARTCHAR Idieresis
ENCODING 207
SWIDTH 495 0
DWIDTH 16 0
BBX 19 34 -1 0
BITMAP
00000005DEA0009EE600
0000001FFFF506FFFF10
0000004FFFF709FFFF20
0000003FFFF408FFFD00
00000008EE7001BEC300
00000000000000000000
00000000000000000000
00001AEFFFFFFFFFFD50
00009FFFFFFFFFFFFFB0
0000AFFFFFFFFFFFFF60
000016778FFFFB776300
000000003FFFF5000000
000000006FFFF3000000
000000008FFFF0000000
00000000AFFFD0000000
00000000CFFFA0000000
00000000EFFF80000000
00000002FFFF50000000
00000004FFFF30000000
00000006FFFF10000000
00000009FFFD00000000
0000000BFFFB00000000
0000000EFFF800000000
0000001FFFF600000000
0000004FFFF400000000
0000006FFFF200000000
0000008FFFF000000000
000000AFFFD000000000
000000DFFFB000000000
000000FFFF9000000000
003678FFFFB775100000
2DFFFFFFFFFFFFE10000
7FFFFFFFFFFFFFF10000
3DFFFFFFFFFFFD600000
ENDCHAR
STARTCHAR Eth
ENCODING 208
SWIDTH 821 0
DWIDTH 26 0
BBX 26 27 0 0
BITMAP
000000003ACEFFEDB840000000
00000001EFFFFFFFFFFD500000
00000006FFFFFFFFFFFFFA1000
0000000BFFFC778BFFFFFFC100
0000001FFFF6000018FFFFFA00
0000005FFFF20000004EFFFF40
000000AFFFC000000005FFFFC0
000000EFFF8000000000CFFFF2
000003FFFF40000000007FFFF6
000007FFFE00000000003FFFF8
00000BFFFB00000000001FFFFA
07DEFFFFFFFFFED600000FFFFA
5FFFFFFFFFFFFFFE00001FFFFA
6FFFFFFFFFFFFFFC00002FFFF9
0577DFFFD777776100004FFFF6
0000DFFF9000000000008FFFF4
0001FFFF700000000000CFFFE0
0003FFFF400000000003FFFFA0
0006FFFF20000000000AFFFF30
0008FFFE00000000005FFFFB00
000AFFFD0000000004EFFFE200
000CFFFB000000006EFFFF5000
000EFFF90000004BFFFFF70000
001FFFFC7778BEFFFFFF500000
002FFFFFFFFFFFFFFFB2000000
001EFFFFFFFFFFFFB400000000
00038BDEFFEDC9610000000000
ENDCHAR
STARTCHAR Ntilde
ENCODING 209
SWIDTH 884 0
DWIDTH 28 0
BBX 33 36 0 0
BITMAP
0000000000000047400000000000000000
00000000000009FFFB10004DD200000000
0000000000008FFFFFE502EFF500000000
000000000002FFFEFFFF9BFFE100000000
000000000009FFE26EFFFFFF7000000000
00000000000AFF6002CFFFFC0000000000
00000000000274000007DE910000000000
0000000000000000000000000000000000
0000000000000000000000000000000000
000016BEFD600000018CEFD92000000000
0004EFFFFFF400007EFFFFFFE300000000
007FFFFFFFFA0009FFFFFFFFFD00000000
07FFFC8CFFFC008FFFA79FFFFF40000000
4FFF7005FFFD04FFD30006FFFF70000000
DFF60005FFFD0DFD100002FFFF80000000
FF800006FFFB6FE2000002FFFF70000000
68000007FFFADF70000004FFFF50000000
00000009FFFCFD00000007FFFF30000000
0000000BFFFFF60000000AFFFF00000000
0000000CFFFFE10000000DFFFC00000000
0000000EFFFF900000001FFFF800000000
0000001FFFFF300000005FFFF500000000
0000004FFFFE000000008FFFF200000000
0000006FFFF900000000BFFFE000000000
0000008FFFF500000000EFFFB000000000
000000BFFFF200000002FFFF7000000000
000000DFFFD000000005FFFF4000000000
000001FFFFA000000008FFFF1000000000
000003FFFF7000000009FFFE0000000000
000006FFFF400000000AFFFD0000006F30
000008FFFF200000000AFFFE000005FF60
00000AFFFF0000000008FFFF40006FFF30
00000BFFFD0000000004FFFFE98CFFF900
00000BFFFA0000000000CFFFFFFFFF9000
00000AFFF700000000002DFFFFFFF70000
000003DEB10000000000017CEEC8200000
ENDCHAR
STARTCHAR Ograve
ENCODING 210
SWIDTH 816 0
DWIDTH 26 0
BBX 24 37 2 0
BITMAP
000001660000000000000000
00000BFFC200000000000000
00001FFFFD30000000000000
00000CFFFFE5000000000000
000001AFFFFF700000000000
00000003BFFFF90000000000
0000000004CFFF6000000000
000000000004CE3000000000
000000000000000000000000
000000000000000000000000
0000000015ADEFEC83000000
00000007EFFFFFFFFFB20000
000003DFFFFFFFFFFFFE4000
00004EFFFFEA87AEFFFFE300
0003EFFFF7100001BFFFFD00
001DFFFE400000000BFFFF60
008FFFF50000000002FFFFD0
02FFFFA00000000000BFFFF2
08FFFF3000000000007FFFF5
0EFFFB0000000000004FFFF7
3FFFF60000000000003FFFF8
7FFFF30000000000003FFFF7
AFFFF00000000000003FFFF7
CFFFD00000000000004FFFF6
DFFFC00000000000006FFFF3
EFFFB00000000000009FFFF1
EFFFC0000000000000DFFFC0
DFFFD0000000000002FFFF70
BFFFF1000000000009FFFF20
8FFFF500000000002EFFFA00
4FFFFB0000000000BFFFF200
0DFFFF5000000009FFFF7000
05FFFFF6000002BFFFFB0000
009FFFFFD878BFFFFFB10000
000AFFFFFFFFFFFFF9000000
00006EFFFFFFFFFC40000000
0000016ADFFEC83000000000
ENDCHAR
STARTCHAR Oacute
ENCODING 211
SWIDTH 816 0
DWIDTH 26 0
BBX 24 37 2 0
BITMAP
000000000000000000166000
000000000000000002CFFA00
00000000000000003EFFFF00
0000000000000005FFFFFB00
000000000000007FFFFFA100
0000000000000AFFFFB30000
0000000000006FFFB3000000
0000000000004EB400000000
000000000000000000000000
000000000000000000000000
0000000015ADEFEC83000000
00000007EFFFFFFFFFB20000
000003DFFFFFFFFFFFFE4000
00004EFFFFEA87AEFFFFE300
0003EFFFF7100001BFFFFD00
001DFFFE400000000BFFFF60
008FFFF50000000002FFFFD0
02FFFFA00000000000BFFFF2
08FFFF3000000000007FFFF5
0EFFFB0000000000004FFFF7
3FFFF60000000000003FFFF8
7FFFF30000000000003FFFF7
AFFFF00000000000003FFFF7
CFFFD00000000000004FFFF6
DFFFC00000000000006FFFF3
EFFFB00000000000009FFFF1
EFFFC0000000000000DFFFC0
DFFFD0000000000002FFFF70
BFFFF1000000000009FFFF20
8FFFF500000000002EFFFA00
4FFFFB0000000000BFFFF200
0DFFFF5000000009FFFF7000
05FFFFF6000002BFFFFB0000
009FFFFFD878BFFFFFB10000
000AFFFFFFFFFFFFF9000000
00006EFFFFFFFFFC40000000
0000016ADFFEC83000000000
ENDCHAR
STARTCHAR Ocircumflex
ENCODING 212
SWIDTH 816 0
DWIDTH 26 0
BBX 24 38 2 0
BITMAP
0000000000003BED50000000
000000000003FFFFF2000000
00000000001DFFFFF9000000
00000000009FFFBFFE000000
0000000003FFFB3FFF500000
000000000DFFF30EFFB00000
000000007FFF9009FFF10000
00000000CFFE1005FFF20000
000000006ED40000BE900000
000000000000000000000000
000000000000000000000000
0000000015ADEFEC83000000
00000007EFFFFFFFFFB20000
000003DFFFFFFFFFFFFE4000
00004EFFFFEA87AEFFFFE300
0003EFFFF7100001BFFFFD00
001DFFFE400000000BFFFF60
008FFFF50000000002FFFFD0
02FFFFA00000000000BFFFF2
08FFFF3000000000007FFFF5
0EFFFB0000000000004FFFF7
3FFFF60000000000003FFFF8
7FFFF30000000000003FFFF7
AFFFF00000000000003FFFF7
CFFFD00000000000004FFFF6
DFFFC00000000000006FFFF3
EFFFB00000000000009FFFF1
EFFFC0000000000000DFFFC0
DFFFD0000000000002FFFF70
BFFFF1000000000009FFFF20
8FFFF500000000002EFFFA00
4FFFFB0000000000BFFFF200
0DFFFF5000000009FFFF7000
05FFFFF6000002BFFFFB0000
009FFFFFD878BFFFFFB10000
000AFFFFFFFFFFFFF9000000
00006EFFFFFFFFFC40000000
0000016ADFFEC83000000000
ENDCHAR
STARTCHAR Otilde
ENCODING 213
SWIDTH 816 0
DWIDTH 26 0
BBX 24 36 2 0
BITMAP
000000000057300000000000
000000001CFFF910007EC100
00000000BFFFFFD304FFF200
00000005FFFEFFFF7DFFC000
0000000CFFD18FFFFFFF4000
0000000DFF3004DFFFF90000
0000000373000019EE800000
000000000000000000000000
000000000000000000000000
0000000015ADEFEC83000000
00000007EFFFFFFFFFB20000
000003DFFFFFFFFFFFFE4000
00004EFFFFEA87AEFFFFE300
0003EFFFF7100001BFFFFD00
001DFFFE400000000BFFFF60
008FFFF50000000002FFFFD0
02FFFFA00000000000BFFFF2
08FFFF3000000000007FFFF5
0EFFFB0000000000004FFFF7
3FFFF60000000000003FFFF8
7FFFF30000000000003FFFF7
AFFFF00000000000003FFFF7
CFFFD00000000000004FFFF6
DFFFC00000000000006FFFF3
EFFFB00000000000009FFFF1
EFFFC0000000000000DFFFC0
DFFFD0000000000002FFFF70
BFFFF1000000000009FFFF20
8FFFF500000000002EFFFA00
4FFFFB0000000000BFFFF200
0DFFFF5000000009FFFF7000
05FFFFF6000002BFFFFB0000
009FFFFFD878BFFFFFB10000
000AFFFFFFFFFFFFF9000000
00006EFFFFFFFFFC40000000
0000016ADFFEC83000000000
ENDCHAR
STARTCHAR Odieresis
ENCODING 214
SWIDTH 816 0
DWIDTH 26 0
BBX 24 34 2 0
BITMAP
0000000009ED5002CEC20000
000000007FFFE00CFFF90000
00000000AFFFF10FFFFB0000
000000009FFFD00EFFF80000
000000002BEC3005DEA10000
000000000000000000000000
000000000000000000000000
0000000015ADEFEC83000000
00000007EFFFFFFFFFB20000
000003DFFFFFFFFFFFFE4000
00004EFFFFEA87AEFFFFE300
0003EFFFF7100001BFFFFD00
001DFFFE400000000BFFFF60
008FFFF50000000002FFFFD0
02FFFFA00000000000BFFFF2
08FFFF3000000000007FFFF5
0EFFFB0000000000004FFFF7
3FFFF60000000000003FFFF8
7FFFF30000000000003FFFF7
AFFFF00000000000003FFFF7
CFFFD00000000000004FFFF6
DFFFC00000000000006FFFF3
EFFFB00000000000009FFFF1
EFFFC0000000000000DFFFC0
DFFFD0000000000002FFFF70
BFFFF1000000000009FFFF20
8FFFF500000000002EFFFA00
4FFFFB0000000000BFFFF200
0DFFFF5000000009FFFF7000
05FFFFF6000002BFFFFB0000
009FFFFFD878BFFFFFB10000
000AFFFFFFFFFFFFF9000000
00006EFFFFFFFFFC40000000
0000016ADFFEC83000000000
ENDCHAR
STARTCHAR multiply
ENCODING 215
SWIDTH 700 0
DWIDTH 22 0
BBX 17 15 3 2
BITMAP
000650000000017300
00BFF70000003EFF20
02FFFF500004EFFF40
00DFFFF3005FFFFB00
002EFFFE26FFFFA000
0003FFFFEFFFF90000
00005FFFFFFF700000
000007FFFFF6000000
00001CFFFFF8000000
0002DFFFFFFF700000
003EFFFDCFFFF50000
05EFFFB11DFFFF4000
3FFFFA0002EFFFD000
6FFF9000003EFFD000
1CE600000004ED3000
ENDCHAR
STARTCHAR Oslash
ENCODING 216
SWIDTH 816 0
DWIDTH 26 0
BBX 24 34 2 -4
BITMAP
000000000000007ED4000000
00000000000000EFF9000000
00000000000003FFF5000000
0000000015ADEFFFF5000000
00000007EFFFFFFFFFC30000
000002DFFFFFFFFFFFFE4000
00003EFFFFD9AFFFFFFFF300
0003EFFFE5009FFDBFFFFD00
001DFFFE3000DFF90CFFFF70
008FFFF40002FFF503FFFFD0
02FFFFA00006FFF100CFFFF2
08FFFF200009FFC0007FFFF5
0EFFFB00000DFF80005FFFF7
3FFFF700002FFF40004FFFF8
7FFFF300006FFE00003FFFF7
AFFFF000009FFB00004FFFF7
CFFFE00000DFF700005FFFF5
DFFFD00002FFF300006FFFF3
EFFFC00006FFE00000AFFFF1
EFFFC0000BFFB00000DFFFC0
DFFFD0000EFF700002FFFF70
CFFFF1003FFF300008FFFF20
9FFFF5007FFE00001EFFFA00
4FFFFB00CFFA0000AFFFF200
0DFFFF51FFF60008FFFF7000
05FFFFF9FFF201AFFFFA0000
00AFFFFFFFF8AEFFFFB00000
001BFFFFFFFFFFFFF8000000
00007EFFFFFFFFFC40000000
000001AFFFFEB83000000000
000000AFFC00000000000000
000000EFF800000000000000
000000EFF400000000000000
000000274000000000000000
ENDCHAR
STARTCHAR Ugrave
ENCODING 217
SWIDTH 890 0
DWIDTH 28 0
BBX 33 37 0 0
BITMAP
0000000002740000000000000000000000
000000002FFF8000000000000000000000
000000006FFFFA10000000000000000000
000000003FFFFFC1000000000000000000
0000000004DFFFFD300000000000000000
000000000006DFFFE40000000000000000
00000000000007EFFE1000000000000000
0000000000000017EC0000000000000000
0000000000000000000000000000000000
0000000000000000000000000000000000
000016BEFD8100000000002CEB10000000
0005EFFFFFFB00000000008FFF70000000
007FFFFFFFFF5000000000CFFFA0000000
06FFFE9AFFFF8000000000EFFFA0000000
3FFF9100EFFFA000000001FFFF80000000
BFF80000EFFFA000000004FFFF60000000
FFA00000FFFF9000000006FFFF40000000
9B100002FFFF7000000009FFFF20000000
00000005FFFF500000000CFFFE00000000
00000008FFFF200000000EFFFC00000000
0000000CFFFE000000003FFFF900000000
0000000EFFFB000000007FFFF700000000
0000003FFFF700000000BFFFF400000000
0000006FFFF400000001FFFFF200000000
000000AFFFF100000006FFFFF000000000
000000DFFFC00000000BFFFFD000000000
000001FFFF900000002FFFFFB000000000
000004FFFF600000009FFFFF8000000000
000007FFFF20000002FFDFFF7000000000
00000AFFFE0000000AFAEFFF5000000000
00000BFFFD0000005FF3FFFF4000002A40
00000CFFFD000003EFA2FFFF400002DF90
00000BFFFF20005EFE12FFFF90003DFF70
000008FFFFE88CFFF501FFFFFA7AFFFD10
000002FFFFFFFFFF6000AFFFFFFFFFC100
0000006FFFFFFFE400001DFFFFFFFA1000
00000004AEFEB7100000017CEFD9300000
ENDCHAR
STARTCHAR Uacute
ENCODING 218
SWIDTH 890 0
DWIDTH 28 0
BBX 33 37 0 0
BITMAP
0000000000000000000000274000000000
0000000000000000000005FFF500000000
000000000000000000008FFFF900000000
0000000000000000000AFFFFF500000000
000000000000000001CFFFFE6000000000
00000000000000002DFFFE810000000000
0000000000000000CFFE81000000000000
00000000000000009E9100000000000000
0000000000000000000000000000000000
0000000000000000000000000000000000
000016BEFD8100000000002CEB10000000
0005EFFFFFFB00000000008FFF70000000
007FFFFFFFFF5000000000CFFFA0000000
06FFFE9AFFFF8000000000EFFFA0000000
3FFF9100EFFFA000000001FFFF80000000
BFF80000EFFFA000000004FFFF60000000
FFA00000FFFF9000000006FFFF40000000
9B100002FFFF7000000009FFFF20000000
00000005FFFF500000000CFFFE00000000
00000008FFFF200000000EFFFC00000000
0000000CFFFE000000003FFFF900000000
0000000EFFFB000000007FFFF700000000
0000003FFFF700000000BFFFF400000000
0000006FFFF400000001FFFFF200000000
000000AFFFF100000006FFFFF000000000
000000DFFFC00000000BFFFFD000000000
000001FFFF900000002FFFFFB000000000
000004FFFF600000009FFFFF8000000000
000007FFFF20000002FFDFFF7000000000
00000AFFFE0000000AFAEFFF5000000000
00000BFFFD0000005FF3FFFF4000002A40
00000CFFFD000003EFA2FFFF400002DF90
00000BFFFF20005EFE12FFFF90003DFF70
000008FFFFE88CFFF501FFFFFA7AFFFD10
000002FFFFFFFFFF6000AFFFFFFFFFC100
0000006FFFFFFFE400001DFFFFFFFA1000
00000004AEFEB7100000017CEFD9300000
ENDCHAR
STARTCHAR Ucircumflex
ENCODING 219
SWIDTH 890 0
DWIDTH 28 0
BBX 33 38 0 0
BITMAP
00000000000000007DFC20000000000000
0000000000000009FFFFB0000000000000
000000000000004FFFFFF3000000000000
00000000000001DFFDDFF9000000000000
00000000000009FFF58FFE000000000000
0000000000004FFFC04FFF500000000000
000000000000DFFF300EFFA00000000000
000000000003FFFA000BFFC00000000000
000000000000BFB10003DD400000000000
0000000000000000000000000000000000
0000000000000000000000000000000000
000016BEFD8100000000002CEB10000000
0005EFFFFFFB00000000008FFF70000000
007FFFFFFFFF5000000000CFFFA0000000
06FFFE9AFFFF8000000000EFFFA0000000
3FFF9100EFFFA000000001FFFF80000000
BFF80000EFFFA000000004FFFF60000000
FFA00000FFFF9000000006FFFF40000000
9B100002FFFF7000000009FFFF20000000
00000005FFFF500000000CFFFE00000000
00000008FFFF200000000EFFFC00000000
0000000CFFFE000000003FFFF900000000
0000000EFFFB000000007FFFF700000000
0000003FFFF700000000BFFFF400000000
0000006FFFF400000001FFFFF200000000
000000AFFFF100000006FFFFF000000000
000000DFFFC00000000BFFFFD000000000
000001FFFF900000002FFFFFB000000000
000004FFFF600000009FFFFF8000000000
000007FFFF20000002FFDFFF7000000000
00000AFFFE0000000AFAEFFF5000000000
00000BFFFD0000005FF3FFFF4000002A40
00000CFFFD000003EFA2FFFF400002DF90
00000BFFFF20005EFE12FFFF90003DFF70
000008FFFFE88CFFF501FFFFFA7AFFFD10
000002FFFFFFFFFF6000AFFFFFFFFFC100
0000006FFFFFFFE400001DFFFFFFFA1000
00000004AEFEB7100000017CEFD9300000
ENDCHAR
STARTCHAR Udieresis
ENCODING 220
SWIDTH 890 0
DWIDTH 28 0
BBX 33 34 0 0
BITMAP
0000000000003CEB2006DE900000000000
000000000000DFFF903FFFF40000000000
000000000001FFFFA06FFFF50000000000
000000000000EFFF704FFFF20000000000
0000000000005DE91009ED600000000000
0000000000000000000000000000000000
0000000000000000000000000000000000
000016BEFD8100000000002CEB10000000
0005EFFFFFFB00000000008FFF70000000
007FFFFFFFFF5000000000CFFFA0000000
06FFFE9AFFFF8000000000EFFFA0000000
3FFF9100EFFFA000000001FFFF80000000
BFF80000EFFFA000000004FFFF60000000
FFA00000FFFF9000000006FFFF40000000
9B100002FFFF7000000009FFFF20000000
00000005FFFF500000000CFFFE00000000
00000008FFFF200000000EFFFC00000000
0000000CFFFE000000003FFFF900000000
0000000EFFFB000000007FFFF700000000
0000003FFFF700000000BFFFF400000000
0000006FFFF400000001FFFFF200000000
000000AFFFF100000006FFFFF000000000
000000DFFFC00000000BFFFFD000000000
000001FFFF900000002FFFFFB000000000
000004FFFF600000009FFFFF8000000000
000007FFFF20000002FFDFFF7000000000
00000AFFFE0000000AFAEFFF5000000000
00000BFFFD0000005FF3FFFF4000002A40
00000CFFFD000003EFA2FFFF400002DF90
00000BFFFF20005EFE12FFFF90003DFF70
000008FFFFE88CFFF501FFFFFA7AFFFD10
000002FFFFFFFFFF6000AFFFFFFFFFC100
0000006FFFFFFFE400001DFFFFFFFA1000
00000004AEFEB7100000017CEFD9300000
ENDCHAR
STARTCHAR Yacute
ENCODING 221
SWIDTH 851 0
DWIDTH 27 0
BBX 31 48 0 -11
BITMAP
00000000000000000000000661000000
0000000000000000000002CFFB000000
000000000000000000003DFFFF000000
00000000000000000005EFFFFC000000
0000000000000000007FFFFFA1000000
000000000000000009FFFFB300000000
00000000000000006FFFC40000000000
00000000000000004EC4000000000000
00000000000000000000000000000000
00000000000000000000000000000000
000016BEFD8100000000001BEC300000
0005EFFFFFFB00000000008FFFA00000
007FFFFFFFFF5000000000CFFFC00000
07FFFD8AFFFF8000000000EFFFA00000
3FFF9100EFFFA000000001FFFF800000
BFF80000EFFFA000000003FFFF600000
FFA00000FFFF9000000006FFFF400000
9B100002FFFF7000000009FFFF200000
00000005FFFF400000000DFFFE000000
00000008FFFF200000001FFFFC000000
0000000BFFFE000000005FFFFA000000
0000000EFFFB00000000AFFFF8000000
0000003FFFF700000001FFFFF6000000
0000006FFFF400000007FFFFF3000000
0000009FFFF10000000DFFFFF1000000
000000BFFFD00000006FFFFFE0000000
000000CFFFB0000001EFCFFFC0000000
000000DFFFB000000BFE8FFFA0000000
000000CFFFE000009FF79FFF80000000
0000009FFFF9214CFFC0BFFF50000000
0000004FFFFFFFFFFD20DFFF3369CE70
00000009FFFFFFFFD201FFFFFFFFFFA0
000000008FFFFFE81039FFFFFFFFFF60
00000000015664016CFFFFFFFFEB7400
000000000000017EFFFFFFFC52000000
0000000000005EFFFFBDFFF700000000
00000000001AFFFE920CFFF400000000
0000000001CFFFA2000FFFF100000000
000000000BFFF700004FFFD000000000
000000006FFF7000008FFF8000000000
00000000CFFE000000DFFF3000000000
00000002FFFA000006FFFC0000000000
00000004FFFB00003EFFF50000000000
00000003FFFF6116EFFFA00000000000
00000000EFFFFFFFFFFC100000000000
000000006FFFFFFFFFB1000000000000
0000000006EFFFFFD600000000000000
00000000000466520000000000000000
ENDCHAR
STARTCHAR Thorn
ENCODING 222
SWIDTH 776 0
DWIDTH 25 0
BBX 24 34 1 -4
BITMAP
000000000006DFC100000000
00000000001FFFF500000000
00000000004FFFF400000000
00000000006FFFF200000000
00000000008FFFF000000000
0000000000AFFFD000000000
0000000000CFFFD643000000
000000004AFFFFFFFFD82000
0000002BFFFFFFFFFFFFE600
000004EFFFFFFFFFFFFFFF60
00005FFFFFFFFF225CFFFFF2
0003EFFF89FFFF0000CFFFF8
000CFFF50AFFFD00003FFFFC
006FFF800CFFFA00000EFFFE
00EFFD000FFFF800000DFFFE
05FFF5002FFFF600000EFFFD
0AFFE0004FFFF300003FFFF9
0EFFA0007FFFF10000AFFFF4
3FFF60009FFFE00007FFFFB0
5FFF3000BFFFB003AFFFFE20
7FFF11ACEFFFDBDFFFFFE300
9FFF04FFFFFFFFFFFFFC2000
9FFE03FFFFFFFFFFFC500000
AFFE004BFFFFBA8620000000
9FFE0009FFFD000000000000
8FFF000BFFFA000000000000
6FFF200EFFF7000000000000
2FFF402FFFF4000000000000
0DFF805FFFF1000000000000
07FFE2BFFFD0000000000000
00DFFFFFFF90000000000000
003EFFFFFF20000000000000
0003DFFFF500000000000000
000004661000000000000000
ENDCHAR
STARTCHAR germandbls
ENCODING 223
SWIDTH 596 0
DWIDTH 19 0
BBX 23 33 1 -7
BITMAP
000000000466520000000000
00000018EFFFFFB200000000
000003DFFFFFFFFE30000000
00003EFFFFFFFFFFC0000000
0001DFFFC5117FFFF2000000
0009FFFB10000AFFF5000000
002FFFE1000008FFF4000000
008FFF7000000CFFF1000000
00EFFF100000AFFFA0000000
03FFFB00002CFFFD10000000
07FFF70006FFFFC200000000
0AFFF4007FFFF90000000000
0CFFF202FFFF600000000000
0FFFE007FFFC000000000000
1FFFD008FFFE100000000000
3FFFC005FFFFC20000000000
4FFFB000CFFFFE7542000000
4FFFA0005FFFFFFFFFEB7100
5FFFA009FFFFFFFFFFFFFD00
6FFF909FFFC6DFFFFACFFF10
6FFF92FFFA001DFFF6027700
7FFF95FFF40008FFF6000000
7FFF86FFF9002DFFF4000000
7FFF81EFFFEDFFFFC0000000
8FFF805FFFFFFFFC10000000
8FFF80039DFFEB6000000000
9FFF80000000000000000000
9FFF80000000000000000000
9FFF80000000000000000000
9FFF80000000000000000000
9FFF80000000000000000000
8FFF60000000000000000000
057400000000000000000000
ENDCHAR
STARTCHAR agrave
ENCODING 224
SWIDTH 470 0
DWIDTH 15 0
BBX 19 27 1 0
BITMAP
00005610000000000000
0009FFB0000000000000
000DFFF4000000000000
000AFFFB000000000000
0001EFFF300000000000
00004FFFA00000000000
000007FFF20000000000
000000AFF80000000000
0000001CFE0000000000
00000002DB0000000000
00000000000000000000
00000000000000000000
000003ADF90000000000
00009FFFFE9A60000000
001BFFFFFFFFE0000000
00AFFFFD8FFFC0000000
05FFFF702FFFA0000000
0DFFF8006FFF70000000
5FFFD1009FFF40000000
9FFF8000CFFF10000000
CFFF4001FFFE00009D10
DFFF2005FFFC0009FF20
DFFF400CFFFC009FFE00
AFFFD8CFFFFF8CFFF500
5FFFFFFF9FFFFFFF6000
0BFFFFF909FFFFE50000
018DFD60008EEA200000
ENDCHAR
STARTCHAR aacute
ENCODING 225
SWIDTH 470 0
DWIDTH 15 0
BBX 19 27 1 0
BITMAP
00000000000274000000
00000000001DFF700000
00000000006FFFB00000
0000000000DFFF700000
0000000005FFFC100000
000000000CFFE2000000
000000003FFF40000000
00000000AFF700000000
00000001FFA000000000
00000001DC1000000000
00000000000000000000
00000000000000000000
000003ADF90000000000
00009FFFFE9A60000000
001BFFFFFFFFE0000000
00AFFFFD8FFFC0000000
05FFFF702FFFA0000000
0DFFF8006FFF70000000
5FFFD1009FFF40000000
9FFF8000CFFF10000000
CFFF4001FFFE00009D10
DFFF2005FFFC0009FF20
DFFF400CFFFC009FFE00
AFFFD8CFFFFF8CFFF500
5FFFFFFF9FFFFFFF6000
0BFFFFF909FFFFE50000
018DFD60008EEA200000
ENDCHAR
STARTCHAR acircumflex
ENCODING 226
SWIDTH 470 0
DWIDTH 15 0
BBX 19 28 1 0
BITMAP
00000000057300000000
00000001CFFF30000000
00000009FFFF90000000
0000003FFFFFD0000000
000000CFF8EFF2000000
000006FFE1CFF6000000
00001EFF80BFF9000000
00008FFF109FFD000000
0002FFF8007FFF100000
0007FFE1004FFF300000
0004ED50000BEA000000
00000000000000000000
00000000000000000000
000003ADF90000000000
00009FFFFE9A60000000
001BFFFFFFFFE0000000
00AFFFFD8FFFC0000000
05FFFF702FFFA0000000
0DFFF8006FFF70000000
5FFFD1009FFF40000000
9FFF8000CFFF10000000
CFFF4001FFFE00009D10
DFFF2005FFFC0009FF20
DFFF400CFFFC009FFE00
AFFFD8CFFFFF8CFFF500
5FFFFFFF9FFFFFFF6000
0BFFFFF909FFFFE50000
018DFD60008EEA200000
ENDCHAR
STARTCHAR atilde
ENCODING 227
SWIDTH 470 0
DWIDTH 15 0
BBX 19 24 1 0
BITMAP
00000474000000000000
00008FFFB10004EC1000
0005FFFFFE402EFF3000
001EFFEFFFF8BFFD0000
007FFE15EFFFFFF50000
008FF5002CFFFF900000
00174000007DE8000000
00000000000000000000
00000000000000000000
000003ADF90000000000
00009FFFFE9A60000000
001BFFFFFFFFE0000000
00AFFFFD8FFFC0000000
05FFFF702FFFA0000000
0DFFF8006FFF70000000
5FFFD1009FFF40000000
9FFF8000CFFF10000000
CFFF4001FFFE00009D10
DFFF2005FFFC0009FF20
DFFF400CFFFC009FFE00
AFFFD8CFFFFF8CFFF500
5FFFFFFF9FFFFFFF6000
0BFFFFF909FFFFE50000
018DFD60008EEA200000
ENDCHAR
STARTCHAR adieresis
ENCODING 228
SWIDTH 470 0
DWIDTH 15 0
BBX 19 22 1 0
BITMAP
00007EE7001AED300000
0003FFFF208FFFC00000
0006FFFF30BFFFD00000
0005FFFE10AFFFA00000
0000AED4003CEB100000
00000000000000000000
00000000000000000000
000003ADF90000000000
00009FFFFE9A60000000
001BFFFFFFFFE0000000
00AFFFFD8FFFC0000000
05FFFF702FFFA0000000
0DFFF8006FFF70000000
5FFFD1009FFF40000000
9FFF8000CFFF10000000
CFFF4001FFFE00009D10
DFFF2005FFFC0009FF20
DFFF400CFFFC009FFE00
AFFFD8CFFFFF8CFFF500
5FFFFFFF9FFFFFFF6000
0BFFFFF909FFFFE50000
018DFD60008EEA200000
ENDCHAR
STARTCHAR aring
ENCODING 229
SWIDTH 470 0
DWIDTH 15 0
BBX 19 26 1 0
BITMAP
00000007CFD810000000
000000AFFFFFC0000000
000005FFFDFFF6000000
00000BFF506FFA000000
00000DFF002FFB000000
00000CFF407FF9000000
000008FFFDFFF3000000
000001DFFFFF80000000
00000019EEC500000000
00000000000000000000
00000000000000000000
000003ADF90000000000
00009FFFFE9A60000000
001BFFFFFFFFE0000000
00AFFFFD8FFFC0000000
05FFFF702FFFA0000000
0DFFF8006FFF70000000
5FFFD1009FFF40000000
9FFF8000CFFF10000000
CFFF4001FFFE00009D10
DFFF2005FFFC0009FF20
DFFF400CFFFC009FFE00
AFFFD8CFFFFF8CFFF500
5FFFFFFF9FFFFFFF6000
0BFFFFF909FFFFE50000
018DFD60008EEA200000
ENDCHAR
STARTCHAR ae
ENCODING 230
SWIDTH 653 0
DWIDTH 21 0
BBX 24 15 1 0
BITMAP
0000028BEFB039DFE9100000
00009FFFFFF9FFFFFFD10000
002CFFFFFFFFFFFFFFF70000
00CFFFFD9AFFFE99FFFA0000
08FFFE500BFFF400BFFA0000
1FFFF4002FFFB000DFF70000
6FFFA0007FFF6009FFE10000
AFFF5000BFFF67DFFF500012
CFFF3000EFFFFFFFD40003ED
CFFF2004FFFFFEB500004EFF
CFFF500BFFFFE200002AFFFB
9FFFE8BFFFFFFE978BFFFFE2
3FFFFFFFE4EFFFFFFFFFFC20
08FFFFFF504EFFFFFFFF8000
006CFEA300017CEFEB710000
ENDCHAR
STARTCHAR ccedilla
ENCODING 231
SWIDTH 368 0
DWIDTH 12 0
BBX 15 24 1 -9
BITMAP
00005BEFC4000000
001BFFFFFF200000
00CFFFFFFF900000
08FFFE8CFFC00000
2FFFF306FFC00000
8FFFA008FF800000
BFFF5008FD100000
EFFF200020000000
EFFF200000001B90
DFFF40000001CFD0
BFFF9000003CFFB0
6FFFF82139FFFE30
0CFFFFFFFFFFD300
02DFFFFFFFFA1000
002FFFFFF8200000
002DFFFFF6000000
000003BFFD000000
0000002FFF100000
0000003FFF000000
000003CFFC000000
0BFFFFFFF6000000
2FFFFFFFB0000000
0DFFFFE800000000
0156641000000000
ENDCHAR
STARTCHAR egrave
ENCODING 232
SWIDTH 393 0
DWIDTH 13 0
BBX 16 27 1 0
BITMAP
0017500000000000
01DFF60000000000
03FFFE0000000000
01EFFF6000000000
005FFFD000000000
0009FFF400000000
0000BFFB00000000
00001DFF30000000
000003FF90000000
0000005E60000000
0000000000000000
0000000000000000
00006BEFD7000000
001CFFFFFF900000
01DFFFFFFFF20000
09FFFD8BFFF50000
2FFFD101FFF50000
8FFF6003FFF20000
BFFF103DFFB00000
DFFF5AFFFD100021
EFFFFFFFA10006F9
DFFFFD8200008FFA
9FFFB000004DFFF6
4FFFFD879DFFFFB0
0AFFFFFFFFFFF900
01AFFFFFFFFD4000
0004ADEFDA500000
ENDCHAR
STARTCHAR eacute
ENCODING 233
SWIDTH 393 0
DWIDTH 13 0
BBX 16 27 1 0
BITMAP
0000000000472000
0000000004FFE200
000000000BFFF600
000000003FFFF200
00000000AFFF8000
00000002FFFB0000
00000009FFD10000
0000001EFE300000
0000006FF5000000
0000004E80000000
0000000000000000
0000000000000000
00006BEFD7000000
001CFFFFFF900000
01DFFFFFFFF20000
09FFFD8BFFF50000
2FFFD101FFF50000
8FFF6003FFF20000
BFFF103DFFB00000
DFFF5AFFFD100021
EFFFFFFFA10006F9
DFFFFD8200008FFA
9FFFB000004DFFF6
4FFFFD879DFFFFB0
0AFFFFFFFFFFF900
01AFFFFFFFFD4000
0004ADEFDA500000
ENDCHAR
STARTCHAR ecircumflex
ENCODING 234
SWIDTH 393 0
DWIDTH 13 0
BBX 16 28 1 0
BITMAP
0000000266100000
0000004EFFC00000
000001EFFFF40000
000008FFFFF80000
00002FFF8FFC0000
0000BFFB3FFF1000
0004FFF31FFF4000
000DFFB00EFF8000
007FFF300CFFB000
00CFFB0009FFD000
009FB10003DE6000
0000000000000000
0000000000000000
00006BEFD7000000
001CFFFFFF900000
01DFFFFFFFF20000
09FFFD8BFFF50000
2FFFD101FFF50000
8FFF6003FFF20000
BFFF103DFFB00000
DFFF5AFFFD100021
EFFFFFFFA10006F9
DFFFFD8200008FFA
9FFFB000004DFFF6
4FFFFD879DFFFFB0
0AFFFFFFFFFFF900
01AFFFFFFFFD4000
0004ADEFDA500000
ENDCHAR
STARTCHAR edieresis
ENCODING 235
SWIDTH 393 0
DWIDTH 13 0
BBX 16 22 1 0
BITMAP
001AED3003CEB100
008FFFC00DFFF600
00BFFFD01FFFF800
00AFFFA01FFFF500
003CEB1006EE8000
0000000000000000
0000000000000000
00006BEFD7000000
001CFFFFFF900000
01DFFFFFFFF20000
09FFFD8BFFF50000
2FFFD101FFF50000
8FFF6003FFF20000
BFFF103DFFB00000
DFFF5AFFFD100021
EFFFFFFFA10006F9
DFFFFD8200008FFA
9FFFB000004DFFF6
4FFFFD879DFFFFB0
0AFFFFFFFFFFF900
01AFFFFFFFFD4000
0004ADEFDA500000
ENDCHAR
STARTCHAR igrave
ENCODING 236
SWIDTH 246 0
DWIDTH 8 0
BBX 13 27 -1 0
BITMAP
02730000000000
2EFF4000000000
6FFFB000000000
2FFFF300000000
08FFFA00000000
00BFFF20000000
001DFF90000000
0003EFE1000000
00005FF6000000
000008E4000000
00000000000000
00000000000000
00007EE7000000
0001FFFB000000
0006FFF9000000
000AFFF6000000
000DFFF3000000
001FFFF0000000
003FFFC0000000
005FFF90000120
007FFF70002DD0
007FFF6001CFE0
006FFF701CFFB0
004FFFE8DFFE20
001EFFFFFFE300
0008FFFFFD2000
00008DFC710000
ENDCHAR
STARTCHAR iacute
ENCODING 237
SWIDTH 246 0
DWIDTH 8 0
BBX 11 27 1 0
BITMAP
000000057100
0000006FFD10
000000EFFF30
000006FFFE10
00000DFFF500
00004FFF8000
0000BFFB0000
0003FFD10000
0009FF300000
0007E5000000
000000000000
000000000000
007EE7000000
01FFFB000000
06FFF9000000
0AFFF6000000
0DFFF3000000
1FFFF0000000
3FFFC0000000
5FFF90000120
7FFF70002DD0
7FFF6001CFE0
6FFF701CFFB0
4FFFE8DFFE20
1EFFFFFFE300
08FFFFFD2000
008DFC710000
ENDCHAR
STARTCHAR icircumflex
ENCODING 238
SWIDTH 246 0
DWIDTH 8 0
BBX 12 28 0 0
BITMAP
000002760000
00006FFFA000
0002FFFFF100
000BFFFFF500
005FFE8FF900
00DFF85FFD00
07FFE13FFF10
1EFF801FFF50
9FFE100EFF90
FFF8000CFFA0
BFA10005ED40
000000000000
000000000000
0007EE700000
001FFFB00000
006FFF900000
00AFFF600000
00DFFF300000
01FFFF000000
03FFFC000000
05FFF9000012
07FFF70002DD
07FFF6001CFE
06FFF701CFFB
04FFFE8DFFE2
01EFFFFFFE30
008FFFFFD200
0008DFC71000
ENDCHAR
STARTCHAR idieresis
ENCODING 239
SWIDTH 246 0
DWIDTH 8 0
BBX 12 22 0 0
BITMAP
2BEC2005DE90
BFFF901FFFF4
EFFFA04FFFF5
DFFF703FFFF2
4DEA1009ED60
000000000000
000000000000
0007EE700000
001FFFB00000
006FFF900000
00AFFF600000
00DFFF300000
01FFFF000000
03FFFC000000
05FFF9000012
07FFF70002DD
07FFF6001CFE
06FFF701CFFB
04FFFE8DFFE2
01EFFFFFFE30
008FFFFFD200
0008DFC71000
ENDCHAR
STARTCHAR eth
ENCODING 240
SWIDTH 451 0
DWIDTH 14 0
BBX 16 30 1 0
BITMAP
0001AEB200000000
0005FFFD10000130
0000BFFFA0004EF5
00001DFFF608FFF8
000003FFFECFFFE2
0000009FFFFFFE40
0000006FFFFFC200
00004CFFFFFB0000
0009FFFFFFFE1000
000CFFFBBFFF5000
0004EC405FFFA000
000000001FFFE000
000000000DFFF200
000000000BFFF400
0000000009FFF600
00017CFEBBFFF700
002DFFFFFFFFF800
01EFFFFFFFFFF800
0AFFFE97DFFFF700
3FFFE2001BFFF600
8FFF700009FFF500
BFFF30000BFFF200
DFFF10000EFFE000
EFFF20002FFFB000
CFFF40008FFF6000
9FFFB002EFFE1000
4FFFFB8EFFF80000
0BFFFFFFFFC00000
01CFFFFFFC100000
0006CEEC70000000
ENDCHAR
STARTCHAR ntilde
ENCODING 241
SWIDTH 496 0
DWIDTH 16 0
BBX 19 24 1 0
BITMAP
00000275000000000000
00005FFFC20003DD3000
0003FFFFFE600CFF6000
000CFFEFFFFA9FFE2000
004FFF33DFFFFFF70000
006FF8001AFFFFC00000
00065000005DEA100000
00000000000000000000
00000000000000000000
005DF90005BED3000000
02FFF9009FFFFA000000
06FFF609FFFFFB000000
0AFFF26FFFFFF9000000
0DFFD2EFFFFFF7000000
1FFFA9FF49FFF4000000
3FFFAFF80BFFF1000000
5FFFEFE10DFFD0000120
5FFFFF701FFFA0002DD0
6FFFFF104FFF8001CFE0
6FFFFA006FFF701CFFB0
5FFFF5007FFFD8DFFE20
3FFFF1005FFFFFFFE300
0EFFB0001EFFFFFC2000
06ED300003BEEC600000
ENDCHAR
STARTCHAR ograve
ENCODING 242
SWIDTH 451 0
DWIDTH 14 0
BBX 18 27 1 0
BITMAP
002740000000000000
02EFF4000000000000
05FFFC000000000000
02FFFF400000000000
007FFFB00000000000
000AFFF30000000000
0001DFF90000000000
00002EFF2000000000
000005FF7000000000
0000007E4000000000
000000000000000000
000000000000000000
00007CEFD810000000
002DFFFFFFC1000000
01EFFFFFFFFB000000
0AFFFE8EFFFF400000
3FFFE20DFFFF900000
8FFF800BFFFFD89CF7
BFFF3006FFFFFFFFFA
DFFF2000BFFFFFFFF8
EFFF20000EFFFEDA60
CFFF40003FFF600000
9FFFB000BFFF200000
4FFFFB8CFFF9000000
0AFFFFFFFFD1000000
01BFFFFFFC20000000
0006CEEC7100000000
ENDCHAR
STARTCHAR oacute
ENCODING 243
SWIDTH 451 0
DWIDTH 14 0
BBX 18 27 1 0
BITMAP
000000000057200000
0000000006FFE10000
000000000DFFF40000
000000005FFFE10000
00000000CFFF600000
00000004FFF9000000
0000000BFFC0000000
0000002FFE20000000
0000008FF400000000
0000006E6000000000
000000000000000000
000000000000000000
00007CEFD810000000
002DFFFFFFC1000000
01EFFFFFFFFB000000
0AFFFE8EFFFF400000
3FFFE20DFFFF900000
8FFF800BFFFFD89CF7
BFFF3006FFFFFFFFFA
DFFF2000BFFFFFFFF8
EFFF20000EFFFEDA60
CFFF40003FFF600000
9FFFB000BFFF200000
4FFFFB8CFFF9000000
0AFFFFFFFFD1000000
01BFFFFFFC20000000
0006CEEC7100000000
ENDCHAR
STARTCHAR ocircumflex
ENCODING 244
SWIDTH 451 0
DWIDTH 14 0
BBX 18 28 1 0
BITMAP
000000027600000000
0000005FFFA0000000
000002EFFFF2000000
00000AFFFFF6000000
00004FFF8FFA000000
0000CFF94FFE000000
0006FFF23FFF200000
001EFF901FFF600000
009FFF200EFF900000
00EFF9000BFFB00000
00AFA10004ED400000
000000000000000000
000000000000000000
00007CEFD810000000
002DFFFFFFC1000000
01EFFFFFFFFB000000
0AFFFE8EFFFF400000
3FFFE20DFFFF900000
8FFF800BFFFFD89CF7
BFFF3006FFFFFFFFFA
DFFF2000BFFFFFFFF8
EFFF20000EFFFEDA60
CFFF40003FFF600000
9FFFB000BFFF200000
4FFFFB8CFFF9000000
0AFFFFFFFFD1000000
01BFFFFFFC20000000
0006CEEC7100000000
ENDCHAR
STARTCHAR otilde
ENCODING 245
SWIDTH 451 0
DWIDTH 14 0
BBX 18 24 1 0
BITMAP
000166200000000000
002DFFE60000AE7000
00CFFFFFA108FFB000
07FFFEFFFD6FFF6000
0EFF81AFFFFFFC0000
1FFD1006EFFFE30000
047100002BEC300000
000000000000000000
000000000000000000
00007CEFD810000000
002DFFFFFFC1000000
01EFFFFFFFFB000000
0AFFFE8EFFFF400000
3FFFE20DFFFF900000
8FFF800BFFFFD89CF7
BFFF3006FFFFFFFFFA
DFFF2000BFFFFFFFF8
EFFF20000EFFFEDA60
CFFF40003FFF600000
9FFFB000BFFF200000
4FFFFB8CFFF9000000
0AFFFFFFFFD1000000
01BFFFFFFC20000000
0006CEEC7100000000
ENDCHAR
STARTCHAR odieresis
ENCODING 246
SWIDTH 451 0
DWIDTH 14 0
BBX 18 22 1 0
BITMAP
002BEC2004DEA00000
00AFFFA01EFFF50000
00DFFFB03FFFF60000
00CFFF802FFFF30000
004DEA1008ED600000
000000000000000000
000000000000000000
00007CEFD810000000
002DFFFFFFC1000000
01EFFFFFFFFB000000
0AFFFE8EFFFF400000
3FFFE20DFFFF900000
8FFF800BFFFFD89CF7
BFFF3006FFFFFFFFFA
DFFF2000BFFFFFFFF8
EFFF20000EFFFEDA60
CFFF40003FFF600000
9FFFB000BFFF200000
4FFFFB8CFFF9000000
0AFFFFFFFFD1000000
01BFFFFFFC20000000
0006CEEC7100000000
ENDCHAR
STARTCHAR divide
ENCODING 247
SWIDTH 700 0
DWIDTH 22 0
BBX 19 18 2 0
BITMAP
000000007DEA00000000
00000003FFFF50000000
00000006FFFF70000000
00000005FFFF40000000
000000009EE700000000
00000000000000000000
00000000000000000000
02677777777777777300
1EFFFFFFFFFFFFFFFF10
4FFFFFFFFFFFFFFFFF10
1CFFFFFFFFFFFFFFE700
00000000000000000000
00000000000000000000
0000003CEC3000000000
000000CFFFB000000000
000000FFFFD000000000
000000DFFF9000000000
0000004DEB1000000000
ENDCHAR
STARTCHAR oslash
ENCODING 248
SWIDTH 459 0
DWIDTH 15 0
BBX 18 23 1 -4
BITMAP
00000006E800000000
0000000BF900000000
0000000EF600000000
0000001FF300000000
00018DFFF810000000
002DFFFFFFE2000000
02EFFFFFFFFE100000
0AFFFCDFFFFF800000
3FFFC1EF6FFFD00000
8FFF61FF2AFFF569C9
BFFF14FE08FFFFFFFE
DFFF06FC09FFFFFFFC
EFFF09F90AFFFFFC92
DFFF1CF60EFFC10000
AFFF7FF46FFF700000
5FFFFFF9FFFE100000
0CFFFFFFFFF5000000
02DFFFFFFF60000000
0018EFFD9200000000
0000DF600000000000
0001FF300000000000
0004FF100000000000
0004EA000000000000
ENDCHAR
STARTCHAR ugrave
ENCODING 249
SWIDTH 462 0
DWIDTH 15 0
BBX 18 27 1 0
BITMAP
000274000000000000
001EFF500000000000
005FFFC00000000000
002FFFF40000000000
0007FFFB0000000000
0000AFFF3000000000
00001DFFA000000000
000002EFF200000000
0000005FF700000000
00000007E500000000
000000000000000000
000000000000000000
004DFA0001BFD00000
01EFFC0008FFF00000
05FFF8000DFFC00000
09FFF4003FFF900000
0DFFF1008FFF600000
1FFFD000DFFF300000
3FFFA005FFFE000000
5FFF800CFFFC000055
6FFF606FFFF90005FD
7FFF84EFFFF7003EFC
7FFFFFFDFFF602DFF8
5FFFFFF8FFFD8EFFC1
2FFFFFD1EFFFFFFD10
09FFFF509FFFFFB100
01AED5001AFEB50000
ENDCHAR
STARTCHAR uacute
ENCODING 250
SWIDTH 462 0
DWIDTH 15 0
BBX 18 27 1 0
BITMAP
000000000004720000
00000000005FFE1000
0000000000DFFF4000
0000000005FFFE1000
000000000CFFF60000
000000003FFF900000
00000000AFFC000000
00000002FFE2000000
00000008FF40000000
00000006E600000000
000000000000000000
000000000000000000
004DFA0001BFD00000
01EFFC0008FFF00000
05FFF8000DFFC00000
09FFF4003FFF900000
0DFFF1008FFF600000
1FFFD000DFFF300000
3FFFA005FFFE000000
5FFF800CFFFC000055
6FFF606FFFF90005FD
7FFF84EFFFF7003EFC
7FFFFFFDFFF602DFF8
5FFFFFF8FFFD8EFFC1
2FFFFFD1EFFFFFFD10
09FFFF509FFFFFB100
01AED5001AFEB50000
ENDCHAR
STARTCHAR ucircumflex
ENCODING 251
SWIDTH 462 0
DWIDTH 15 0
BBX 18 28 1 0
BITMAP
000000002760000000
00000005FFFB000000
0000002EFFFF200000
000000AFFFFF600000
000004FFF8FFA00000
00000CFF94FFE00000
00006FFF22FFF20000
0001EFF900FFF60000
0008FFF200DFFA0000
000EFF9000BFFB0000
000AFB10004EE40000
000000000000000000
000000000000000000
004DFA0001BFD00000
01EFFC0008FFF00000
05FFF8000DFFC00000
09FFF4003FFF900000
0DFFF1008FFF600000
1FFFD000DFFF300000
3FFFA005FFFE000000
5FFF800CFFFC000055
6FFF606FFFF90005FD
7FFF84EFFFF7003EFC
7FFFFFFDFFF602DFF8
5FFFFFF8FFFD8EFFC1
2FFFFFD1EFFFFFFD10
09FFFF509FFFFFB100
01AED5001AFEB50000
ENDCHAR
STARTCHAR udieresis
ENCODING 252
SWIDTH 462 0
DWIDTH 15 0
BBX 18 22 1 0
BITMAP
0001BEC3004DEA0000
000AFFFA01EFFF5000
000DFFFB03FFFF6000
000CFFF802FFFF3000
0004DEA1008EE70000
000000000000000000
000000000000000000
004DFA0001BFD00000
01EFFC0008FFF00000
05FFF8000DFFC00000
09FFF4003FFF900000
0DFFF1008FFF600000
1FFFD000DFFF300000
3FFFA005FFFE000000
5FFF800CFFFC000055
6FFF606FFFF90005FD
7FFF84EFFFF7003EFC
7FFFFFFDFFF602DFF8
5FFFFFF8FFFD8EFFC1
2FFFFFD1EFFFFFFD10
09FFFF509FFFFFB100
01AED5001AFEB50000
ENDCHAR
STARTCHAR yacute
ENCODING 253
SWIDTH 479 0
DWIDTH 15 0
BBX 20 42 -1 -15
BITMAP
00000000000004720000
0000000000005FFE1000
000000000000DFFF4000
000000000005FFFE1000
00000000000CFFF60000
00000000003FFF900000
0000000000AFFC000000
0000000002FFE2000000
0000000008FF40000000
0000000006E600000000
00000000000000000000
00000000000000000000
00004DFA0001BFD00000
0001EFFC0008FFF00000
0005FFF8000DFFD00000
0009FFF4003FFFA00000
000DFFF1008FFF800000
001FFFD000DFFF500000
003FFFA005FFFF200000
005FFF700CFFFF000053
006FFF606FFFFC002CFB
007FFF84EFFFFA06EFFB
007FFFFFFEFFF8AFFFF5
005FFFFFFAFFFFFFFD30
002FFFFFE6FFFFFF9100
0009FFFF67FFFFE40000
0001AED51CFFFA100000
00000003DFFFB0000000
0000004EFFFF70000000
000005FFFFFF40000000
00004FFFCFFF10000000
0003EFF79FFC00000000
001DFF70DFF900000000
00AFFA02FFF400000000
03FFE107FFE000000000
09FF700CFFA000000000
0EFF204FFF4000000000
1FFF10CFFC0000000000
1FFFABFFF40000000000
0EFFFFFFA00000000000
06FFFFFC100000000000
006DFD70000000000000
ENDCHAR
STARTCHAR thorn
ENCODING 254
SWIDTH 508 0
DWIDTH 16 0
BBX 21 37 0 -11
BITMAP
0000047400000000000000
00006FFF40000000000000
0000DFFF50000000000000
0001FFFF10000000000000
0004FFFD00000000000000
0007FFF900000000000000
000AFFF600000000000000
000DFFF300000000000000
001FFFF000000000000000
003FFFC000000000000000
006FFF9000000000000000
008FFF6005CFD500000000
00BFFF309FFFFF40000000
00DFFF18FFFFFFB0000000
00FFFD4FFFFFFFF0000000
02FFFBDFD34FFFF1000000
04FFFEFF300FFFF0000000
05FFFFF8000FFFE0000000
07FFFFE1002FFFB0000400
09FFFF80007FFF7000AF40
0AFFFF2002EFFE1008FF50
0BFFFB002DFFF7008FFF20
0CFFF739FFFFF98DFFF600
0DFFFFFFFFFFFFFFFF7000
0EFFFFFFFECFFFFFE50000
0FFFFFFB6119EFD9200000
1FFFD20000000000000000
1FFFC00000000000000000
2FFFB00000000000000000
2FFFB00000000000000000
3FFFB00000000000000000
3FFFB00000000000000000
3FFFB00000000000000000
3FFFB00000000000000000
3FFFB00000000000000000
2FFF800000000000000000
0375000000000000000000
ENDCHAR
STARTCHAR ydieresis
ENCODING 255
SWIDTH 479 0
DWIDTH 15 0
BBX 20 37 -1 -15
BITMAP
000001BEC3004DEA0000
00000AFFFA01EFFF5000
00000DFFFB03FFFF6000
00000CFFF802FFFF3000
000004DEA1008EE70000
00000000000000000000
00000000000000000000
00004DFA0001BFD00000
0001EFFC0008FFF00000
0005FFF8000DFFD00000
0009FFF4003FFFA00000
000DFFF1008FFF800000
001FFFD000DFFF500000
003FFFA005FFFF200000
005FFF700CFFFF000053
006FFF606FFFFC002CFB
007FFF84EFFFFA06EFFB
007FFFFFFEFFF8AFFFF5
005FFFFFFAFFFFFFFD30
002FFFFFE6FFFFFF9100
0009FFFF67FFFFE40000
0001AED51CFFFA100000
00000003DFFFB0000000
0000004EFFFF70000000
000005FFFFFF40000000
00004FFFCFFF10000000
0003EFF79FFC00000000
001DFF70DFF900000000
00AFFA02FFF400000000
03FFE107FFE000000000
09FF700CFFA000000000
0EFF204FFF4000000000
1FFF10CFFC0000000000
1FFFABFFF40000000000
0EFFFFFFA00000000000
06FFFFFC100000000000
006DFD70000000000000
ENDCHAR
STARTCHAR Amacron
ENCODING 256
SWIDTH 786 0
DWIDTH 25 0
BBX 29 33 1 0
BITMAP
000000000000016777777750000000
0000000000000AFFFFFFFFF4000000
0000000000000DFFFFFFFFF5000000
00000000000008FFFFFFFFB0000000
000000000000000000000000000000
000000000000000000000000000000
000000000000158BDEFEDCA8400000
00000000004BFFFFFFFFFFFFFA0000
000000003BFFFFFFFFFFFFFFFC0000
00000007FFFFFFEB8778ACFFE40000
0000009FFFFFA40000000003100000
000009FFFFD400000039A700000000
00007FFFFC10000001EFFF50000000
0003FFFFD100000004FFFF50000000
000CFFFF3000000007FFFF20000000
005FFFF8000000000AFFFD00000000
00BFFFE1000000000DFFFA00000000
02FFFF90000000001FFFF600000000
07FFFF40000000005FFFF300000000
0BFFFF00000000009FFFF100000000
0DFFFC0000000000DFFFD000000000
1FFFFA0000000002FFFFA000000000
2FFFF80000000007FFFF8000000000
3FFFF8000000000CFFFF6000000000
3FFFF8000000003FFFFF4000000000
2FFFFA00000000AFFFFF3000000000
0EFFFD00000003FFFFFF3000008E20
0AFFFF4000001DFFFFFF400007FF40
05FFFFD20001CFFCFFFF90007FFF10
00BFFFFE979EFFD2FFFFFA8CFFF600
002DFFFFFFFFFE30AFFFFFFFFF7000
0002CFFFFFFFD3001DFFFFFFE50000
000005BEFEB60000018DFEC8200000
ENDCHAR
STARTCHAR amacron
ENCODING 257
SWIDTH 470 0
DWIDTH 15 0
BBX 19 21 1 0
BITMAP
00002677777773000000
0001EFFFFFFFFE000000
0003FFFFFFFFFF000000
0000CFFFFFFFE7000000
00000000000000000000
00000000000000000000
000003ADF90000000000
00009FFFFE9A60000000
001BFFFFFFFFE0000000
00AFFFFD8FFFC0000000
05FFFF702FFFA0000000
0DFFF8006FFF70000000
5FFFD1009FFF40000000
9FFF8000CFFF10000000
CFFF4001FFFE00009D10
DFFF2005FFFC0009FF20
DFFF400CFFFC009FFE00
AFFFD8CFFFFF8CFFF500
5FFFFFFF9FFFFFFF6000
0BFFFFF909FFFFE50000
018DFD60008EEA200000
ENDCHAR
STARTCHAR Abreve
ENCODING 258
SWIDTH 786 0
DWIDTH 25 0
BBX 29 35 1 0
BITMAP
0000000000007ED30000007ED10000
000000000000FFFD100008FFF30000
000000000000CFFFD978CFFFD00000
0000000000005FFFFFFFFFFF500000
00000000000006EFFFFFFFE5000000
0000000000000028CEFEB710000000
000000000000000000000000000000
000000000000000000000000000000
000000000000158BDEFEDCA8400000
00000000004BFFFFFFFFFFFFFA0000
000000003BFFFFFFFFFFFFFFFC0000
00000007FFFFFFEB8778ACFFE40000
0000009FFFFFA40000000003100000
000009FFFFD400000039A700000000
00007FFFFC10000001EFFF50000000
0003FFFFD100000004FFFF50000000
000CFFFF3000000007FFFF20000000
005FFFF8000000000AFFFD00000000
00BFFFE1000000000DFFFA00000000
02FFFF90000000001FFFF600000000
07FFFF40000000005FFFF300000000
0BFFFF00000000009FFFF100000000
0DFFFC0000000000DFFFD000000000
1FFFFA0000000002FFFFA000000000
2FFFF80000000007FFFF8000000000
3FFFF8000000000CFFFF6000000000
3FFFF8000000003FFFFF4000000000
2FFFFA00000000AFFFFF3000000000
0EFFFD00000003FFFFFF3000008E20
0AFFFF4000001DFFFFFF400007FF40
05FFFFD20001CFFCFFFF90007FFF10
00BFFFFE979EFFD2FFFFFA8CFFF600
002DFFFFFFFFFE30AFFFFFFFFF7000
0002CFFFFFFFD3001DFFFFFFE50000
000005BEFEB60000018DFEC8200000
ENDCHAR
STARTCHAR abreve
ENCODING 259
SWIDTH 470 0
DWIDTH 15 0
BBX 19 24 1 0
BITMAP
000AEB0000000BE80000
003FFF6000008FFD0000
002FFFD20005FFFB0000
000DFFFE97AFFFF50000
0004FFFFFFFFFF900000
00006EFFFFFFF8000000
0000028CEED930000000
00000000000000000000
00000000000000000000
000003ADF90000000000
00009FFFFE9A60000000
001BFFFFFFFFE0000000
00AFFFFD8FFFC0000000
05FFFF702FFFA0000000
0DFFF8006FFF70000000
5FFFD1009FFF40000000
9FFF8000CFFF10000000
CFFF4001FFFE00009D10
DFFF2005FFFC0009FF20
DFFF400CFFFC009FFE00
AFFFD8CFFFFF8CFFF500
5FFFFFFF9FFFFFFF6000
0BFFFFF909FFFFE50000
018DFD60008EEA200000
ENDCHAR
STARTCHAR Aogonek
ENCODING 260
SWIDTH 786 0
DWIDTH 25 0
BBX 29 35 1 -8
BITMAP
000000000000158BDEFEDCA8400000
00000000004BFFFFFFFFFFFFFA0000
000000003BFFFFFFFFFFFFFFFC0000
00000007FFFFFFEB8778ACFFE40000
0000009FFFFFA40000000003100000
000009FFFFD400000039A700000000
00007FFFFC10000001EFFF50000000
0003FFFFD100000004FFFF50000000
000CFFFF3000000007FFFF20000000
005FFFF8000000000AFFFD00000000
00BFFFE1000000000DFFFA00000000
02FFFF90000000001FFFF600000000
07FFFF40000000005FFFF300000000
0BFFFF00000000009FFFF100000000
0DFFFC0000000000DFFFD000000000
1FFFFA0000000002FFFFA000000000
2FFFF80000000007FFFF8000000000
3FFFF8000000000CFFFF6000000000
3FFFF8000000003FFFFF4000000000
2FFFFA00000000AFFFFF3000000000
0EFFFD00000003FFFFFF3000008E20
0AFFFF4000001DFFFFFF400007FF40
05FFFFD20001CFFCFFFF90007FFF10
00BFFFFE979EFFD2FFFFFA8CFFF500
002DFFFFFFFFFE30AFFFFFFFFE4000
0002CFFFFFFFD3001DFFFFFFC30000
000005BEFEB60000019FFFF7000000
000000000000000001CFFC20000000
000000000000000008FFC000000000
00000000000000000DFF7000000000
00000000000000000FFF9000000000
00000000000000000EFFFA79C40000
000000000000000009FFFFFFF80000
000000000000000001DFFFFFF50000
00000000000000000018DFEC600000
ENDCHAR
STARTCHAR aogonek
ENCODING 261
SWIDTH 470 0
DWIDTH 15 0
BBX 19 23 1 -8
BITMAP
000003ADF90000000000
00009FFFFE9A60000000
001BFFFFFFFFE0000000
00AFFFFD8FFFC0000000
05FFFF702FFFA0000000
0DFFF8006FFF70000000
5FFFD1009FFF40000000
9FFF8000CFFF10000100
CFFF4001FFFE0001CE10
DFFF2005FFFC001BFF20
DFFF400CFFFC02CFFE00
AFFFD8CFFFFFCEFFF500
5FFFFFFF9FFFFFFF6000
0BFFFFF90AFFFFE40000
018DFD602DFFF9100000
00000001DFFD40000000
00000007FFD200000000
0000000DFF6000000000
0000000FFF5000000000
0000000EFFC213510000
00000009FFFFFFF60000
00000001DFFFFFF40000
0000000017BDDA400000
ENDCHAR
STARTCHAR Cacute
ENCODING 262
SWIDTH 686 0
DWIDTH 22 0
BBX 24 37 2 0
BITMAP
000000000000000000165000
000000000000000002DFF900
00000000000000004EFFFE00
0000000000000006FFFFFA00
000000000000008FFFFF9100
0000000000000AFFFFA30000
0000000000007FFFB3000000
0000000000005EB300000000
000000000000000000000000
000000000000000000000000
0000000016ADEFEC81000000
00000017EFFFFFFFFE500000
000003DFFFFFFFFFFFF40000
00004EFFFFEA88BFFFFC0000
0003EFFFF8100006FFFF3000
001DFFFF50000000EFFF5000
009FFFF600000000DFFF6000
02FFFFB000000000EFFF5000
09FFFF3000000001FFFF2000
0EFFFB0000000001FFFB0000
4FFFF600000000005A810000
8FFFF2000000000000000000
AFFFE0000000000000000000
CFFFD0000000000000000000
DFFFC0000000000000000000
EFFFB0000000000000000000
EFFFC0000000000000000000
DFFFE0000000000000000000
AFFFF3000000000000000000
6FFFF9000000000000000000
1FFFFF300000000000000000
08FFFFD200000000000016B8
01DFFFFE710000000159EFFE
002EFFFFFFB98789CFFFFFFB
0002CFFFFFFFFFFFFFFFFFC2
000006DFFFFFFFFFFFFFA500
000000048BDEFEECA7410000
ENDCHAR
STARTCHAR cacute
ENCODING 263
SWIDTH 368 0
DWIDTH 12 0
BBX 15 27 1 0
BITMAP
0000000000571000
0000000006FFD100
000000000DFFF300
000000006FFFE100
00000000CFFF5000
00000004FFF90000
0000000BFFB00000
0000003FFD100000
0000009FF3000000
0000007E60000000
0000000000000000
0000000000000000
00005BEFC4000000
001BFFFFFF200000
01CFFFFFFF900000
09FFFE8CFFC00000
2FFFF306FFB00000
8FFF9008FF700000
CFFF4006EA100000
EFFF200000000110
EFFF200000003EB0
DFFF50000004EFD0
BFFFC100018FFFA0
6FFFFD97AEFFFD20
0CFFFFFFFFFFD200
01CFFFFFFFF80000
0006BEFDB7100000
ENDCHAR
STARTCHAR Ccircumflex
ENCODING 264
SWIDTH 686 0
DWIDTH 22 0
BBX 24 38 2 0
BITMAP
0000000000004CED50000000
000000000004FFFFE2000000
00000000001EFFFFF8000000
00000000009FFFBFFD000000
0000000004FFFA4FFF400000
000000001DFFF20EFFA00000
000000008FFF800AFFF00000
00000000DFFE1006FFF10000
000000007ED30001BE800000
000000000000000000000000
000000000000000000000000
0000000016ADEFEC81000000
00000017EFFFFFFFFE500000
000003DFFFFFFFFFFFF40000
00004EFFFFEA88BFFFFC0000
0003EFFFF8100006FFFF3000
001DFFFF50000000EFFF5000
009FFFF600000000DFFF6000
02FFFFB000000000EFFF5000
09FFFF3000000001FFFF2000
0EFFFB0000000001FFFB0000
4FFFF600000000005A810000
8FFFF2000000000000000000
AFFFE0000000000000000000
CFFFD0000000000000000000
DFFFC0000000000000000000
EFFFB0000000000000000000
EFFFC0000000000000000000
DFFFE0000000000000000000
AFFFF3000000000000000000
6FFFF9000000000000000000
1FFFFF300000000000000000
08FFFFD200000000000016B8
01DFFFFE710000000159EFFE
002EFFFFFFB98789CFFFFFFB
0002CFFFFFFFFFFFFFFFFFC2
000006DFFFFFFFFFFFFFA500
000000048BDEFEECA7410000
ENDCHAR
STARTCHAR ccircumflex
ENCODING 265
SWIDTH 368 0
DWIDTH 12 0
BBX 15 28 1 0
BITMAP
0000000276000000
0000005FFFA00000
000002FFFFF20000
00000BFFFFF60000
00004FFE8FF90000
0000DFF85FFD0000
0007FFE13FFF2000
001EFF801FFF5000
009FFF100EFF9000
00FFF8000CFFA000
00BFA10005ED4000
0000000000000000
0000000000000000
00005BEFC4000000
001BFFFFFF200000
01CFFFFFFF900000
09FFFE8CFFC00000
2FFFF306FFB00000
8FFF9008FF700000
CFFF4006EA100000
EFFF200000000110
EFFF200000003EB0
DFFF50000004EFD0
BFFFC100018FFFA0
6FFFFD97AEFFFD20
0CFFFFFFFFFFD200
01CFFFFFFFF80000
0006BEFDB7100000
ENDCHAR
STARTCHAR Cdotaccent
ENCODING 266
SWIDTH 686 0
DWIDTH 22 0
BBX 24 34 2 0
BITMAP
0000000000019EEA10000000
00000000000AFFFFA0000000
00000000000FFFFFB0000000
00000000000DFFFF70000000
000000000003CED800000000
000000000000000000000000
000000000000000000000000
0000000016ADEFEC81000000
00000017EFFFFFFFFE500000
000003DFFFFFFFFFFFF40000
00004EFFFFEA88BFFFFC0000
0003EFFFF8100006FFFF3000
001DFFFF50000000EFFF5000
009FFFF600000000DFFF6000
02FFFFB000000000EFFF5000
09FFFF3000000001FFFF2000
0EFFFB0000000001FFFB0000
4FFFF600000000005A810000
8FFFF2000000000000000000
AFFFE0000000000000000000
CFFFD0000000000000000000
DFFFC0000000000000000000
EFFFB0000000000000000000
EFFFC0000000000000000000
DFFFE0000000000000000000
AFFFF3000000000000000000
6FFFF9000000000000000000
1FFFFF300000000000000000
08FFFFD200000000000016B8
01DFFFFE710000000159EFFE
002EFFFFFFB98789CFFFFFFB
0002CFFFFFFFFFFFFFFFFFC2
000006DFFFFFFFFFFFFFA500
000000048BDEFEECA7410000
ENDCHAR
STARTCHAR cdotaccent
ENCODING 267
SWIDTH 368 0
DWIDTH 12 0
BBX 15 22 1 0
BITMAP
000002AEE8000000
00000DFFFF500000
00002FFFFF700000
00001FFFFF300000
000005DFC5000000
0000000000000000
0000000000000000
00005BEFC4000000
001BFFFFFF200000
01CFFFFFFF900000
09FFFE8CFFC00000
2FFFF306FFB00000
8FFF9008FF700000
CFFF4006EA100000
EFFF200000000110
EFFF200000003EB0
DFFF50000004EFD0
BFFFC100018FFFA0
6FFFFD97AEFFFD20
0CFFFFFFFFFFD200
01CFFFFFFFF80000
0006BEFDB7100000
ENDCHAR
STARTCHAR Ccaron
ENCODING 268
SWIDTH 686 0
DWIDTH 22 0
BBX 24 37 2 0
BITMAP
0000000008EC10002CF80000
000000000DFF8000BFFC0000
000000000AFFD006FFF50000
0000000003FFF41EFF900000
0000000000AFFAAFFD100000
00000000002FFFFFF3000000
000000000009FFFF60000000
000000000000AED600000000
000000000000000000000000
000000000000000000000000
0000000016ADEFEC81000000
00000017EFFFFFFFFE500000
000003DFFFFFFFFFFFF40000
00004EFFFFEA88BFFFFC0000
0003EFFFF8100006FFFF3000
001DFFFF50000000EFFF5000
009FFFF600000000DFFF6000
02FFFFB000000000EFFF5000
09FFFF3000000001FFFF2000
0EFFFB0000000001FFFB0000
4FFFF600000000005A810000
8FFFF2000000000000000000
AFFFE0000000000000000000
CFFFD0000000000000000000
DFFFC0000000000000000000
EFFFB0000000000000000000
EFFFC0000000000000000000
DFFFE0000000000000000000
AFFFF3000000000000000000
6FFFF9000000000000000000
1FFFFF300000000000000000
08FFFFD200000000000016B8
01DFFFFE710000000159EFFE
002EFFFFFFB98789CFFFFFFB
0002CFFFFFFFFFFFFFFFFFC2
000006DFFFFFFFFFFFFFA500
000000048BDEFEECA7410000
ENDCHAR
STARTCHAR ccaron
ENCODING 269
SWIDTH 368 0
DWIDTH 12 0
BBX 15 28 1 0
BITMAP
0000571000027400
0006FFB0002EFF20
0008FFE000AFFE00
0005FFF103FFF600
0002FFF30AFFD000
0000DFF53FFF4000
00009FF7AFFA0000
00006FFCFFF20000
00002FFFFF800000
00000CFFFD100000
000003DEB2000000
0000000000000000
0000000000000000
00005BEFC4000000
001BFFFFFF200000
01CFFFFFFF900000
09FFFE8CFFC00000
2FFFF306FFB00000
8FFF9008FF700000
CFFF4006EA100000
EFFF200000000110
EFFF200000003EB0
DFFF50000004EFD0
BFFFC100018FFFA0
6FFFFD97AEFFFD20
0CFFFFFFFFFFD200
01CFFFFFFFF80000
0006BEFDB7100000
ENDCHAR
STARTCHAR Dcaron
ENCODING 270
SWIDTH 836 0
DWIDTH 27 0
BBX 26 37 1 0
BITMAP
000000000AFA00003DE5000000
000000001FFF4001EFF9000000
000000000DFFA009FFE2000000
0000000006FFF14FFF60000000
0000000000DFF7DFFA00000000
00000000005FFFFFD100000000
00000000000CFFFF3000000000
000000000002CFC30000000000
00000000000000000000000000
00000000000000000000000000
000000269CDEFEDB8500000000
00027CFFFFFFFFFFFFE8100000
018EFFFFFFFFFFFFFFFFD40000
2DFFFFFFEA9878BEFFFFFF4000
7FFFFD72000000005DFFFFE200
7FFC40000000000001BFFFFB00
1850002673000000001DFFFF30
000003FFFF2000000005FFFF90
000009FFFE0000000000EFFFD0
00000DFFFA0000000000BFFFF0
00001FFFF600000000009FFFF1
00005FFFF200000000009FFFF2
00009FFFE00000000000AFFFF1
0000CFFFA00000000000BFFFF0
0000FFFF700000000000DFFFD0
0003FFFF400000000001FFFFB0
0006FFFF200000000005FFFF70
0009FFFE00000000000BFFFF20
000BFFFC00000000003FFFFB00
000EFFF90000000000CFFFF400
001FFFF70000000009FFFFA000
003FFFF500000001AFFFFD1000
005FFFF40000017EFFFFE20000
007FFFF97789CFFFFFFC200000
007FFFFFFFFFFFFFFF80000000
005FFFFFFFFFFFFE8200000000
0005ACDEFFEDA8400000000000
ENDCHAR
STARTCHAR dcaron
ENCODING 271
SWIDTH 470 0
DWIDTH 15 0
BBX 21 30 1 0
BITMAP
0000000000000000014200
00000000000000003EFE20
00000000000000007FFF50
000000000002CFD39FFF20
00000000000BFFF79FFC00
00000000000EFFF5AFF700
00000000002FFFF2BFF200
00000000004FFFD07E8000
00000000006FFFA0000000
00000000008FFF70000000
0000000000AFFF40000000
0000000000CFFF10000000
0000000000EFFE00000000
0000000001FFFB00000000
0000000003FFF800000000
000004ADEAFFF500000000
00009FFFFFFFF200000000
001BFFFFFFFFE000000000
00AFFFFD8FFFC000000000
05FFFF702FFF9000000000
0DFFF8006FFF6000000000
5FFFD1009FFF4000000000
9FFF8000CFFF1000000000
CFFF4001FFFE00009D1000
DFFF2005FFFC0009FF2000
DFFF400CFFFC009FFE0000
AFFFD8CFFFFF8CFFF50000
5FFFFFFF9FFFFFFF600000
0BFFFFF909FFFFE5000000
018DFD60008EEA20000000
ENDCHAR
STARTCHAR Dcroat
ENCODING 272
SWIDTH 821 0
DWIDTH 26 0
BBX 26 27 0 0
BITMAP
000000003ACEFFEDB840000000
00000001EFFFFFFFFFFD500000
00000006FFFFFFFFFFFFFA1000
0000000BFFFC778BFFFFFFC100
0000001FFFF6000018FFFFFA00
0000005FFFF20000004EFFFF40
000000AFFFC000000005FFFFC0
000000EFFF8000000000CFFFF2
000003FFFF40000000007FFFF6
000007FFFE00000000003FFFF8
00000BFFFB00000000001FFFFA
07DEFFFFFFFFFED600000FFFFA
5FFFFFFFFFFFFFFE00001FFFFA
6FFFFFFFFFFFFFFC00002FFFF9
0577DFFFD777776100004FFFF6
0000DFFF9000000000008FFFF4
0001FFFF700000000000CFFFE0
0003FFFF400000000003FFFFA0
0006FFFF20000000000AFFFF30
0008FFFE00000000005FFFFB00
000AFFFD0000000004EFFFE200
000CFFFB000000006EFFFF5000
000EFFF90000004BFFFFF70000
001FFFFC7778BEFFFFFF500000
002FFFFFFFFFFFFFFFB2000000
001EFFFFFFFFFFFFB400000000
00038BDEFFEDC9610000000000
ENDCHAR
STARTCHAR dcroat
ENCODING 273
SWIDTH 470 0
DWIDTH 15 0
BBX 19 27 1 0
BITMAP
000000000003CFD30000
00000000000CFFF70000
00000000000FFFF50000
00000000002FFFF20000
00000000005FFFE00000
00007EFFFFFFFFFF6000
0000DFFFFFFFFFFF9000
0000CFFFFFFFFFFD3000
0000267777EFFF500000
0000000000EFFE000000
0000000001FFFB000000
0000000003FFF8000000
000004ADEAFFF5000000
00009FFFFFFFF2000000
001BFFFFFFFFE0000000
00AFFFFD8FFFC0000000
05FFFF702FFF90000000
0DFFF8006FFF60000000
5FFFD1009FFF40000000
9FFF8000CFFF10000000
CFFF4001FFFE00009D10
DFFF2005FFFC0009FF20
DFFF400CFFFC009FFE00
AFFFD8CFFFFF8CFFF500
5FFFFFFF9FFFFFFF6000
0BFFFFF909FFFFE50000
018DFD60008EEA200000
ENDCHAR
STARTCHAR Emacron
ENCODING 274
SWIDTH 686 0
DWIDTH 22 0
BBX 25 33 1 0
BITMAP
00000000016777777750000000
000000000BFFFFFFFFF4000000
000000000DFFFFFFFFF4000000
0000000008FFFFFFFFB0000000
00000000000000000000000000
00000000000000000000000000
00000000159CDFEEB820000000
00000018FFFFFFFFFFF8000000
000004EFFFFFFFFFFFFF900000
00005FFFFFFB877AEFFFF40000
0002EFFFF91000002EFFF90000
0008FFFF8000000008FFFB0000
000CFFFF1000000007FFFB0000
000DFFFD0000000009FFF90000
000BFFFE000000000BFFF40000
0007FFFF8000000005EF900000
0001DFFFFB5200000000000000
00001BFFFFFFFE200000000000
0000029FFFFFFF500000000000
0002AFFFFFFFFF200000000000
006FFFFFFC9873000000000000
06FFFFE7100000000000000000
2FFFFD20000000000000000000
9FFFF400000000000000000000
DFFFD000000000000000000000
FFFFC000000000000000000000
FFFFE000000000000000000000
CFFFF700000000000000017C90
6FFFFF92000000000037BFFFE0
0BFFFFFFDA87789ADFFFFFFFB0
01AFFFFFFFFFFFFFFFFFFFFC20
0004BFFFFFFFFFFFFFFFEA5000
00000269CDEFFEECA963000000
ENDCHAR
STARTCHAR emacron
ENCODING 275
SWIDTH 393 0
DWIDTH 13 0
BBX 16 21 1 0
BITMAP
0004777777761000
005FFFFFFFFF9000
008FFFFFFFFFA000
003EFFFFFFFD3000
0000000000000000
0000000000000000
00006BEFD7000000
001CFFFFFF900000
01DFFFFFFFF20000
09FFFD8BFFF50000
2FFFD101FFF50000
8FFF6003FFF20000
BFFF103DFFB00000
DFFF5AFFFD100021
EFFFFFFFA10006F9
DFFFFD8200008FFA
9FFFB000004DFFF6
4FFFFD879DFFFFB0
0AFFFFFFFFFFF900
01AFFFFFFFFD4000
0004ADEFDA500000
ENDCHAR
STARTCHAR Ebreve
ENCODING 276
SWIDTH 686 0
DWIDTH 22 0
BBX 25 35 1 0
BITMAP
000000008ED30000008EC10000
00000000FFFD100008FFF30000
00000000DFFFD878CFFFD00000
000000005FFFFFFFFFFF400000
0000000006FFFFFFFFE4000000
000000000028CEFDB610000000
00000000000000000000000000
00000000000000000000000000
00000000159CDFEEB820000000
00000018FFFFFFFFFFF8000000
000004EFFFFFFFFFFFFF900000
00005FFFFFFB877AEFFFF40000
0002EFFFF91000002EFFF90000
0008FFFF8000000008FFFB0000
000CFFFF1000000007FFFB0000
000DFFFD0000000009FFF90000
000BFFFE000000000BFFF40000
0007FFFF8000000005EF900000
0001DFFFFB5200000000000000
00001BFFFFFFFE200000000000
0000029FFFFFFF500000000000
0002AFFFFFFFFF200000000000
006FFFFFFC9873000000000000
06FFFFE7100000000000000000
2FFFFD20000000000000000000
9FFFF400000000000000000000
DFFFD000000000000000000000
FFFFC000000000000000000000
FFFFE000000000000000000000
CFFFF700000000000000017C90
6FFFFF92000000000037BFFFE0
0BFFFFFFDA87789ADFFFFFFFB0
01AFFFFFFFFFFFFFFFFFFFFC20
0004BFFFFFFFFFFFFFFFEA5000
00000269CDEFFEECA963000000
ENDCHAR
STARTCHAR ebreve
ENCODING 277
SWIDTH 393 0
DWIDTH 13 0
BBX 16 24 1 0
BITMAP
02CE70000003DE30
08FFE100000DFF80
07FFFA0000AFFF50
03FFFFC88CFFFE10
009FFFFFFFFFF400
000AFFFFFFFE5000
00004ADFEC710000
0000000000000000
0000000000000000
00006BEFD7000000
001CFFFFFF900000
01DFFFFFFFF20000
09FFFD8BFFF50000
2FFFD101FFF50000
8FFF6003FFF20000
BFFF103DFFB00000
DFFF5AFFFD100021
EFFFFFFFA10006F9
DFFFFD8200008FFA
9FFFB000004DFFF6
4FFFFD879DFFFFB0
0AFFFFFFFFFFF900
01AFFFFFFFFD4000
0004ADEFDA500000
ENDCHAR
STARTCHAR Edotaccent
ENCODING 278
SWIDTH 686 0
DWIDTH 22 0
BBX 25 34 1 0
BITMAP
0000000000004CED6000000000
000000000002FFFFF300000000
000000000006FFFFF400000000
000000000004FFFFE100000000
0000000000007DEB3000000000
00000000000000000000000000
00000000000000000000000000
00000000159CDFEEB820000000
00000018FFFFFFFFFFF8000000
000004EFFFFFFFFFFFFF900000
00005FFFFFFB877AEFFFF40000
0002EFFFF91000002EFFF90000
0008FFFF8000000008FFFB0000
000CFFFF1000000007FFFB0000
000DFFFD0000000009FFF90000
000BFFFE000000000BFFF40000
0007FFFF8000000005EF900000
0001DFFFFB5200000000000000
00001BFFFFFFFE200000000000
0000029FFFFFFF500000000000
0002AFFFFFFFFF200000000000
006FFFFFFC9873000000000000
06FFFFE7100000000000000000
2FFFFD20000000000000000000
9FFFF400000000000000000000
DFFFD000000000000000000000
FFFFC000000000000000000000
FFFFE000000000000000000000
CFFFF700000000000000017C90
6FFFFF92000000000037BFFFE0
0BFFFFFFDA87789ADFFFFFFFB0
01AFFFFFFFFFFFFFFFFFFFFC20
0004BFFFFFFFFFFFFFFFEA5000
00000269CDEFFEECA963000000
ENDCHAR
STARTCHAR edotaccent
ENCODING 279
SWIDTH 393 0
DWIDTH 13 0
BBX 16 22 1 0
BITMAP
0000019EEA100000
00000BFFFF800000
00000FFFFF900000
00000DFFFF500000
000003CED7000000
0000000000000000
0000000000000000
00006BEFD7000000
001CFFFFFF900000
01DFFFFFFFF20000
09FFFD8BFFF50000
2FFFD101FFF50000
8FFF6003FFF20000
BFFF103DFFB00000
DFFF5AFFFD100021
EFFFFFFFA10006F9
DFFFFD8200008FFA
9FFFB000004DFFF6
4FFFFD879DFFFFB0
0AFFFFFFFFFFF900
01AFFFFFFFFD4000
0004ADEFDA500000
ENDCHAR
STARTCHAR Eogonek
ENCODING 280
SWIDTH 686 0
DWIDTH 22 0
BBX 25 36 1 -9
BITMAP
00000000159CDFEEB820000000
00000018FFFFFFFFFFF8000000
000004EFFFFFFFFFFFFF900000
00005FFFFFFB877AEFFFF40000
0002EFFFF91000002EFFF90000
0008FFFF8000000008FFFB0000
000CFFFF1000000007FFFB0000
000DFFFD0000000009FFF90000
000BFFFE000000000BFFF40000
0007FFFF8000000005EF900000
0001DFFFFB5200000000000000
00001BFFFFFFFE200000000000
0000019FFFFFFF500000000000
0002AFFFFFFFFF200000000000
006FFFFFFC9873000000000000
06FFFFE7100000000000000000
2FFFFD20000000000000000000
8FFFF400000000000000000000
DFFFD000000000000000000000
FFFFC000000000000000000000
FFFFE000000000000000000000
CFFFF700000000000000017C90
6FFFFF92000000000037BFFFE0
0CFFFFFFDA87789ADFFFFFFFB0
01BFFFFFFFFFFFFFFFFFFFFD20
0006DFFFFFFFFFFFFFFFFC6000
0000048BDEFFFFFEDB85100000
00000000006FFE400000000000
0000000000DFF7000000000000
0000000003FFF2000000000000
0000000005FFF1000000000000
0000000005FFF9114500000000
0000000002FFFFFFFF20000000
00000000009FFFFFFF20000000
000000000009FFFFF800000000
00000000000025752000000000
ENDCHAR
STARTCHAR eogonek
ENCODING 281
SWIDTH 393 0
DWIDTH 13 0
BBX 16 23 1 -8
BITMAP
00006BEFD6000000
001CFFFFFF800000
01DFFFFFFFF20000
09FFFD8BFFF50000
2FFFE101FFF50000
7FFF7002FFF30000
BFFF200BFFD00000
DFFF15DFFF400000
EFFFEFFFE50003D6
DFFFFFE910003EFA
AFFFC5100006EFF8
5FFFE61016CFFFD1
0CFFFFFFFFFFFD20
02DFFFFFFFFF8100
0018EFFFFE820000
00000CFF91000000
00008FFA00000000
0000EFF400000000
0001FFF300000000
0001FFFA10240000
0000CFFFFEFF4000
00003EFFFFFF3000
0000029DFEB50000
ENDCHAR
STARTCHAR Ecaron
ENCODING 282
SWIDTH 686 0
DWIDTH 22 0
BBX 25 37 1 0
BITMAP
0000000001CE700006EE300000
0000000005FFF1003FFF500000
0000000002FFF600CFFD000000
00000000009FFC07FFF3000000
00000000002FFF5EFF70000000
000000000009FFFFFB00000000
000000000001EFFFD100000000
0000000000004DEA2000000000
00000000000000000000000000
00000000000000000000000000
00000000159CDFEEB820000000
00000018FFFFFFFFFFF8000000
000004EFFFFFFFFFFFFF900000
00005FFFFFFB877AEFFFF40000
0002EFFFF91000002EFFF90000
0008FFFF8000000008FFFB0000
000CFFFF1000000007FFFB0000
000DFFFD0000000009FFF90000
000BFFFE000000000BFFF40000
0007FFFF8000000005EF900000
0001DFFFFB5200000000000000
00001BFFFFFFFE200000000000
0000029FFFFFFF500000000000
0002AFFFFFFFFF200000000000
006FFFFFFC9873000000000000
06FFFFE7100000000000000000
2FFFFD20000000000000000000
9FFFF400000000000000000000
DFFFD000000000000000000000
FFFFC000000000000000000000
FFFFE000000000000000000000
CFFFF700000000000000017C90
6FFFFF92000000000037BFFFE0
0BFFFFFFDA87789ADFFFFFFFB0
01AFFFFFFFFFFFFFFFFFFFFC20
0004BFFFFFFFFFFFFFFFEA5000
00000269CDEFFEECA963000000
ENDCHAR
STARTCHAR ecaron
ENCODING 283
SWIDTH 393 0
DWIDTH 13 0
BBX 16 28 1 0
BITMAP
0000472000017500
0004FFD0001DFF40
0006FFF2008FFF20
0003FFF401EFF900
0000EFF608FFE100
0000BFF81EFF6000
00007FFA7FFC0000
00003FFCEFF40000
00000EFFFFA00000
00000AFFFE200000
000002CEC3000000
0000000000000000
0000000000000000
00006BEFD7000000
001CFFFFFF900000
01DFFFFFFFF20000
09FFFD8BFFF50000
2FFFD101FFF50000
8FFF6003FFF20000
BFFF103DFFB00000
DFFF5AFFFD100021
EFFFFFFFA10006F9
DFFFFD8200008FFA
9FFFB000004DFFF6
4FFFFD879DFFFFB0
0AFFFFFFFFFFF900
01AFFFFFFFFD4000
0004ADEFDA500000
ENDCHAR
STARTCHAR Gcircumflex
ENCODING 284
SWIDTH 811 0
DWIDTH 26 0
BBX 28 53 2 -15
BITMAP
00000000000019EEA00000000000
000000000000CFFFF80000000000
000000000008FFFFFE1000000000
00000000003FFFBFFF6000000000
0000000000CFFF2CFFB000000000
0000000007FFF907FFF200000000
000000002EFFE103FFF700000000
000000006FFF7000EFF800000000
000000002DE900006EC200000000
0000000000000000000000000000
0000000000000000000000000000
00000000049CEFEDA61000000000
00000006DFFFFFFFFFD300000000
000002CFFFFFFFFFFFFE20000000
00003EFFFFFB878CFFFFA0000000
0003EFFFFA2000009FFFF1000000
001DFFFF600000001FFFF4000000
009FFFF6000000000EFFF5000000
02FFFFB0000000001FFFF3000000
09FFFF30000000003FFFE1000000
0EFFFB00000000002FFF80000000
4FFFF60000000000048600000000
8FFFF20000000000000000000000
AFFFE00000000000000000000000
CFFFD00000000000000000000000
DFFFC00000000000000000000000
EFFFB000000009FFFFFFFA000000
EFFFC00000002FFFFFFFFF200000
DFFFE00000001EFFFFFFFF100000
AFFFF3000000026777FFFE000000
6FFFF9000000000002FFFB000000
1FFFFE200000000004FFF90007E2
08FFFFD20000000006FFF702BFF6
01DFFFFE600000002AFFF54EFFF3
002EFFFFFEB8779CFFFFFAFFFE50
0002CFFFFFFFFFFFFFFFFFFFB200
000007EFFFFFFFFFFFFFFFF70000
000000059CEFEDB85FFFFC200000
0000000000000003DFFFA0000000
000000000000004EFFFF40000000
00000000000005FFFFFF10000000
0000000000006FFEEFFD00000000
000000000005FFE3EFF900000000
00000000003EFE33FFF500000000
0000000000CFF507FFF100000000
0000000007FFA00BFFB000000000
000000000DFF202FFF6000000000
000000003FFC008FFE1000000000
000000005FFB02FFF80000000000
000000006FFF8DFFE10000000000
000000004FFFFFFF600000000000
000000000BFFFFF8000000000000
00000000019EEC50000000000000
ENDCHAR
STARTCHAR gcircumflex
ENCODING 285
SWIDTH 479 0
DWIDTH 15 0
BBX 20 43 -1 -15
BITMAP
00000000000573000000
0000000001CFFF300000
0000000009FFFF900000
000000003FFFFFD00000
00000000CFF8EFF20000
00000006FFE1CFF60000
0000001EFF80BFF90000
0000008FFF109FFD0000
000002FFF8007FFF1000
000007FFE1004FFF3000
000004ED50000BEA0000
00000000000000000000
00000000000000000000
00000003ADF900000000
0000009FFFFE9A600000
00001BFFFFFFFFD00000
0000AFFFFC9FFFB00000
0005FFFF703FFF900000
000DFFF8006FFF600000
005FFFD0009FFF400000
009FFF8000CFFF100000
00CFFF4001FFFE0006E9
00DFFF2005FFFB03CFFC
00DFFF400CFFF97FFFF8
00AFFFD8CFFFFEFFFF80
005FFFFFFFFFFFFFD400
000BFFFFFBFFFFF91000
00018DFC5BFFFE500000
00000001BFFFD1000000
0000002DFFFF90000000
000003EFFFFF60000000
00003EFFCFFF30000000
0002DFF78FFE00000000
000CFF80CFFA00000000
008FFA01FFF600000000
02FFE106FFF100000000
08FF800BFFB000000000
0CFF303FFF5000000000
0FFF20CFFD0000000000
1FFFABFFF60000000000
0DFFFFFFB00000000000
06FFFFFC100000000000
006DFD81000000000000
ENDCHAR
STARTCHAR Gbreve
ENCODING 286
SWIDTH 811 0
DWIDTH 26 0
BBX 28 50 2 -15
BITMAP
000000009ED20000008EC0000000
00000001FFFC100009FFF1000000
00000000EFFFD878DFFFC0000000
000000006FFFFFFFFFFE30000000
0000000007FFFFFFFFD400000000
000000000028CEFDB61000000000
0000000000000000000000000000
0000000000000000000000000000
00000000049CEFEDA61000000000
00000006DFFFFFFFFFD300000000
000002CFFFFFFFFFFFFE20000000
00003EFFFFFB878CFFFFA0000000
0003EFFFFA2000009FFFF1000000
001DFFFF600000001FFFF4000000
009FFFF6000000000EFFF5000000
02FFFFB0000000001FFFF3000000
09FFFF30000000003FFFE1000000
0EFFFB00000000002FFF80000000
4FFFF60000000000048600000000
8FFFF20000000000000000000000
AFFFE00000000000000000000000
CFFFD00000000000000000000000
DFFFC00000000000000000000000
EFFFB000000009FFFFFFFA000000
EFFFC00000002FFFFFFFFF200000
DFFFE00000001EFFFFFFFF100000
AFFFF3000000026777FFFE000000
6FFFF9000000000002FFFB000000
1FFFFE200000000004FFF90007E2
08FFFFD20000000006FFF702BFF6
01DFFFFE600000002AFFF54EFFF3
002EFFFFFEB8779CFFFFFAFFFE50
0002CFFFFFFFFFFFFFFFFFFFB200
000007EFFFFFFFFFFFFFFFF70000
000000059CEFEDB85FFFFC200000
0000000000000003DFFFA0000000
000000000000004EFFFF40000000
00000000000005FFFFFF10000000
0000000000006FFEEFFD00000000
000000000005FFE3EFF900000000
00000000003EFE33FFF500000000
0000000000CFF507FFF100000000
0000000007FFA00BFFB000000000
000000000DFF202FFF6000000000
000000003FFC008FFE1000000000
000000005FFB02FFF80000000000
000000006FFF8DFFE10000000000
000000004FFFFFFF600000000000
000000000BFFFFF8000000000000
00000000019EEC50000000000000
ENDCHAR
STARTCHAR gbreve
ENCODING 287
SWIDTH 479 0
DWIDTH 15 0
BBX 20 39 -1 -15
BITMAP
00000AEB0000000BE800
00003FFF6000008FFD00
00002FFFD20005FFFB00
00000DFFFE97AFFFF500
000004FFFFFFFFFF9000
0000006EFFFFFFF80000
000000028CEED9300000
00000000000000000000
00000000000000000000
00000003ADF900000000
0000009FFFFE9A600000
00001BFFFFFFFFD00000
0000AFFFFC9FFFB00000
0005FFFF703FFF900000
000DFFF8006FFF600000
005FFFD0009FFF400000
009FFF8000CFFF100000
00CFFF4001FFFE0006E9
00DFFF2005FFFB03CFFC
00DFFF400CFFF97FFFF8
00AFFFD8CFFFFEFFFF80
005FFFFFFFFFFFFFD400
000BFFFFFBFFFFF91000
00018DFC5BFFFE500000
00000001BFFFD1000000
0000002DFFFF90000000
000003EFFFFF60000000
00003EFFCFFF30000000
0002DFF78FFE00000000
000CFF80CFFA00000000
008FFA01FFF600000000
02FFE106FFF100000000
08FF800BFFB000000000
0CFF303FFF5000000000
0FFF20CFFD0000000000
1FFFABFFF60000000000
0DFFFFFFB00000000000
06FFFFFC100000000000
006DFD81000000000000
ENDCHAR
STARTCHAR Gdotaccent
ENCODING 288
SWIDTH 811 0
DWIDTH 26 0
BBX 28 49 2 -15
BITMAP
0000000000005CED500000000000
000000000003FFFFF20000000000
000000000008FFFFF30000000000
000000000005FFFFD10000000000
0000000000008EEB300000000000
0000000000000000000000000000
0000000000000000000000000000
00000000049CEFEDA61000000000
00000006DFFFFFFFFFD300000000
000002CFFFFFFFFFFFFE20000000
00003EFFFFFB878CFFFFA0000000
0003EFFFFA2000009FFFF1000000
001DFFFF600000001FFFF4000000
009FFFF6000000000EFFF5000000
02FFFFB0000000001FFFF3000000
09FFFF30000000003FFFE1000000
0EFFFB00000000002FFF80000000
4FFFF60000000000048600000000
8FFFF20000000000000000000000
AFFFE00000000000000000000000
CFFFD00000000000000000000000
DFFFC00000000000000000000000
EFFFB000000009FFFFFFFA000000
EFFFC00000002FFFFFFFFF200000
DFFFE00000001EFFFFFFFF100000
AFFFF3000000026777FFFE000000
6FFFF9000000000002FFFB000000
1FFFFE200000000004FFF90007E2
08FFFFD20000000006FFF702BFF6
01DFFFFE600000002AFFF54EFFF3
002EFFFFFEB8779CFFFFFAFFFE50
0002CFFFFFFFFFFFFFFFFFFFB200
000007EFFFFFFFFFFFFFFFF70000
000000059CEFEDB85FFFFC200000
0000000000000003DFFFA0000000
000000000000004EFFFF40000000
00000000000005FFFFFF10000000
0000000000006FFEEFFD00000000
000000000005FFE3EFF900000000
00000000003EFE33FFF500000000
0000000000CFF507FFF100000000
0000000007FFA00BFFB000000000
000000000DFF202FFF6000000000
000000003FFC008FFE1000000000
000000005FFB02FFF80000000000
000000006FFF8DFFE10000000000
000000004FFFFFFF600000000000
000000000BFFFFF8000000000000
00000000019EEC50000000000000
ENDCHAR
STARTCHAR gdotaccent
ENCODING 289
SWIDTH 479 0
DWIDTH 15 0
BBX 20 37 -1 -15
BITMAP
0000000006DEC3000000
000000005FFFFD000000
00000000AFFFFE000000
000000008FFFFA000000
000000001AEEA1000000
00000000000000000000
00000000000000000000
00000003ADF900000000
0000009FFFFE9A600000
00001BFFFFFFFFD00000
0000AFFFFC9FFFB00000
0005FFFF703FFF900000
000DFFF8006FFF600000
005FFFD0009FFF400000
009FFF8000CFFF100000
00CFFF4001FFFE0006E9
00DFFF2005FFFB03CFFC
00DFFF400CFFF97FFFF8
00AFFFD8CFFFFEFFFF80
005FFFFFFFFFFFFFD400
000BFFFFFBFFFFF91000
00018DFC5BFFFE500000
00000001BFFFD1000000
0000002DFFFF90000000
000003EFFFFF60000000
00003EFFCFFF30000000
0002DFF78FFE00000000
000CFF80CFFA00000000
008FFA01FFF600000000
02FFE106FFF100000000
08FF800BFFB000000000
0CFF303FFF5000000000
0FFF20CFFD0000000000
1FFFABFFF60000000000
0DFFFFFFB00000000000
06FFFFFC100000000000
006DFD81000000000000
ENDCHAR
STARTCHAR uni0122
ENCODING 290
SWIDTH 811 0
DWIDTH 26 0
BBX 28 42 2 -15
BITMAP
00000000049CEFEDA61000000000
00000006DFFFFFFFFFD300000000
000002CFFFFFFFFFFFFE20000000
00003EFFFFFB878CFFFFA0000000
0003EFFFFA2000009FFFF1000000
001DFFFF600000001FFFF4000000
009FFFF6000000000EFFF5000000
02FFFFB0000000001FFFF3000000
09FFFF30000000003FFFE1000000
0EFFFB00000000002FFF80000000
4FFFF60000000000048600000000
8FFFF20000000000000000000000
AFFFE00000000000000000000000
CFFFD00000000000000000000000
DFFFC00000000000000000000000
EFFFB000000009FFFFFFFA000000
EFFFC00000002FFFFFFFFF200000
DFFFE00000001EFFFFFFFF100000
AFFFF3000000026777FFFE000000
6FFFF9000000000002FFFB000000
1FFFFE200000000004FFF90007E2
08FFFFD20000000006FFF702BFF6
01DFFFFE600000002AFFF54EFFF3
002EFFFFFEB8779CFFFFFAFFFE50
0002CFFFFFFFFFFFFFFFFFFFB200
000007EFFFFFFFFFFFFFFFF70000
000000059CEFEDB85FFFFC200000
0000000000000003DFFFA0000000
00000AEB1000004EFFFF40000000
00004FFF600005FFFFFF10000000
00006FFF60006FFEEFFD00000000
00007FFF2005FFE3EFF900000000
00007FFC003EFE33FFF500000000
00007FF700CFF507FFF100000000
00003EC107FFA00BFFB000000000
000000000DFF202FFF6000000000
000000003FFC008FFE1000000000
000000005FFB02FFF80000000000
000000006FFF8DFFE10000000000
000000004FFFFFFF600000000000
000000000BFFFFF8000000000000
00000000019EEC50000000000000
ENDCHAR
STARTCHAR uni0123
ENCODING 291
SWIDTH 479 0
DWIDTH 15 0
BBX 20 40 -1 -15
BITMAP
00000000005DE4000000
0000000000EFFB000000
0000000001FFFB000000
0000000002FFF7000000
0000000003FFF2000000
0000000003FFC0000000
0000000004FF80000000
0000000001DD20000000
00000000000000000000
00000000000000000000
00000003ADF900000000
0000009FFFFE9A600000
00001BFFFFFFFFD00000
0000AFFFFC9FFFB00000
0005FFFF703FFF900000
000DFFF8006FFF600000
005FFFD0009FFF400000
009FFF8000CFFF100000
00CFFF4001FFFE0006E9
00DFFF2005FFFB03CFFC
00DFFF400CFFF97FFFF8
00AFFFD8CFFFFEFFFF80
005FFFFFFFFFFFFFD400
000BFFFFFBFFFFF91000
00018DFC5BFFFE500000
00000001BFFFD1000000
0000002DFFFF90000000
000003EFFFFF60000000
00003EFFCFFF30000000
0002DFF78FFE00000000
000CFF80CFFA00000000
008FFA01FFF600000000
02FFE106FFF100000000
08FF800BFFB000000000
0CFF303FFF5000000000
0FFF20CFFD0000000000
1FFFABFFF60000000000
0DFFFFFFB00000000000
06FFFFFC100000000000
006DFD81000000000000
ENDCHAR
STARTCHAR Hcircumflex
ENCODING 292
SWIDTH 873 0
DWIDTH 28 0
BBX 33 38 -1 0
BITMAP
000000000000000008DEB1000000000000
0000000000000000BFFFF9000000000000
0000000000000006FFFFFF200000000000
000000000000002EFFCEFF700000000000
00000000000000BFFF3AFFD00000000000
00000000000005FFFA06FFF30000000000
0000000000001EFFF202FFF80000000000
0000000000005FFF8000DFFA0000000000
0000000000001CEA00005ED30000000000
0000000000000000000000000000000000
00000000000000000000000004BEE91000
0000028CEFC60000000000007FFFFF9000
00008FFFFFFF700000000006FFFEFFF200
002CFFFFFFFFE1000000003FFFC17FF500
02DFFFA8CFFFF500000000BFFF204FF700
0CFFD3001FFFF700000004FFFA005FF600
5FFD20000DFFF80000000BFFF4007FF500
7FE200000CFFF80000001FFFD000BFF200
2A3000000DFFF70000006FFF9002FFD000
000000000FFFF6000000BFFF500AFF7000
000000001FFFF4000000FFFF109FFE1000
000000003FFFF2000003FFFD3CFFF50000
000000006FFFE0000007FFFFFFFF700000
000000008FFFD666668CFFFFFFE5000000
00005DFFFFFFFFFFFFFFFFFFFA20000000
0000DFFFFFFFFFFFFFFFFFFB3000000000
0000CFFFFFFFFFECB97FFFF50000000000
0000267BFFFF1000001FFFF40000000000
0000000AFFFC0000001FFFF40000000000
0000000DFFF90000001FFFF50000000000
0000001FFFF60000000FFFF60000000120
0000005FFFF20000000DFFF80000001DE0
0000008FFFE00000000AFFFC000000BFF0
000000CFFFB000000005FFFF60001BFFC0
000001FFFF7000000000DFFFFA79EFFE30
000003FFFF30000000004FFFFFFFFFE300
000004FFFC000000000006FFFFFFFC2000
000000AEC200000000000029DFDB500000
ENDCHAR
STARTCHAR hcircumflex
ENCODING 293
SWIDTH 502 0
DWIDTH 16 0
BBX 20 41 1 0
BITMAP
000000003BEE60000000
00000003EFFFF3000000
0000000CFFFFFA000000
0000008FFFBFFF100000
000003FFFC2FFF600000
00000CFFF30DFFC00000
00006FFFA008FFF20000
0000BFFF2004FFF30000
00006ED50000AE900000
00000000000000000000
00000000000000000000
00000006CEC300000000
000000AFFFFE10000000
000008FFFFFF60000000
00003FFFADFFA0000000
0000AFFC07FFB0000000
0002FFF505FFA0000000
0008FFE006FF80000000
000EFFA009FF50000000
004FFF600DFF10000000
008FFF204FFA00000000
00CFFE00BFF300000000
00FFFB05FFA000000000
03FFF80DFE2000000000
06FFF59FF60000000000
08FFF8FFA00000000000
0AFFFFFD13AED5000000
0CFFFFE27FFFFD000000
0EFFFF46FFFFFE000000
0FFFF54FFFFFFC000000
1FFFB0DFFEFFFA000000
2FFFA7FF67FFF7000000
3FFFADFB08FFF4000000
3FFFEFF20BFFF1000120
4FFFFFA00DFFD0001CF1
4FFFFF301FFFA000AFF2
4FFFFD003FFFA00AFFD0
4FFFF8004FFFE8CFFF40
4FFFF4002FFFFFFFF400
3FFFC0000BFFFFFD3000
0BEB200001AEFC710000
ENDCHAR
STARTCHAR Hbar
ENCODING 294
SWIDTH 856 0
DWIDTH 27 0
BBX 28 27 1 0
BITMAP
000001AEE700000000003CFC2000
000007FFFE0000000000CFFF8000
000009FFFF0000000000FFFF9000
00000BFFFD0000000002FFFF7000
00157EFFFD7777777778FFFFA620
00CFFFFFFFFFFFFFFFFFFFFFFFE1
02FFFFFFFFFFFFFFFFFFFFFFFFF1
00BFFFFFFFFFFFFFFFFFFFFFFE70
00005FFFF2000000000BFFFB0000
00008FFFE0000000000DFFF90000
0000AFFFC0000000000FFFF60000
0157DFFFC7777777778FFFF96200
0DFFFFFFFFFFFFFFFFFFFFFFFE10
2FFFFFFFFFFFFFFFFFFFFFFFFF10
0CFFFFFFFFFFFFFFFFFFFFFFD600
0009FFFE0000000000EFFF800000
000BFFFB0000000001FFFF600000
000EFFF90000000004FFFF300000
001FFFF70000000006FFFF100000
003FFFF50000000009FFFE000000
006FFFF3000000000BFFFC000000
008FFFF1000000000EFFFA000000
00AFFFE0000000001FFFF9000000
00CFFFD0000000002FFFF7000000
00DFFFB0000000004FFFF5000000
00CFFF80000000003FFFF2000000
004DEB100000000009EE70000000
ENDCHAR
STARTCHAR hbar
ENCODING 295
SWIDTH 502 0
DWIDTH 16 0
BBX 20 27 1 0
BITMAP
00001BFD300000000000
00009FFF700000000000
0000EFFF400000000000
0004FFFE000000000000
0008FFFB000000000000
1DFFFFFFFFFFB0000000
4FFFFFFFFFFFF3000000
1CFFFFFFFFFFE1000000
008FFFD7777620000000
00AFFF90000000000000
00DFFF50000000000000
00FFFF20000000000000
03FFFE0003AED5000000
05FFFA007FFFFD000000
08FFF806FFFFFE000000
0AFFF54FFFFFFC000000
0CFFF2DFFEFFFA000000
0DFFE7FF67FFF7000000
0FFFCDFB08FFF4000000
1FFFEFF20BFFF1000120
2FFFFFA00DFFD0001CF1
2FFFFF301FFFA000AFF2
2FFFFD003FFFA00AFFD0
2FFFF8004FFFE8CFFF40
1FFFF4002FFFFFFFF500
0CFFE0000BFFFFFE4000
04EE500001AEFC810000
ENDCHAR
STARTCHAR Itilde
ENCODING 296
SWIDTH 495 0
DWIDTH 16 0
BBX 20 36 -1 0
BITMAP
00000000375000000000
00000007FFFC30003CE4
0000005FFFFFF701DFF8
000001EFFEFFFFB9FFF3
000006FFF44EFFFFFFA0
000008FF8001AFFFFD10
00000165000005DEB200
00000000000000000000
00000000000000000000
00001AEFFFFFFFFFFD50
00009FFFFFFFFFFFFFB0
0000AFFFFFFFFFFFFF60
000016778FFFFB776300
000000003FFFF5000000
000000006FFFF3000000
000000008FFFF0000000
00000000AFFFD0000000
00000000CFFFA0000000
00000000EFFF80000000
00000002FFFF50000000
00000004FFFF30000000
00000006FFFF10000000
00000009FFFD00000000
0000000BFFFB00000000
0000000EFFF800000000
0000001FFFF600000000
0000004FFFF400000000
0000006FFFF200000000
0000008FFFF000000000
000000AFFFD000000000
000000DFFFB000000000
000000FFFF9000000000
003678FFFFB775100000
2DFFFFFFFFFFFFE10000
7FFFFFFFFFFFFFF10000
3DFFFFFFFFFFFD600000
ENDCHAR
STARTCHAR itilde
ENCODING 297
SWIDTH 246 0
DWIDTH 8 0
BBX 15 24 -2 0
BITMAP
0001661000000000
002DFFE50001AE60
00CFFFFF9108FFB0
07FFFEFFFD6FFF50
0EFF81BFFFFFFC00
1FFC0007FFFFE200
046100003BEC3000
0000000000000000
0000000000000000
000007EE70000000
00001FFFB0000000
00006FFF90000000
0000AFFF60000000
0000DFFF30000000
0001FFFF00000000
0003FFFC00000000
0005FFF900001200
0007FFF70002DD00
0007FFF6001CFE00
0006FFF701CFFB00
0004FFFE8DFFE200
0001EFFFFFFE3000
00008FFFFFD20000
000008DFC7100000
ENDCHAR
STARTCHAR Imacron
ENCODING 298
SWIDTH 495 0
DWIDTH 16 0
BBX 19 33 -1 0
BITMAP
00000001677777774000
0000000CFFFFFFFFF200
0000000FFFFFFFFFF300
0000000AFFFFFFFFA000
00000000000000000000
00000000000000000000
00001AEFFFFFFFFFFD50
00009FFFFFFFFFFFFFB0
0000AFFFFFFFFFFFFF60
000016778FFFFB776300
000000003FFFF5000000
000000006FFFF3000000
000000008FFFF0000000
00000000AFFFD0000000
00000000CFFFA0000000
00000000EFFF80000000
00000002FFFF50000000
00000004FFFF30000000
00000006FFFF10000000
00000009FFFD00000000
0000000BFFFB00000000
0000000EFFF800000000
0000001FFFF600000000
0000004FFFF400000000
0000006FFFF200000000
0000008FFFF000000000
000000AFFFD000000000
000000DFFFB000000000
000000FFFF9000000000
003678FFFFB775100000
2DFFFFFFFFFFFFE10000
7FFFFFFFFFFFFFF10000
3DFFFFFFFFFFFD600000
ENDCHAR
STARTCHAR imacron
ENCODING 299
SWIDTH 246 0
DWIDTH 8 0
BBX 12 21 0 0
BITMAP
057777777600
7FFFFFFFFF70
AFFFFFFFFF70
5EFFFFFFFC20
000000000000
000000000000
0007EE700000
001FFFB00000
006FFF900000
00AFFF600000
00DFFF300000
01FFFF000000
03FFFC000000
05FFF9000012
07FFF70002DD
07FFF6001CFE
06FFF701CFFB
04FFFE8DFFE2
01EFFFFFFE30
008FFFFFD200
0008DFC71000
ENDCHAR
STARTCHAR Ibreve
ENCODING 300
SWIDTH 495 0
DWIDTH 16 0
BBX 20 35 -1 0
BITMAP
0000009ED20000009EC0
000001FFFB00000AFFF1
000000EFFFD878DFFFC0
0000006FFFFFFFFFFE30
00000007FFFFFFFFD400
0000000028CEFDB61000
00000000000000000000
00000000000000000000
00001AEFFFFFFFFFFD50
00009FFFFFFFFFFFFFB0
0000AFFFFFFFFFFFFF60
000016778FFFFB776300
000000003FFFF5000000
000000006FFFF3000000
000000008FFFF0000000
00000000AFFFD0000000
00000000CFFFA0000000
00000000EFFF80000000
00000002FFFF50000000
00000004FFFF30000000
00000006FFFF10000000
00000009FFFD00000000
0000000BFFFB00000000
0000000EFFF800000000
0000001FFFF600000000
0000004FFFF400000000
0000006FFFF200000000
0000008FFFF000000000
000000AFFFD000000000
000000DFFFB000000000
000000FFFF9000000000
003678FFFFB775100000
2DFFFFFFFFFFFFE10000
7FFFFFFFFFFFFFF10000
3DFFFFFFFFFFFD600000
ENDCHAR
STARTCHAR ibreve
ENCODING 301
SWIDTH 246 0
DWIDTH 8 0
BBX 14 24 -1 0
BITMAP
4DE40000005ED2
BFFD000002EFF5
AFFF80001CFFF3
6FFFFB88DFFFC0
0CFFFFFFFFFE30
01BFFFFFFFD300
0005BDFDB61000
00000000000000
00000000000000
00007EE7000000
0001FFFB000000
0006FFF9000000
000AFFF6000000
000DFFF3000000
001FFFF0000000
003FFFC0000000
005FFF90000120
007FFF70002DD0
007FFF6001CFE0
006FFF701CFFB0
004FFFE8DFFE20
001EFFFFFFE300
0008FFFFFD2000
00008DFC710000
ENDCHAR
STARTCHAR Iogonek
ENCODING 302
SWIDTH 495 0
DWIDTH 16 0
BBX 19 35 -1 -8
BITMAP
00001AEFFFFFFFFFFD50
00009FFFFFFFFFFFFFB0
0000AFFFFFFFFFFFFF60
000016778FFFFB776300
000000003FFFF5000000
000000006FFFF3000000
000000008FFFF0000000
00000000AFFFD0000000
00000000CFFFA0000000
00000000EFFF80000000
00000002FFFF50000000
00000004FFFF30000000
00000006FFFF10000000
00000009FFFD00000000
0000000BFFFB00000000
0000000EFFF800000000
0000001FFFF600000000
0000004FFFF400000000
0000006FFFF200000000
0000008FFFF000000000
000000AFFFD000000000
000000DFFFB000000000
000000FFFF9000000000
003678FFFFB775100000
2DFFFFFFFFFFFFE10000
7FFFFFFFFFFFFFF10000
3DFFFFFFFFFFFD600000
00000CFFA00000000000
00006FFE100000000000
0000AFFA000000000000
0000CFFC000000000000
0000BFFFB79C70000000
00006FFFFFFFB0000000
00000BFFFFFF80000000
0000006CEEC800000000
ENDCHAR
STARTCHAR iogonek
ENCODING 303
SWIDTH 246 0
DWIDTH 8 0
BBX 12 30 0 -8
BITMAP
0002BEE80000
000DFFFF5000
002FFFFF7000
001FFFFF3000
0005DFC50000
000000000000
000000000000
0007EE700000
001FFFB00000
006FFF900000
009FFF600000
00DFFF300000
01FFFF000000
03FFFC000000
05FFF9000011
06FFF70001DD
07FFF6001CFE
07FFF700BFFB
05FFFD7CFFE3
02FFFFFFFE40
00AFFFFFD300
003FFFF91000
01EFFD300000
09FFC1000000
0EFF40000000
2FFF20000000
1FFF90024000
0CFFFFEFF300
03EFFFFFF200
002ADFEB4000
ENDCHAR
STARTCHAR Idotaccent
ENCODING 304
SWIDTH 495 0
DWIDTH 16 0
BBX 19 34 -1 0
BITMAP
00000000005CED500000
0000000004FFFFF20000
0000000008FFFFF30000
0000000006FFFFD00000
00000000008EEB300000
00000000000000000000
00000000000000000000
00001AEFFFFFFFFFFD50
00009FFFFFFFFFFFFFB0
0000AFFFFFFFFFFFFF60
000016778FFFFB776300
000000003FFFF5000000
000000006FFFF3000000
000000008FFFF0000000
00000000AFFFD0000000
00000000CFFFA0000000
00000000EFFF80000000
00000002FFFF50000000
00000004FFFF30000000
00000006FFFF10000000
00000009FFFD00000000
0000000BFFFB00000000
0000000EFFF800000000
0000001FFFF600000000
0000004FFFF400000000
0000006FFFF200000000
0000008FFFF000000000
000000AFFFD000000000
000000DFFFB000000000
000000FFFF9000000000
003678FFFFB775100000
2DFFFFFFFFFFFFE10000
7FFFFFFFFFFFFFF10000
3DFFFFFFFFFFFD600000
ENDCHAR
STARTCHAR dotlessi
ENCODING 305
SWIDTH 246 0
DWIDTH 8 0
BBX 11 15 1 0
BITMAP
007EE7000000
01FFFB000000
06FFF9000000
0AFFF6000000
0DFFF3000000
1FFFF0000000
3FFFC0000000
5FFF90000120
7FFF70002DD0
7FFF6001CFE0
6FFF701CFFB0
4FFFE8DFFE20
1EFFFFFFE300
08FFFFFD2000
008DFC710000
ENDCHAR
STARTCHAR Jcircumflex
ENCODING 308
SWIDTH 743 0
DWIDTH 24 0
BBX 23 42 2 -4
BITMAP
000000000007DFC200000000
00000000009FFFFB00000000
0000000004FFFFFF30000000
000000001DFFDDFF90000000
000000009FFF58FFE0000000
00000004FFFC04FFF5000000
0000000DFFF300EFFA000000
0000003FFFA000BFFC000000
0000000BFB10003DD4000000
000000000000000000000000
000000000000000000000000
000000379BDEEFEEDCA75100
00017EFFFFFFFFFFFFFFFE30
005EFFFFFFFFFFFFFFFFFF70
05FFFFFEB9877789DFFFFE30
1EFFFB3000000000BFFFC100
6FFFA00000000000DFFFA000
9FFF300000000000FFFF8000
BFFF200000000002FFFF6000
9FFF600000000003FFFF4000
6FFFC00000000005FFFF1000
1EFFB00000000007FFFE0000
03A8100000000009FFFC0000
000000000000001CFFF90000
0000000000003AFFFFF70000
00000000003BFFFFFFF40000
0000000019FFFFFFFFF10000
00000004EFFFFDBFFFD00000
0000006FFFFE50AFFF900000
000007FFFFA100DFFF500000
00005FFFF70002FFFF100000
0001EFFF700006FFFB000000
0008FFFB00000BFFF6000000
000DFFF400002FFFE1000000
002FFFE000008FFF80000000
004FFFC00002FFFF20000000
004FFFE0001CFFF800000000
002FFFF813CFFFD100000000
000CFFFFFFFFFE3000000000
0003FFFFFFFFE30000000000
00004DFFFFFA200000000000
000000366510000000000000
ENDCHAR
STARTCHAR jcircumflex
ENCODING 309
SWIDTH 254 0
DWIDTH 8 0
BBX 20 43 -8 -15
BITMAP
00000000000003750000
0000000000006FFF9000
000000000003FFFFF100
00000000000BFFFFF500
00000000005FFE9FF900
0000000001DFF86FFC00
0000000008FFE14FFF10
000000002EFF802FFF50
00000000AFFE100FFF80
00000001FFF7000CFFA0
00000000BFA00005ED30
00000000000000000000
00000000000000000000
000000000009EE600000
00000000004FFFA00000
00000000006FFF900000
00000000008FFF700000
0000000000AFFF500000
0000000000CFFF300000
0000000000DFFF100000
0000000000FFFE000010
0000000002FFFB0007F6
0000000003FFF902CFF9
0000000005FFF75EFFF5
0000000007FFFCFFFE60
0000000009FFFFFFB200
000000000AFFFFF70000
000000000CFFFC300000
000000009FFFB0000000
0000001BFFFF70000000
000002DFFFFF40000000
00002DFFEFFF10000000
0002DFF6CFFC00000000
001CFF60FFF800000000
009FF804FFF400000000
03FFC009FFE000000000
0AFF500EFF9000000000
0EFF005FFF3000000000
3FFE01DFFB0000000000
3FFF9CFFF30000000000
1FFFFFFF900000000000
09FFFFFB000000000000
008DFC60000000000000
ENDCHAR
STARTCHAR uni0136
ENCODING 310
SWIDTH 937 0
DWIDTH 30 0
BBX 35 36 0 -9
BITMAP
000000159CEFFEDB73000000001AEE500000
000007EFFFFFFFFFFF80000000AFFFB00000
0001CFFFFFFFFFFFFFE0000001FFFFA00000
000BFFFFD9778FFFFFA0000006FFFF400000
005FFFE400002FFFF70000000CFFFE000000
00AFFF4000004FFFF40000004FFFF7000000
00DFFF0000006FFFF1000000CFFFE1000000
00DFFE0000008FFFE0000006FFFF60000000
00BFFF300000AFFFC000002EFFFC00000000
006FFF900000DFFFA00001CFFFD200000000
001DFF600000FFFF70002CFFFE3000000000
000264000002FFFF5017EFFFD20000000000
000000000169FFFFABFFFFFA100000000000
0000000009FFFFFFFFFFFC50000000000000
000000000CFFFFFFFFFE6000000000000000
0000000006EFFFFFFFFFF900000000000000
00000000000DFFF93CFFFF90000000000000
00000000000FFFF601DFFFF3000000000000
00000000002FFFF4005FFFFB000000000000
00200000005FFFF1000CFFFF300000000100
0AF90000009FFFD00005FFFFA0000000CE00
1FFF400001EFFF800000DFFFF400000AFF10
1FFFE20009FFFF3000006FFFFD20009FFD00
0CFFFE97CFFFFB0000000CFFFFE98DFFE300
04FFFFFFFFFFE200000003EFFFFFFFFF4000
004EFFFFFFFD30000000004EFFFFFFD30000
00017CEFEB600000000000029DFEB6100000
000000000000000000000000000000000000
000000000000000000000000000000000000
000000000000004DE5000000000000000000
00000000000000CFFE000000000000000000
00000000000000EFFD000000000000000000
00000000000000EFF9000000000000000000
00000000000000FFF4000000000000000000
00000000000000FFE0000000000000000000
00000000000000AE70000000000000000000
ENDCHAR
STARTCHAR uni0137
ENCODING 311
SWIDTH 525 0
DWIDTH 17 0
BBX 20 40 1 -10
BITMAP
00000006CEC300000000
000000AFFFFE10000000
000008FFFFFF70000000
00003FFFADFFA0000000
0000AFFC07FFB0000000
0002FFF505FFA0000000
0008FFE006FF80000000
000EFFA009FF40000000
004FFF500EFE00000000
008FFF205FF800000000
00CFFE00CFE100000000
00FFFA05FF7000000000
03FFF71DFC0000000000
06FFF5AFE20000000000
08FFF9FF600000000000
0AFFFFF803BEE9100000
0CFFFFB08FFFFFA00000
0EFFFC18FFFFFFF30000
0FFFD15FFD8EFFF60000
1FFFB1EFC10AFFF50000
2FFFA8FE200CFFF20000
3FFFBEF7006FFFA00000
3FFFFFE12AFFFE200044
3FFFFF83EFFFC20004FD
3FFFFF28FFFA00002EFD
3FFFFC07FFFD1002DFF9
2FFFF704FFFFD89FFFC1
0FFFF300CFFFFFFFFD20
0CFFE0002DFFFFFFC100
04DE5000018DFEC70000
00000000000000000000
00000000000000000000
00001BEA000000000000
00007FFF300000000000
00009FFF300000000000
0000AFFE000000000000
0000AFFA000000000000
0000BFF5000000000000
0000CFE1000000000000
00007E70000000000000
ENDCHAR
STARTCHAR kgreenlandic
ENCODING 312
SWIDTH 465 0
DWIDTH 15 0
BBX 18 15 1 0
BITMAP
005DF90029DFD60000
02FFF905EFFFFF6000
06FFF63FFFFFFFD000
0AFFF2CFFFAAFFF000
0DFFD5FFF703FFF000
1FFFABFFE005FFB000
3FFFAFFFA003EC2000
5FFFCFFF8000000011
5FFFFFFF80000002DD
6FFFFFFFB000001DFF
6FFFFFFFF40002DFFB
5FFFF9FFFFA79FFFE3
3FFFF29FFFFFFFFE30
0EFFC00AFFFFFFD300
06ED30004BEFD81000
ENDCHAR
STARTCHAR Lacute
ENCODING 313
SWIDTH 673 0
DWIDTH 22 0
BBX 28 37 -2 0
BITMAP
0000000000000000000000027400
00000000000000000000005EFF50
0000000000000000000007FFFFA0
000000000000000000009FFFFF60
0000000000000000001BFFFFE700
000000000000000002DFFFE81000
00000000000000000BFFF9100000
000000000000000008E920000000
0000000000000000000000000000
0000000000000000000000000000
000000000000016ADEFEC8200000
0000000000008EFFFFFFFFE50000
00000000002CFFFFFFFFFFFF5000
0000000002DFFFFEA88BFFFFD000
000000000CFFFF9100005FFFF400
000000006FFFF90000000DFFF700
00000000DFFFE10000000CFFF700
00000004FFFF800000000DFFF600
00000007FFFF300000000FFFF200
0000000AFFFF000000000DFF9000
0000000CFFFD0000000001640000
0000000DFFFB0000000000000000
0000000EFFF90000000000000000
0000000FFFF80000000000000000
0000001FFFF60000000000000000
0000002FFFF50000000000000000
0000003FFFF30000000000000000
0000003FFFF20000000000000000
0000004FFFF00000000000000000
0000005FFFD00000000000000094
0028CEFFFFC41000000000000AF9
04EFFFFFFFFFFB72000000009FF9
1EFFFFFFFFFFFFFFC841126DFFF4
4FFFFFFFFFFFFFFFFFFFFFFFFF80
3FFFFFFFF78DFFFFFFFFFFFFF900
0CFFFFFF700049EFFFFFFFFF7000
018DFEA4000000159CEFEC720000
ENDCHAR
STARTCHAR lacute
ENCODING 314
SWIDTH 326 0
DWIDTH 10 0
BBX 18 40 1 0
BITMAP
000000000000001660
00000000000002CFFA
0000000000003EFFFF
000000000005FFFFFB
00000000007FFFFFA1
000000000AFFFFB300
000000006FFFB30000
000000004EB4000000
000000000000000000
000000000000000000
00000007DEB2000000
000000AFFFFD000000
000008FFFFFF500000
00003FFF9EFF800000
0000BFFB08FFA00000
0003FFF406FFB00000
0009FFE006FFA00000
000EFF9007FF900000
005FFF5009FF600000
009FFF100CFF300000
00DFFD001FFE000000
02FFFA006FFA000000
05FFF700BFF4000000
07FFF402FFD0000000
0AFFF208FF70000000
0CFFF01EFE10000000
0EFFD07FF900000000
1FFFC1EFE200000000
2FFFB8FF8000000000
3FFFCFFE1000000000
3FFFFFF50000000000
3FFFFFB00000000000
2FFFFE200000100000
1FFFF5000006F60000
0DFFF000005FF80000
0AFFF50006FFF50000
04FFFE88CFFFA00000
00CFFFFFFFFA000000
003EFFFFFF80000000
0002AEFD9300000000
ENDCHAR
STARTCHAR uni013B
ENCODING 315
SWIDTH 673 0
DWIDTH 22 0
BBX 28 36 -2 -9
BITMAP
000000000000016ADEFEC8200000
0000000000008EFFFFFFFFE50000
00000000002CFFFFFFFFFFFF5000
0000000002DFFFFEA88BFFFFD000
000000000CFFFF9100005FFFF400
000000006FFFF90000000DFFF700
00000000DFFFE10000000CFFF700
00000004FFFF800000000DFFF600
00000007FFFF300000000FFFF200
0000000AFFFF000000000DFF9000
0000000CFFFD0000000001640000
0000000DFFFB0000000000000000
0000000EFFF90000000000000000
0000000FFFF80000000000000000
0000001FFFF60000000000000000
0000002FFFF50000000000000000
0000003FFFF30000000000000000
0000003FFFF20000000000000000
0000004FFFF00000000000000000
0000005FFFD00000000000000094
0028CEFFFFC41000000000000AF9
04EFFFFFFFFFFB72000000009FF9
1EFFFFFFFFFFFFFFC841126DFFF4
4FFFFFFFFFFFFFFFFFFFFFFFFF80
3FFFFFFFF78DFFFFFFFFFFFFF900
0CFFFFFF700049EFFFFFFFFF7000
018DFEA4000000159CEFEC720000
0000000000000000000000000000
0000000000000000000000000000
00000000003DE600000000000000
0000000000BFFF00000000000000
0000000000DFFE00000000000000
0000000000DFFB00000000000000
0000000000EFF600000000000000
0000000000EFF100000000000000
00000000009E8000000000000000
ENDCHAR
STARTCHAR uni013C
ENCODING 316
SWIDTH 326 0
DWIDTH 10 0
BBX 14 40 1 -10
BITMAP
00000007DEB200
000000AFFFFD00
000008FFFFFF50
00003FFF9EFF80
0000BFFB08FFA0
0003FFF406FFB0
0009FFE006FFA0
000EFF9007FF90
005FFF5009FF60
009FFF100CFF30
00DFFD001FFE00
02FFFA006FFA00
05FFF700BFF400
07FFF402FFD000
0AFFF208FF7000
0CFFF01EFE1000
0EFFD07FF90000
1FFFC1EFE20000
2FFFB8FF800000
3FFFCFFE100000
3FFFFFF5000000
3FFFFFB0000000
2FFFFE20000010
1FFFF5000006F6
0DFFF000005FF8
0AFFF50006FFF5
04FFFE88CFFFA0
00CFFFFFFFFA00
003EFFFFFF8000
0002AEFD930000
00000000000000
00000000000000
0008EC10000000
003FFF70000000
006FFF60000000
006FFF30000000
007FFD00000000
008FF800000000
008FF300000000
004EA000000000
ENDCHAR
STARTCHAR Lcaron
ENCODING 317
SWIDTH 673 0
DWIDTH 22 0
BBX 31 27 -2 0
BITMAP
000000000000016ADEFEC82000014300
0000000000008EFFFFFFFFE5001DFF50
00000000002CFFFFFFFFFFFF504FFF80
0000000002DFFFFEA88BFFFFD05FFF60
000000000CFFFF9100005FFFF46FFF10
000000006FFFF90000000DFFF76FFA00
00000000DFFFE10000000CFFF77FF500
00000004FFFF800000000DFFF64EB000
00000007FFFF300000000FFFF2000000
0000000AFFFF000000000DFF90000000
0000000CFFFD00000000016400000000
0000000DFFFB00000000000000000000
0000000EFFF900000000000000000000
0000000FFFF800000000000000000000
0000001FFFF600000000000000000000
0000002FFFF500000000000000000000
0000003FFFF300000000000000000000
0000003FFFF200000000000000000000
0000004FFFF000000000000000000000
0000005FFFD000000000000000940000
0028CEFFFFC41000000000000AF90000
04EFFFFFFFFFFB72000000009FF90000
1EFFFFFFFFFFFFFFC841126DFFF40000
4FFFFFFFFFFFFFFFFFFFFFFFFF800000
3FFFFFFFF78DFFFFFFFFFFFFF9000000
0CFFFFFF700049EFFFFFFFFF70000000
018DFEA4000000159CEFEC7200000000
ENDCHAR
STARTCHAR lcaron
ENCODING 318
SWIDTH 237 0
DWIDTH 8 0
BBX 13 30 1 0
BITMAP
00000000003400
0000000008FFA0
000000000DFFE0
00005DFA0FFFB0
0001EFFF2FFF60
0005FFFE1FFF10
0008FFFB1FFB00
000BFFF80CE300
000EFFF4000000
003FFFF1000000
006FFFD0000000
009FFF90000000
00CFFF60000000
00EFFF20000000
03FFFE00000000
05FFFB00000000
08FFF800000000
0BFFF500000000
0DFFF200000000
1FFFE000000000
3FFFB000000000
5FFF9000000000
7FFF7000052000
8FFF50007FA000
9FFF5004FFA000
8FFF504EFF6000
7FFFC9FFFA0000
3FFFFFFFB00000
0BFFFFFA100000
019EFC60000000
ENDCHAR
STARTCHAR Ldot
ENCODING 319
SWIDTH 673 0
DWIDTH 22 0
BBX 28 27 -2 0
BITMAP
000000000000016ADEFEC8200000
0000000000008EFFFFFFFFE50000
00000000002CFFFFFFFFFFFF5000
0000000002DFFFFEA88BFFFFD000
000000000CFFFF9100005FFFF400
000000006FFFF90000000DFFF700
00000000DFFFE10000000CFFF700
00000004FFFF800000000DFFF600
00000007FFFF300000000FFFF200
0000000AFFFF000000000DFF9000
0000000CFFFD0000000001640000
0000000DFFFB0000000000000000
0000000EFFF90004CED500000000
0000000FFFF8003FFFFF10000000
0000001FFFF6006FFFFF30000000
0000002FFFF5005FFFFD00000000
0000003FFFF30008EEB300000000
0000003FFFF20000000000000000
0000004FFFF00000000000000000
0000005FFFD00000000000000094
0028CEFFFFC41000000000000AF9
04EFFFFFFFFFFB72000000009FF9
1EFFFFFFFFFFFFFFC841126DFFF4
4FFFFFFFFFFFFFFFFFFFFFFFFF80
3FFFFFFFF78DFFFFFFFFFFFFF900
0CFFFFFF700049EFFFFFFFFF7000
018DFEA4000000159CEFEC720000
ENDCHAR
STARTCHAR ldot
ENCODING 320
SWIDTH 363 0
DWIDTH 12 0
BBX 15 30 1 0
BITMAP
000005DE90000000
00002FFFF0000000
00007FFFD0000000
0000BFFF90000000
0000EFFF50000000
0003FFFF10000000
0007FFFC00000000
000AFFF900000000
000EFFF500000000
002FFFF200000000
005FFFD000000000
008FFFA000000000
00CFFF7000000000
00EFFF33CEC30000
02FFFF1EFFFC0000
05FFFC4FFFFD0000
08FFF82FFFF90000
0BFFF506EEA10000
0EFFF20000000000
1FFFE00000000000
3FFFD00000000000
5FFFB00000000000
6FFFA00000000100
6FFFB00000004E90
5FFFE0000003EFB0
3FFFF600006FFF80
0EFFFFA79DFFFC10
07FFFFFFFFFFB100
009FFFFFFFF70000
0004ADFEC8200000
ENDCHAR
STARTCHAR Lslash
ENCODING 321
SWIDTH 673 0
DWIDTH 22 0
BBX 28 33 -2 0
BITMAP
00000000000000269CDEFEDB7100
0000000000017CFFFFFFFFFFFD10
00000000005EFFFFFFFFFFFFFF50
0000000003FFFFFFEB98789CEB10
0000000005FFFE94000000000000
0000000001BC6100000000000000
0000000000000001566630000000
00000000000017DFFFFFFE800000
000000000004EFFFFFFFFFFC1000
00000000007FFFFFFFFFFFFF9000
0000000006FFFFE83114CFFFF200
000000002EFFFD2000001EFFF600
00000000AFFFF30000000CFFF700
00000001FFFF900000000CFFF700
00000006FFFF400000000EFFF400
00000009FFFF000000000FFFE000
0000000BFFFD0000000008ED4000
0000000DFFFB0000000000000000
0000000EFFF90000000000000000
0000000FFFF80000000000000000
0000001FFFF60000000000000000
0000002FFFF50000000000000000
0000003FFFF30000000000000000
0000003FFFF20000000000000000
0000004FFFF00000000000000000
0000005FFFD00000000000000094
0028CEFFFFC41000000000000AF9
04EFFFFFFFFFFB72000000009FF9
1EFFFFFFFFFFFFFFC841126DFFF4
4FFFFFFFFFFFFFFFFFFFFFFFFF80
3FFFFFFFF78DFFFFFFFFFFFFF900
0CFFFFFF700049EFFFFFFFFF7000
018DFEA4000000159CEFEC720000
ENDCHAR
STARTCHAR lslash
ENCODING 322
SWIDTH 326 0
DWIDTH 10 0
BBX 18 33 1 0
BITMAP
0000000158CEFFEB60
0000029EFFFFFFFFFA
00008FFFFFFFFFFFFF
0007FFFFFEB877ADE8
000CFFFD6100000000
0009FE700000000000
00003118DFB2000000
000003DFFFFD100000
00001DFFFFFF600000
0000AFFF9DFF900000
0003FFF807FFB00000
000BFFE106FFB00000
002FFF9006FF900000
008FFF4008FF700000
00DFFE000BFF400000
02FFFA001FFE000000
05FFF7006FF9000000
08FFF400CFF2000000
0BFFF205FFA0000000
0EFFE00DFF30000000
0FFFD07FF900000000
1FFFC2EFE100000000
2FFFBCFF6000000000
3FFFFFFA0000000000
3FFFFFD10000000000
2FFFFF400000100000
1FFFF6000005F60000
0DFFF000004FF80000
09FFF50006FFF50000
04FFFE88CFFFA00000
00CFFFFFFFFB000000
003EFFFFFF80000000
0002AEFD9300000000
ENDCHAR
STARTCHAR Nacute
ENCODING 323
SWIDTH 884 0
DWIDTH 28 0
BBX 33 37 0 0
BITMAP
0000000000000000000000056100000000
0000000000000000000001BFFD00000000
000000000000000000002CFFFF30000000
00000000000000000003EFFFFD10000000
0000000000000000005EFFFFC200000000
000000000000000007FFFFC50000000000
00000000000000003FFFD5000000000000
00000000000000002DD500000000000000
0000000000000000000000000000000000
0000000000000000000000000000000000
000016BEFD600000018CEFD92000000000
0004EFFFFFF400007EFFFFFFE300000000
007FFFFFFFFA0009FFFFFFFFFD00000000
07FFFC8CFFFC008FFFA79FFFFF40000000
4FFF7005FFFD04FFD30006FFFF70000000
DFF60005FFFD0DFD100002FFFF80000000
FF800006FFFB6FE2000002FFFF70000000
68000007FFFADF70000004FFFF50000000
00000009FFFCFD00000007FFFF30000000
0000000BFFFFF60000000AFFFF00000000
0000000CFFFFE10000000DFFFC00000000
0000000EFFFF900000001FFFF800000000
0000001FFFFF300000005FFFF500000000
0000004FFFFE000000008FFFF200000000
0000006FFFF900000000BFFFE000000000
0000008FFFF500000000EFFFB000000000
000000BFFFF200000002FFFF7000000000
000000DFFFD000000005FFFF4000000000
000001FFFFA000000008FFFF1000000000
000003FFFF7000000009FFFE0000000000
000006FFFF400000000AFFFD0000006F30
000008FFFF200000000AFFFE000005FF60
00000AFFFF0000000008FFFF40006FFF30
00000BFFFD0000000004FFFFE98CFFF900
00000BFFFA0000000000CFFFFFFFFF9000
00000AFFF700000000002DFFFFFFF70000
000003DEB10000000000017CEEC8200000
ENDCHAR
STARTCHAR nacute
ENCODING 324
SWIDTH 496 0
DWIDTH 16 0
BBX 19 27 1 0
BITMAP
00000000000165000000
00000000000BFFA00000
00000000003FFFE00000
0000000000AFFFA00000
0000000002FFFE200000
0000000009FFF4000000
000000001EFF70000000
000000008FFA00000000
00000000EFD100000000
00000000BD2000000000
00000000000000000000
00000000000000000000
005DF90005BED3000000
02FFF9009FFFFA000000
06FFF609FFFFFB000000
0AFFF26FFFFFF9000000
0DFFD2EFFFFFF7000000
1FFFA9FF49FFF4000000
3FFFAFF80BFFF1000000
5FFFEFE10DFFD0000120
5FFFFF701FFFA0002DD0
6FFFFF104FFF8001CFE0
6FFFFA006FFF701CFFB0
5FFFF5007FFFD8DFFE20
3FFFF1005FFFFFFFE300
0EFFB0001EFFFFFC2000
06ED300003BEEC600000
ENDCHAR
STARTCHAR uni0145
ENCODING 325
SWIDTH 884 0
DWIDTH 28 0
BBX 33 36 0 -9
BITMAP
000016BEFD600000018CEFD92000000000
0004EFFFFFF400007EFFFFFFE300000000
007FFFFFFFFA0009FFFFFFFFFD00000000
07FFFC8CFFFC008FFFA79FFFFF40000000
4FFF7005FFFD04FFD30006FFFF70000000
DFF60005FFFD0DFD100002FFFF80000000
FF800006FFFB6FE2000002FFFF70000000
68000007FFFADF70000004FFFF50000000
00000009FFFCFD00000007FFFF30000000
0000000BFFFFF60000000AFFFF00000000
0000000CFFFFE10000000DFFFC00000000
0000000EFFFF900000001FFFF800000000
0000001FFFFF300000005FFFF500000000
0000004FFFFE000000008FFFF200000000
0000006FFFF900000000BFFFE000000000
0000008FFFF500000000EFFFB000000000
000000BFFFF200000002FFFF7000000000
000000DFFFD000000005FFFF4000000000
000001FFFFA000000008FFFF1000000000
000003FFFF7000000009FFFE0000000000
000006FFFF400000000AFFFD0000006F30
000008FFFF200000000AFFFE000005FF60
00000AFFFF0000000008FFFF40006FFF30
00000BFFFD0000000004FFFFE98CFFF900
00000BFFFA0000000000CFFFFFFFFF9000
00000AFFF700000000002DFFFFFFF70000
000003DEB10000000000017CEEC8200000
0000000000000000000000000000000000
0000000000000000000000000000000000
000000000000AEB1000000000000000000
000000000004FFF7000000000000000000
000000000006FFF6000000000000000000
000000000006FFF2000000000000000000
000000000007FFC0000000000000000000
000000000007FF80000000000000000000
000000000003EC20000000000000000000
ENDCHAR
STARTCHAR uni0146
ENCODING 326
SWIDTH 496 0
DWIDTH 16 0
BBX 19 25 1 -10
BITMAP
005DF90005BED3000000
02FFF9009FFFFA000000
06FFF609FFFFFB000000
0AFFF26FFFFFF9000000
0DFFD2EFFFFFF7000000
1FFFA9FF49FFF4000000
3FFFAFF80BFFF1000000
5FFFEFE10DFFD0000120
5FFFFF701FFFA0002DD0
6FFFFF104FFF8001CFE0
6FFFFA006FFF701CFFB0
5FFFF5007FFFD8DFFE20
3FFFF1005FFFFFFFE300
0EFFB0001EFFFFFC2000
06ED300003BEEC600000
00000000000000000000
00000000000000000000
00001BEA000000000000
00007FFF300000000000
00009FFF300000000000
0000AFFE000000000000
0000AFFA000000000000
0000BFF5000000000000
0000CFE1000000000000
00007E70000000000000
ENDCHAR
STARTCHAR Ncaron
ENCODING 327
SWIDTH 884 0
DWIDTH 28 0
BBX 33 37 0 0
BITMAP
00000000000004ED400009EC0000000000
00000000000009FFC0007FFF1000000000
00000000000006FFF202FFF90000000000
00000000000000DFF80BFFD10000000000
000000000000006FFD6FFF300000000000
000000000000000DFFFFF6000000000000
0000000000000005FFFFA0000000000000
00000000000000007EE800000000000000
0000000000000000000000000000000000
0000000000000000000000000000000000
000016BEFD600000018CEFD92000000000
0004EFFFFFF400007EFFFFFFE300000000
007FFFFFFFFA0009FFFFFFFFFD00000000
07FFFC8CFFFC008FFFA79FFFFF40000000
4FFF7005FFFD04FFD30006FFFF70000000
DFF60005FFFD0DFD100002FFFF80000000
FF800006FFFB6FE2000002FFFF70000000
68000007FFFADF70000004FFFF50000000
00000009FFFCFD00000007FFFF30000000
0000000BFFFFF60000000AFFFF00000000
0000000CFFFFE10000000DFFFC00000000
0000000EFFFF900000001FFFF800000000
0000001FFFFF300000005FFFF500000000
0000004FFFFE000000008FFFF200000000
0000006FFFF900000000BFFFE000000000
0000008FFFF500000000EFFFB000000000
000000BFFFF200000002FFFF7000000000
000000DFFFD000000005FFFF4000000000
000001FFFFA000000008FFFF1000000000
000003FFFF7000000009FFFE0000000000
000006FFFF400000000AFFFD0000006F30
000008FFFF200000000AFFFE000005FF60
00000AFFFF0000000008FFFF40006FFF30
00000BFFFD0000000004FFFFE98CFFF900
00000BFFFA0000000000CFFFFFFFFF9000
00000AFFF700000000002DFFFFFFF70000
000003DEB10000000000017CEEC8200000
ENDCHAR
STARTCHAR ncaron
ENCODING 328
SWIDTH 496 0
DWIDTH 16 0
BBX 19 28 1 0
BITMAP
00000165000004720000
00000BFF60006FFC0000
00000DFFA001EFFA0000
00000AFFC007FFF20000
000006FFE01EFF800000
000003FFF17FFE100000
000000EFF3EFF6000000
000000AFFBFFC0000000
0000007FFFFF30000000
0000002FFFF900000000
00000006EE8000000000
00000000000000000000
00000000000000000000
005DF90005BED3000000
02FFF9009FFFFA000000
06FFF609FFFFFB000000
0AFFF26FFFFFF9000000
0DFFD2EFFFFFF7000000
1FFFA9FF49FFF4000000
3FFFAFF80BFFF1000000
5FFFEFE10DFFD0000120
5FFFFF701FFFA0002DD0
6FFFFF104FFF8001CFE0
6FFFFA006FFF701CFFB0
5FFFF5007FFFD8DFFE20
3FFFF1005FFFFFFFE300
0EFFB0001EFFFFFC2000
06ED300003BEEC600000
ENDCHAR
STARTCHAR napostrophe
ENCODING 329
SWIDTH 496 0
DWIDTH 16 0
BBX 21 25 -1 0
BITMAP
04DE500000000000000000
0CFFD00000000000000000
0EFFD00000000000000000
0FFF900000000000000000
1FFF400000000000000000
1FFE000000000000000000
2FFA000000000000000000
0CE3000000000000000000
0000000000000000000000
0000000000000000000000
00005DF90005BED3000000
0002FFF9009FFFFA000000
0006FFF609FFFFFB000000
000AFFF26FFFFFF9000000
000DFFD2EFFFFFF7000000
001FFFA9FF49FFF4000000
003FFFAFF80BFFF1000000
005FFFEFE10DFFD0000120
005FFFFF701FFFA0002DD0
006FFFFF104FFF8001CFE0
006FFFFA006FFF701CFFB0
005FFFF5007FFFD8DFFE20
003FFFF1005FFFFFFFE300
000EFFB0001EFFFFFC2000
0006ED300003BEEC600000
ENDCHAR
STARTCHAR Eng
ENCODING 330
SWIDTH 884 0
DWIDTH 28 0
BBX 33 38 0 -11
BITMAP
000006BEFD500000017CEFD92000000000
0003DFFFFFF300006EFFFFFFE200000000
006FFFFFFFFA0008FFFFFFFFFB00000000
05FFFFFFFFFC006FFFFFFFFFFF20000000
3EFFD618FFFD03FFFB413DFFFF50000000
BFFC1004FFFD0CFF700005FFFF50000000
FFD10005FFFC4FF7000003FFFF50000000
BE200006FFFACFB0000004FFFF30000000
00000008FFFBFF20000007FFFF10000000
0000000AFFFEF900000009FFFE00000000
0000000CFFFFF20000000CFFFB00000000
0000000EFFFFB00000001FFFF800000000
0000001FFFFF500000003FFFF400000000
0000003FFFFF100000007FFFF100000000
0000005FFFFA00000000AFFFD000000000
0000008FFFF600000000EFFF9000000000
000000AFFFF200000002FFFF6000000000
000000DFFFE000000005FFFF2000000000
000001FFFFB000000008FFFE0000000000
000003FFFF800000000CFFFA0000000000
000005FFFF500000000FFFF70000004D20
000008FFFF200000003FFFF3000004FF60
00000AFFFF000000007FFFF300004EFF30
00000BFFFD00000000AFFFFFC97BFFF900
00000BFFFA00000000DFFFFFFFFFFFA000
000009FFF700000002FFFFFFFFFFF80000
000002CEB100000006FFFD5BDFDA300000
00000000000000000AFFF8000000000000
00000000000000000EFFF4000000000000
00000000000000003FFFD0000000000000
00000000000000008FFF70000000000000
0000005710000000EFFF20000000000000
000005FFD1000007FFF900000000000000
000009FFFC20003EFFE200000000000000
000004FFFFFA79FFFF6000000000000000
0000007FFFFFFFFFF90000000000000000
00000006EFFFFFFF800000000000000000
0000000017CEFD93000000000000000000
ENDCHAR
STARTCHAR eng
ENCODING 331
SWIDTH 495 0
DWIDTH 16 0
BBX 19 25 1 -10
BITMAP
005DF90005BED3000000
02FFF9009FFFFA000000
06FFF609FFFFFB000000
0AFFF26FFFFFF9000000
0DFFD2EFFFFFF6000000
1FFFA9FF49FFF4000000
3FFFAFF80BFFF1000000
5FFFEFE10DFFC0000120
5FFFFF701FFF90002ED0
6FFFFF104FFF6001DFE0
6FFFFA007FFF302DFFA0
5FFFF500AFFF89EFFE20
3FFFF100DFFFFFFFE300
0EFFB001FFFFFFFC2000
06ED3005FFFFEC600000
00000008FFE000000000
0000000CFF9000000000
0000002FFF4000000000
0000007FFD0000000000
4B7000DFF80000000000
EFE005FFE10000000000
EFF32DFF700000000000
AFFEEFFC000000000000
2FFFFFD2000000000000
04CFD910000000000000
ENDCHAR
STARTCHAR Omacron
ENCODING 332
SWIDTH 816 0
DWIDTH 26 0
BBX 24 33 2 0
BITMAP
000000000377777776200000
000000003FFFFFFFFFC00000
000000006FFFFFFFFFC00000
000000002DFFFFFFFE500000
000000000000000000000000
000000000000000000000000
0000000015ADEFEC83000000
00000007EFFFFFFFFFB20000
000003DFFFFFFFFFFFFE4000
00004EFFFFEA87AEFFFFE300
0003EFFFF7100001BFFFFD00
001DFFFE400000000BFFFF60
008FFFF50000000002FFFFD0
02FFFFA00000000000BFFFF2
08FFFF3000000000007FFFF5
0EFFFB0000000000004FFFF7
3FFFF60000000000003FFFF8
7FFFF30000000000003FFFF7
AFFFF00000000000003FFFF7
CFFFD00000000000004FFFF6
DFFFC00000000000006FFFF3
EFFFB00000000000009FFFF1
EFFFC0000000000000DFFFC0
DFFFD0000000000002FFFF70
BFFFF1000000000009FFFF20
8FFFF500000000002EFFFA00
4FFFFB0000000000BFFFF200
0DFFFF5000000009FFFF7000
05FFFFF6000002BFFFFB0000
009FFFFFD878BFFFFFB10000
000AFFFFFFFFFFFFF9000000
00006EFFFFFFFFFC40000000
0000016ADFFEC83000000000
ENDCHAR
STARTCHAR omacron
ENCODING 333
SWIDTH 451 0
DWIDTH 14 0
BBX 18 21 1 0
BITMAP
000577777776000000
007FFFFFFFFF700000
00AFFFFFFFFF800000
005EFFFFFFFD200000
000000000000000000
000000000000000000
00007CEFD810000000
002DFFFFFFC1000000
01EFFFFFFFFB000000
0AFFFE8EFFFF400000
3FFFE20DFFFF900000
8FFF800BFFFFD89CF7
BFFF3006FFFFFFFFFA
DFFF2000BFFFFFFFF8
EFFF20000EFFFEDA60
CFFF40003FFF600000
9FFFB000BFFF200000
4FFFFB8CFFF9000000
0AFFFFFFFFD1000000
01BFFFFFFC20000000
0006CEEC7100000000
ENDCHAR
STARTCHAR Obreve
ENCODING 334
SWIDTH 816 0
DWIDTH 26 0
BBX 24 35 2 0
BITMAP
00000002CF90000002CE6000
00000007FFF600002DFFA000
00000005FFFFB87AEFFF6000
00000000CFFFFFFFFFFB0000
000000001CFFFFFFFFA10000
00000000005ADFED94000000
000000000000000000000000
000000000000000000000000
0000000015ADEFEC83000000
00000007EFFFFFFFFFB20000
000003DFFFFFFFFFFFFE4000
00004EFFFFEA87AEFFFFE300
0003EFFFF7100001BFFFFD00
001DFFFE400000000BFFFF60
008FFFF50000000002FFFFD0
02FFFFA00000000000BFFFF2
08FFFF3000000000007FFFF5
0EFFFB0000000000004FFFF7
3FFFF60000000000003FFFF8
7FFFF30000000000003FFFF7
AFFFF00000000000003FFFF7
CFFFD00000000000004FFFF6
DFFFC00000000000006FFFF3
EFFFB00000000000009FFFF1
EFFFC0000000000000DFFFC0
DFFFD0000000000002FFFF70
BFFFF1000000000009FFFF20
8FFFF500000000002EFFFA00
4FFFFB0000000000BFFFF200
0DFFFF5000000009FFFF7000
05FFFFF6000002BFFFFB0000
009FFFFFD878BFFFFFB10000
000AFFFFFFFFFFFFF9000000
00006EFFFFFFFFFC40000000
0000016ADFFEC83000000000
ENDCHAR
STARTCHAR obreve
ENCODING 335
SWIDTH 451 0
DWIDTH 14 0
BBX 18 24 1 0
BITMAP
03DE50000004ED2000
0AFFD000001EFF6000
09FFF80000BFFF4000
05FFFFC88DFFFC0000
00BFFFFFFFFFE30000
001BFFFFFFFD300000
00005BDFEB61000000
000000000000000000
000000000000000000
00007CEFD810000000
002DFFFFFFC1000000
01EFFFFFFFFB000000
0AFFFE8EFFFF400000
3FFFE20DFFFF900000
8FFF800BFFFFD89CF7
BFFF3006FFFFFFFFFA
DFFF2000BFFFFFFFF8
EFFF20000EFFFEDA60
CFFF40003FFF600000
9FFFB000BFFF200000
4FFFFB8CFFF9000000
0AFFFFFFFFD1000000
01BFFFFFFC20000000
0006CEEC7100000000
ENDCHAR
STARTCHAR Ohungarumlaut
ENCODING 336
SWIDTH 816 0
DWIDTH 26 0
BBX 24 37 2 0
BITMAP
000000000001740003730000
00000000000CFF601EFF3000
00000000003FFF906FFF6000
00000000007FFF60BFFF3000
0000000000CFFC00EFFA0000
0000000001FFF304FFE10000
0000000005FF9008FF600000
0000000002DC1005EA000000
000000000000000000000000
000000000000000000000000
0000000015ADEFEC83000000
00000007EFFFFFFFFFB20000
000003DFFFFFFFFFFFFE4000
00004EFFFFEA87AEFFFFE300
0003EFFFF7100001BFFFFD00
001DFFFE400000000BFFFF60
008FFFF50000000002FFFFD0
02FFFFA00000000000BFFFF2
08FFFF3000000000007FFFF5
0EFFFB0000000000004FFFF7
3FFFF60000000000003FFFF8
7FFFF30000000000003FFFF7
AFFFF00000000000003FFFF7
CFFFD00000000000004FFFF6
DFFFC00000000000006FFFF3
EFFFB00000000000009FFFF1
EFFFC0000000000000DFFFC0
DFFFD0000000000002FFFF70
BFFFF1000000000009FFFF20
8FFFF500000000002EFFFA00
4FFFFB0000000000BFFFF200
0DFFFF5000000009FFFF7000
05FFFFF6000002BFFFFB0000
009FFFFFD878BFFFFFB10000
000AFFFFFFFFFFFFF9000000
00006EFFFFFFFFFC40000000
0000016ADFFEC83000000000
ENDCHAR
STARTCHAR ohungarumlaut
ENCODING 337
SWIDTH 451 0
DWIDTH 14 0
BBX 18 27 1 0
BITMAP
000001BE9002DE7000
000007FFF50AFFF200
00000CFFF60EFFF300
00001FFFE14FFFC000
00005FFF709FFF4000
0000AFFD00DFFA0000
0000EFF502FFF20000
0004FFB007FF800000
0008FF200BFD100000
0005E70008E4000000
000000000000000000
000000000000000000
00007CEFD810000000
002DFFFFFFC1000000
01EFFFFFFFFB000000
0AFFFE8EFFFF400000
3FFFE20DFFFF900000
8FFF800BFFFFD89CF7
BFFF3006FFFFFFFFFA
DFFF2000BFFFFFFFF8
EFFF20000EFFFEDA60
CFFF40003FFF600000
9FFFB000BFFF200000
4FFFFB8CFFF9000000
0AFFFFFFFFD1000000
01BFFFFFFC20000000
0006CEEC7100000000
ENDCHAR
STARTCHAR OE
ENCODING 338
SWIDTH 1124 0
DWIDTH 36 0
BBX 38 27 2 0
BITMAP
0000000015ADEFEC83000003BEFFFFFFFFE800
00000007EFFFFFFFFFA1003FFFFFFFFFFFFF00
000003DFFFFFFFFFFFFD20DFFFFFFFFFFFFD00
00004EFFFFEA87AEFFFFD4FFFFFFFFFFFFD400
0003EFFFF8100001BFFFFEFFFE100000000000
001DFFFF500000000BFFFFFFFA000000000000
008FFFF60000000002FFFFFFF6000000000000
02FFFFB00000000000BFFFFFF2000000000000
08FFFF3000000000007FFFFFD0000000000000
0EFFFC0000000000004FFFFFA0000000000000
3FFFF70000000000003FFFFF70000000000000
7FFFF30000000000003FFFFF97777777610000
AFFFF00000000000003FFFFFFFFFFFFFFB0000
CFFFD00000000000004FFFFFFFFFFFFFFB0000
DFFFC00000000000006FFFFFFFFFFFFFC30000
EFFFB00000000000009FFFF500000000000000
EFFFC0000000000000DFFFF300000000000000
DFFFD0000000000002FFFFF200000000000000
BFFFF1000000000009FFFFF200000000000000
8FFFF500000000002EFFFFF400000000000000
4FFFFB0000000000BFFFFFF800000000000000
0DFFFF5000000009FFFFFFFE200000000004BA
05FFFFF6000002BFFFFDFFFFD300000016CFFF
009FFFFFD878BFFFFF72EFFFFFC9779CFFFFFB
000AFFFFFFFFFFFFE6004EFFFFFFFFFFFFFFC1
00006EFFFFFFFFFB200002BFFFFFFFFFFFC500
0000016ADFFEB830000000038BEFFEDA720000
ENDCHAR
STARTCHAR oe
ENCODING 339
SWIDTH 668 0
DWIDTH 21 0
BBX 25 15 1 0
BITMAP
00017CFEB40005BEEC50000000
002DFFFFFF61BFFFFFF6000000
01EFFFFFFFFCFFFFFFFE000000
0AFFFD8BFFFFFFC7CFFF200000
3FFFE100BFFFFB004FFF200000
8FFF80005FFFF3006FFE000000
BFFF30002FFFD004EFF8000000
DFFF20002FFFC5BFFFB0000300
EFFF20004FFFFFFFF800009F60
CFFF30008FFFFFC720001AFF70
9FFF9002EFFFF9000006EFFF30
4FFFFA8EFFFFFFC87AEFFFF800
0BFFFFFFFFCFFFFFFFFFFF7000
01CFFFFFF808FFFFFFFFC30000
0017CEEA400039DEFD94000000
ENDCHAR
STARTCHAR Racute
ENCODING 340
SWIDTH 880 0
DWIDTH 28 0
BBX 32 37 1 0
BITMAP
00000000000000000000166000000000
00000000000000000002DFFA00000000
0000000000000000004EFFFE00000000
000000000000000006FFFFFA00000000
00000000000000008FFFFF9100000000
000000000000000AFFFFA30000000000
000000000000007FFFB3000000000000
000000000000005EB300000000000000
00000000000000000000000000000000
00000000000000000000000000000000
000000000027ADEFEDB7300000000000
000000004CFFFFFFFFFFFB2000000000
0000001AFFFFFFFFFFFFFFE300000000
000002DFFFFEA878AEFFFFFD00000000
00002EFFFD500000007FFFFF60000000
0001CFFF900000000008FFFFB0000000
0008FFF80008CC500001FFFFD0000000
002FFFB0006FFFC00000EFFFD0000000
009FFF2000BFFFB00000FFFFB0000000
01EFFA0000EFFF900003FFFF70000000
05FFF40002FFFF600009FFFF20000000
09FFE00004FFFF30005FFFF700000000
0CFFA00007FFFF1018FFFFB000000000
0EFF80016CFFFE8AEFFFF90000000000
1FFF600DFFFFFFFFFFFC400000000000
2FFF500FFFFFFFFFFD40000000000000
3FFF4008EFFFFFFFFFE4000000000000
3FFF40004FFFF47FFFFF300000000000
2FFF50007FFFE007FFFFC00000000000
1FFF70009FFFC000CFFFF50000000000
0DFFA000CFFF90004FFFFC00000007E2
08FFE100FFFF70000CFFFF5000006FF4
03FFF803FFFF400004FFFFE30007FFF1
00AFFF9CFFFF100000AFFFFF98CFFF70
002DFFFFFFFB0000002EFFFFFFFFF700
0002DFFFFFF300000003EFFFFFFE5000
000017CFEC400000000018DFEC710000
ENDCHAR
STARTCHAR racute
ENCODING 341
SWIDTH 455 0
DWIDTH 15 0
BBX 18 27 1 0
BITMAP
000000000005710000
00000000006FFD1000
0000000000EFFF3000
0000000006FFFE1000
000000000DFFF50000
000000004FFF800000
00000000BFFB000000
00000003FFD1000000
00000009FF30000000
00000007E500000000
000000000000000000
000000000000000000
005DF90004BED30000
02FFF9009FFFFA0000
06FFF609FFFFFB0000
0AFFF25FFFFFF90000
0DFFE1EFFFFFF60000
1FFFB8FF69FFF4008A
3FFF9EF909FFF62BFF
5FFFDFE109FFFFFFFD
5FFFFF8006FFFFFFE3
6FFFFF1000BFFFFA20
6FFFFA000004662000
5FFFF6000000000000
3FFFF1000000000000
0EFFB0000000000000
06ED30000000000000
ENDCHAR
STARTCHAR uni0156
ENCODING 342
SWIDTH 880 0
DWIDTH 28 0
BBX 32 36 1 -9
BITMAP
000000000027ADEFEDB7300000000000
000000004CFFFFFFFFFFFB2000000000
0000001AFFFFFFFFFFFFFFE300000000
000002DFFFFEA878AEFFFFFD00000000
00002EFFFD500000007FFFFF60000000
0001CFFF900000000008FFFFB0000000
0008FFF80008CC500001FFFFD0000000
002FFFB0006FFFC00000EFFFD0000000
009FFF2000BFFFB00000FFFFB0000000
01EFFA0000EFFF900003FFFF70000000
05FFF40002FFFF600009FFFF20000000
09FFE00004FFFF30005FFFF700000000
0CFFA00007FFFF1018FFFFB000000000
0EFF80016CFFFE8AEFFFF90000000000
1FFF600DFFFFFFFFFFFC400000000000
2FFF500FFFFFFFFFFD40000000000000
3FFF4008EFFFFFFFFFE4000000000000
3FFF40004FFFF47FFFFF300000000000
2FFF50007FFFE007FFFFC00000000000
1FFF70009FFFC000CFFFF50000000000
0DFFA000CFFF90004FFFFC00000007E2
08FFE100FFFF70000CFFFF5000006FF4
03FFF803FFFF400004FFFFE30007FFF1
00AFFF9CFFFF100000AFFFFF98CFFF70
002DFFFFFFFB0000002EFFFFFFFFF700
0002DFFFFFF300000003EFFFFFFE5000
000017CFEC400000000018DFEC710000
00000000000000000000000000000000
00000000000000000000000000000000
00000000000009EB1000000000000000
0000000000003FFF8000000000000000
0000000000005FFF7000000000000000
0000000000005FFF3000000000000000
0000000000006FFE0000000000000000
0000000000006FF90000000000000000
0000000000002DD20000000000000000
ENDCHAR
STARTCHAR uni0157
ENCODING 343
SWIDTH 455 0
DWIDTH 15 0
BBX 18 25 1 -10
BITMAP
005DF90004BED30000
02FFF9009FFFFA0000
06FFF609FFFFFB0000
0AFFF25FFFFFF90000
0DFFE1EFFFFFF60000
1FFFB8FF69FFF4008A
3FFF9EF909FFF62BFF
5FFFDFE109FFFFFFFD
5FFFFF8006FFFFFFE3
6FFFFF1000BFFFFA20
6FFFFA000004662000
5FFFF6000000000000
3FFFF1000000000000
0EFFB0000000000000
06ED30000000000000
000000000000000000
000000000000000000
1BEA00000000000000
7FFF40000000000000
9FFF30000000000000
9FFE00000000000000
AFFA00000000000000
BFF500000000000000
BFF100000000000000
7E7000000000000000
ENDCHAR
ENDFONT
